  0
SECTION
  2
HEADER
  9
$ACADVER
  1
AC1024
  9
$ACADMAINTVER
 70
6
  9
$DWGCODEPAGE
  3
ANSI_1252
  9
$LASTSAVEDBY
  1
ezdxf
  9
$INSBASE
 10
0.0
 20
0.0
 30
0.0
  9
$EXTMIN
 10
1e+20
 20
1e+20
 30
1e+20
  9
$EXTMAX
 10
-1e+20
 20
-1e+20
 30
-1e+20
  9
$LIMMIN
 10
0.0
 20
0.0
  9
$LIMMAX
 10
420.0
 20
297.0
  9
$ORTHOMODE
 70
0
  9
$REGENMODE
 70
1
  9
$FILLMODE
 70
1
  9
$QTEXTMODE
 70
0
  9
$MIRRTEXT
 70
1
  9
$LTSCALE
 40
1.0
  9
$ATTMODE
 70
1
  9
$TEXTSIZE
 40
2.5
  9
$TRACEWID
 40
1.0
  9
$TEXTSTYLE
  7
Standard
  9
$CLAYER
  8
0
  9
$CELTYPE
  6
ByLayer
  9
$CECOLOR
 62
256
  9
$CELTSCALE
 40
1.0
  9
$DISPSILH
 70
0
  9
$DIMSCALE
 40
1.0
  9
$DIMASZ
 40
2.5
  9
$DIMEXO
 40
0.625
  9
$DIMDLI
 40
3.75
  9
$DIMRND
 40
0.0
  9
$DIMDLE
 40
0.0
  9
$DIMEXE
 40
1.25
  9
$DIMTP
 40
0.0
  9
$DIMTM
 40
0.0
  9
$DIMTXT
 40
2.5
  9
$DIMCEN
 40
2.5
  9
$DIMTSZ
 40
0.0
  9
$DIMTOL
 70
0
  9
$DIMLIM
 70
0
  9
$DIMTIH
 70
0
  9
$DIMTOH
 70
0
  9
$DIMSE1
 70
0
  9
$DIMSE2
 70
0
  9
$DIMTAD
 70
1
  9
$DIMZIN
 70
8
  9
$DIMBLK
  1

  9
$DIMASO
 70
1
  9
$DIMSHO
 70
1
  9
$DIMPOST
  1

  9
$DIMAPOST
  1

  9
$DIMALT
 70
0
  9
$DIMALTD
 70
3
  9
$DIMALTF
 40
0.03937007874
  9
$DIMLFAC
 40
1.0
  9
$DIMTOFL
 70
1
  9
$DIMTVP
 40
0.0
  9
$DIMTIX
 70
0
  9
$DIMSOXD
 70
0
  9
$DIMSAH
 70
0
  9
$DIMBLK1
  1

  9
$DIMBLK2
  1

  9
$DIMSTYLE
  2
ISO-25
  9
$DIMCLRD
 70
0
  9
$DIMCLRE
 70
0
  9
$DIMCLRT
 70
0
  9
$DIMTFAC
 40
1.0
  9
$DIMGAP
 40
0.625
  9
$DIMJUST
 70
0
  9
$DIMSD1
 70
0
  9
$DIMSD2
 70
0
  9
$DIMTOLJ
 70
0
  9
$DIMTZIN
 70
8
  9
$DIMALTZ
 70
0
  9
$DIMALTTZ
 70
0
  9
$DIMUPT
 70
0
  9
$DIMDEC
 70
2
  9
$DIMTDEC
 70
2
  9
$DIMALTU
 70
2
  9
$DIMALTTD
 70
3
  9
$DIMTXSTY
  7
Standard
  9
$DIMAUNIT
 70
0
  9
$DIMADEC
 70
0
  9
$DIMALTRND
 40
0.0
  9
$DIMAZIN
 70
0
  9
$DIMDSEP
 70
44
  9
$DIMATFIT
 70
3
  9
$DIMFRAC
 70
0
  9
$DIMLDRBLK
  1

  9
$DIMLUNIT
 70
2
  9
$DIMLWD
 70
-2
  9
$DIMLWE
 70
-2
  9
$DIMTMOVE
 70
0
  9
$DIMFXL
 40
1.0
  9
$DIMFXLON
 70
0
  9
$DIMJOGANG
 40
0.785398163397
  9
$DIMTFILL
 70
0
  9
$DIMTFILLCLR
 70
0
  9
$DIMARCSYM
 70
0
  9
$DIMLTYPE
  6

  9
$DIMLTEX1
  6

  9
$DIMLTEX2
  6

  9
$DIMTXTDIRECTION
 70
0
  9
$LUNITS
 70
2
  9
$LUPREC
 70
4
  9
$SKETCHINC
 40
1.0
  9
$FILLETRAD
 40
10.0
  9
$AUNITS
 70
0
  9
$AUPREC
 70
2
  9
$MENU
  1
.
  9
$ELEVATION
 40
0.0
  9
$PELEVATION
 40
0.0
  9
$THICKNESS
 40
0.0
  9
$LIMCHECK
 70
0
  9
$CHAMFERA
 40
0.0
  9
$CHAMFERB
 40
0.0
  9
$CHAMFERC
 40
0.0
  9
$CHAMFERD
 40
0.0
  9
$SKPOLY
 70
0
  9
$TDCREATE
 40
2460252.617372685
  9
$TDUCREATE
 40
2458532.153996898
  9
$TDUPDATE
 40
2460252.617372685
  9
$TDUUPDATE
 40
2458532.1544311
  9
$TDINDWG
 40
0.0
  9
$TDUSRTIMER
 40
0.0
  9
$USRTIMER
 70
1
  9
$ANGBASE
 50
0.0
  9
$ANGDIR
 70
0
  9
$PDMODE
 70
0
  9
$PDSIZE
 40
0.0
  9
$PLINEWID
 40
0.0
  9
$SPLFRAME
 70
0
  9
$SPLINETYPE
 70
6
  9
$SPLINESEGS
 70
8
  9
$HANDSEED
  5
132
  9
$SURFTAB1
 70
6
  9
$SURFTAB2
 70
6
  9
$SURFTYPE
 70
6
  9
$SURFU
 70
6
  9
$SURFV
 70
6
  9
$UCSBASE
  2

  9
$UCSNAME
  2

  9
$UCSORG
 10
0.0
 20
0.0
 30
0.0
  9
$UCSXDIR
 10
1.0
 20
0.0
 30
0.0
  9
$UCSYDIR
 10
0.0
 20
1.0
 30
0.0
  9
$UCSORTHOREF
  2

  9
$UCSORTHOVIEW
 70
0
  9
$UCSORGTOP
 10
0.0
 20
0.0
 30
0.0
  9
$UCSORGBOTTOM
 10
0.0
 20
0.0
 30
0.0
  9
$UCSORGLEFT
 10
0.0
 20
0.0
 30
0.0
  9
$UCSORGRIGHT
 10
0.0
 20
0.0
 30
0.0
  9
$UCSORGFRONT
 10
0.0
 20
0.0
 30
0.0
  9
$UCSORGBACK
 10
0.0
 20
0.0
 30
0.0
  9
$PUCSBASE
  2

  9
$PUCSNAME
  2

  9
$PUCSORG
 10
0.0
 20
0.0
 30
0.0
  9
$PUCSXDIR
 10
1.0
 20
0.0
 30
0.0
  9
$PUCSYDIR
 10
0.0
 20
1.0
 30
0.0
  9
$PUCSORTHOREF
  2

  9
$PUCSORTHOVIEW
 70
0
  9
$PUCSORGTOP
 10
0.0
 20
0.0
 30
0.0
  9
$PUCSORGBOTTOM
 10
0.0
 20
0.0
 30
0.0
  9
$PUCSORGLEFT
 10
0.0
 20
0.0
 30
0.0
  9
$PUCSORGRIGHT
 10
0.0
 20
0.0
 30
0.0
  9
$PUCSORGFRONT
 10
0.0
 20
0.0
 30
0.0
  9
$PUCSORGBACK
 10
0.0
 20
0.0
 30
0.0
  9
$USERI1
 70
0
  9
$USERI2
 70
0
  9
$USERI3
 70
0
  9
$USERI4
 70
0
  9
$USERI5
 70
0
  9
$USERR1
 40
0.0
  9
$USERR2
 40
0.0
  9
$USERR3
 40
0.0
  9
$USERR4
 40
0.0
  9
$USERR5
 40
0.0
  9
$WORLDVIEW
 70
1
  9
$SHADEDGE
 70
3
  9
$SHADEDIF
 70
70
  9
$TILEMODE
 70
1
  9
$MAXACTVP
 70
64
  9
$PINSBASE
 10
0.0
 20
0.0
 30
0.0
  9
$PLIMCHECK
 70
0
  9
$PEXTMIN
 10
1e+20
 20
1e+20
 30
1e+20
  9
$PEXTMAX
 10
-1e+20
 20
-1e+20
 30
-1e+20
  9
$PLIMMIN
 10
0.0
 20
0.0
  9
$PLIMMAX
 10
420.0
 20
297.0
  9
$UNITMODE
 70
0
  9
$VISRETAIN
 70
1
  9
$PLINEGEN
 70
0
  9
$PSLTSCALE
 70
1
  9
$TREEDEPTH
 70
3020
  9
$CMLSTYLE
  2
Standard
  9
$CMLJUST
 70
0
  9
$CMLSCALE
 40
20.0
  9
$PROXYGRAPHICS
 70
1
  9
$MEASUREMENT
 70
1
  9
$CELWEIGHT
370
-1
  9
$ENDCAPS
280
0
  9
$JOINSTYLE
280
0
  9
$LWDISPLAY
290
0
  9
$INSUNITS
 70
6
  9
$HYPERLINKBASE
  1

  9
$STYLESHEET
  1

  9
$XEDIT
290
1
  9
$CEPSNTYPE
380
0
  9
$PSTYLEMODE
290
1
  9
$FINGERPRINTGUID
  2
{098AFD53-0182-4CFE-B6C4-F3758F269CEE}
  9
$VERSIONGUID
  2
{52C3D242-32E6-4C37-890C-0D76F86E2258}
  9
$EXTNAMES
290
1
  9
$PSVPSCALE
 40
0.0
  9
$OLESTARTUP
290
0
  9
$SORTENTS
280
127
  9
$INDEXCTL
280
0
  9
$HIDETEXT
280
1
  9
$XCLIPFRAME
280
0
  9
$HALOGAP
280
0
  9
$OBSCOLOR
 70
257
  9
$OBSLTYPE
280
0
  9
$INTERSECTIONDISPLAY
280
0
  9
$INTERSECTIONCOLOR
 70
257
  9
$DIMASSOC
280
2
  9
$PROJECTNAME
  1

  9
$CAMERADISPLAY
290
0
  9
$LENSLENGTH
 40
50.0
  9
$CAMERAHEIGHT
 40
0.0
  9
$STEPSPERSEC
 40
24.0
  9
$STEPSIZE
 40
100.0
  9
$3DDWFPREC
 40
2.0
  9
$PSOLWIDTH
 40
0.005
  9
$PSOLHEIGHT
 40
0.08
  9
$LOFTANG1
 40
1.570796326795
  9
$LOFTANG2
 40
1.570796326795
  9
$LOFTMAG1
 40
0.0
  9
$LOFTMAG2
 40
0.0
  9
$LOFTPARAM
 70
7
  9
$LOFTNORMALS
280
1
  9
$LATITUDE
 40
37.795
  9
$LONGITUDE
 40
-122.394
  9
$NORTHDIRECTION
 40
0.0
  9
$TIMEZONE
 70
-8000
  9
$LIGHTGLYPHDISPLAY
280
1
  9
$TILEMODELIGHTSYNCH
280
1
  9
$CMATERIAL
347
20
  9
$SOLIDHIST
280
0
  9
$SHOWHIST
280
1
  9
$DWFFRAME
280
2
  9
$DGNFRAME
280
2
  9
$REALWORLDSCALE
290
1
  9
$INTERFERECOLOR
 62
256
  9
$CSHADOW
280
0
  9
$SHADOWPLANELOCATION
 40
0.0
  0
ENDSEC
  0
SECTION
  2
CLASSES
  0
CLASS
  1
ACDBDICTIONARYWDFLT
  2
AcDbDictionaryWithDefault
  3
ObjectDBX Classes
 90
0
 91
0
280
0
281
0
  0
CLASS
  1
SUN
  2
AcDbSun
  3
SCENEOE
 90
1153
 91
0
280
0
281
0
  0
CLASS
  1
VISUALSTYLE
  2
AcDbVisualStyle
  3
ObjectDBX Classes
 90
4095
 91
0
280
0
281
0
  0
CLASS
  1
MATERIAL
  2
AcDbMaterial
  3
ObjectDBX Classes
 90
1153
 91
0
280
0
281
0
  0
CLASS
  1
SCALE
  2
AcDbScale
  3
ObjectDBX Classes
 90
1153
 91
0
280
0
281
0
  0
CLASS
  1
TABLESTYLE
  2
AcDbTableStyle
  3
ObjectDBX Classes
 90
4095
 91
0
280
0
281
0
  0
CLASS
  1
MLEADERSTYLE
  2
AcDbMLeaderStyle
  3
ACDB_MLEADERSTYLE_CLASS
 90
4095
 91
0
280
0
281
0
  0
CLASS
  1
DICTIONARYVAR
  2
AcDbDictionaryVar
  3
ObjectDBX Classes
 90
0
 91
0
280
0
281
0
  0
CLASS
  1
CELLSTYLEMAP
  2
AcDbCellStyleMap
  3
ObjectDBX Classes
 90
1152
 91
0
280
0
281
0
  0
CLASS
  1
MENTALRAYRENDERSETTINGS
  2
AcDbMentalRayRenderSettings
  3
SCENEOE
 90
1024
 91
0
280
0
281
0
  0
CLASS
  1
ACDBDETAILVIEWSTYLE
  2
AcDbDetailViewStyle
  3
ObjectDBX Classes
 90
1025
 91
0
280
0
281
0
  0
CLASS
  1
ACDBSECTIONVIEWSTYLE
  2
AcDbSectionViewStyle
  3
ObjectDBX Classes
 90
1025
 91
0
280
0
281
0
  0
CLASS
  1
RASTERVARIABLES
  2
AcDbRasterVariables
  3
ISM
 90
0
 91
0
280
0
281
0
  0
CLASS
  1
ACDBPLACEHOLDER
  2
AcDbPlaceHolder
  3
ObjectDBX Classes
 90
0
 91
0
280
0
281
0
  0
CLASS
  1
LAYOUT
  2
AcDbLayout
  3
ObjectDBX Classes
 90
0
 91
0
280
0
281
0
  0
ENDSEC
  0
SECTION
  2
TABLES
  0
TABLE
  2
VPORT
  5
8
330
0
100
AcDbSymbolTable
 70
1
  0
VPORT
  5
23
330
8
100
AcDbSymbolTableRecord
100
AcDbViewportTableRecord
  2
*Active
 70
0
 10
0.0
 20
0.0
 11
1.0
 21
1.0
 12
0.0
 22
0.0
 13
0.0
 23
0.0
 14
0.5
 24
0.5
 15
0.5
 25
0.5
 16
0.0
 26
0.0
 36
1.0
 17
0.0
 27
0.0
 37
0.0
 40
1000.0
 41
1.34
 42
50.0
 43
0.0
 44
0.0
 50
0.0
 51
0.0
 71
0
 72
1000
 73
1
 74
3
 75
0
 76
0
 77
0
 78
0
281
0
 65
0
146
0.0
  0
ENDTAB
  0
TABLE
  2
LTYPE
  5
2
330
0
100
AcDbSymbolTable
 70
3
  0
LTYPE
  5
24
330
2
100
AcDbSymbolTableRecord
100
AcDbLinetypeTableRecord
  2
ByBlock
 70
0
  3

 72
65
 73
0
 40
0.0
  0
LTYPE
  5
25
330
2
100
AcDbSymbolTableRecord
100
AcDbLinetypeTableRecord
  2
ByLayer
 70
0
  3

 72
65
 73
0
 40
0.0
  0
LTYPE
  5
26
330
2
100
AcDbSymbolTableRecord
100
AcDbLinetypeTableRecord
  2
Continuous
 70
0
  3

 72
65
 73
0
 40
0.0
  0
ENDTAB
  0
TABLE
  2
LAYER
  5
1
330
0
100
AcDbSymbolTable
 70
2
  0
LAYER
  5
27
330
1
100
AcDbSymbolTableRecord
100
AcDbLayerTableRecord
  2
0
 70
0
 62
7
  6
Continuous
370
-3
390
13
347
21
  0
LAYER
  5
28
330
1
100
AcDbSymbolTableRecord
100
AcDbLayerTableRecord
  2
Defpoints
 70
0
 62
7
  6
Continuous
290
0
370
-3
390
13
347
21
  0
ENDTAB
  0
TABLE
  2
STYLE
  5
5
330
0
100
AcDbSymbolTable
 70
1
  0
STYLE
  5
29
330
5
100
AcDbSymbolTableRecord
100
AcDbTextStyleTableRecord
  2
Standard
 70
0
 40
0.0
 41
1.0
 50
0.0
 71
0
 42
2.5
  3
txt
  4

  0
ENDTAB
  0
TABLE
  2
VIEW
  5
7
330
0
100
AcDbSymbolTable
 70
0
  0
ENDTAB
  0
TABLE
  2
UCS
  5
6
330
0
100
AcDbSymbolTable
 70
0
  0
ENDTAB
  0
TABLE
  2
APPID
  5
3
330
0
100
AcDbSymbolTable
 70
3
  0
APPID
  5
2A
330
3
100
AcDbSymbolTableRecord
100
AcDbRegAppTableRecord
  2
ACAD
 70
0
  0
APPID
  5
12F
330
3
100
AcDbSymbolTableRecord
100
AcDbRegAppTableRecord
  2
HATCHBACKGROUNDCOLOR
 70
0
  0
APPID
  5
130
330
3
100
AcDbSymbolTableRecord
100
AcDbRegAppTableRecord
  2
EZDXF
 70
0
  0
ENDTAB
  0
TABLE
  2
DIMSTYLE
  5
4
330
0
100
AcDbSymbolTable
 70
1
100
AcDbDimStyleTable
  0
DIMSTYLE
105
2B
330
4
100
AcDbSymbolTableRecord
100
AcDbDimStyleTableRecord
  2
Standard
 70
0
 40
1.0
 41
2.5
 42
0.625
 43
3.75
 44
1.25
 45
0.0
 46
0.0
 47
0.0
 48
0.0
 49
2.5
140
2.5
141
2.5
142
0.0
143
0.03937007874
144
1.0
145
0.0
146
1.0
147
0.625
148
0.0
 69
0
 70
0
 71
0
 72
0
 73
0
 74
0
 75
0
 76
0
 77
1
 78
8
 79
3
170
0
171
3
172
1
173
0
174
0
175
0
176
0
177
0
178
0
179
2
271
2
272
2
273
2
274
3
275
0
276
0
277
2
278
44
279
0
280
0
281
0
282
0
283
0
284
8
285
0
286
0
288
0
289
3
290
0
371
-2
372
-2
  0
ENDTAB
  0
TABLE
  2
BLOCK_RECORD
  5
9
330
0
100
AcDbSymbolTable
 70
3
  0
BLOCK_RECORD
  5
17
330
9
100
AcDbSymbolTableRecord
100
AcDbBlockTableRecord
  2
*Model_Space
340
1A
 70
0
280
1
281
0
  0
BLOCK_RECORD
  5
1B
330
9
100
AcDbSymbolTableRecord
100
AcDbBlockTableRecord
  2
*Paper_Space
340
1E
 70
0
280
1
281
0
  0
BLOCK_RECORD
  5
2F
330
9
100
AcDbSymbolTableRecord
100
AcDbBlockTableRecord
  2
FLAG
340
0
 70
0
280
1
281
0
  0
ENDTAB
  0
ENDSEC
  0
SECTION
  2
BLOCKS
  0
BLOCK
  5
18
330
17
100
AcDbEntity
  8
0
100
AcDbBlockBegin
  2
*Model_Space
 70
0
 10
0.0
 20
0.0
 30
0.0
  3
*Model_Space
  1

  0
ENDBLK
  5
19
330
17
100
AcDbEntity
  8
0
100
AcDbBlockEnd
  0
BLOCK
  5
1C
330
1B
100
AcDbEntity
  8
0
100
AcDbBlockBegin
  2
*Paper_Space
 70
0
 10
0.0
 20
0.0
 30
0.0
  3
*Paper_Space
  1

  0
ENDBLK
  5
1D
330
1B
100
AcDbEntity
  8
0
100
AcDbBlockEnd
  0
BLOCK
  5
30
330
2F
100
AcDbEntity
  8
0
100
AcDbBlockBegin
  2
FLAG
 70
2
 10
0.0
 20
0.0
 30
0.0
  3
FLAG
  1

  0
ATTDEF
  5
32
330
2F
100
AcDbEntity
  8
0
 62
3
100
AcDbText
 10
0.5
 20
-0.5
 30
0.0
 40
0.5
  1

100
AcDbAttributeDefinition
280
0
  3

  2
NAME
 70
0
  0
ATTDEF
  5
33
330
2F
100
AcDbEntity
  8
0
 62
4
100
AcDbText
 10
0.5
 20
-1.0
 30
0.0
 40
0.25
  1

100
AcDbAttributeDefinition
280
0
  3

  2
XPOS
 70
0
  0
ATTDEF
  5
34
330
2F
100
AcDbEntity
  8
0
 62
4
100
AcDbText
 10
0.5
 20
-1.5
 30
0.0
 40
0.25
  1

100
AcDbAttributeDefinition
280
0
  3

  2
YPOS
 70
0
  0
ENDBLK
  5
31
330
2F
100
AcDbEntity
  8
0
100
AcDbBlockEnd
  0
ENDSEC
  0
SECTION
  2
ENTITIES
  0
INSERT
  5
35
330
17
100
AcDbEntity
  8
0
100
AcDbBlockReference
 66
1
  2
FLAG
 10
-31.0
 20
-33.0
 30
0.0
 41
1.735214801024781
 42
1.735214801024781
 43
1.735214801024781
 50
15.0
  0
ATTRIB
  5
37
330
17
100
AcDbEntity
  8
0
 62
3
100
AcDbText
 10
-29.93740228584106
 20
-33.61349107630994
 30
0.0
 40
0.8676074005123905
  1
P(1)
 50
14.999999999999998
 11
-29.93740228584106
 21
-33.61349107630994
 31
0.0
100
AcDbAttribute
280
0
  2
NAME
 70
0
  0
ATTRIB
  5
38
330
17
100
AcDbEntity
  8
0
 62
4
100
AcDbText
 10
-29.712848966916564
 20
-34.45153547154439
 30
0.0
 40
0.43380370025619525
  1
x = -31.000
 50
14.999999999999998
 11
-29.712848966916564
 21
-34.45153547154439
 31
0.0
100
AcDbAttribute
280
0
  2
XPOS
 70
0
  0
ATTRIB
  5
39
330
17
100
AcDbEntity
  8
0
 62
4
100
AcDbText
 10
-29.488295647992068
 20
-35.28957986677883
 30
0.0
 40
0.43380370025619525
  1
yyy = -33.000
 50
14.999999999999998
 11
-29.488295647992068
 21
-35.28957986677883
 31
0.0
100
AcDbAttribute
280
0
  2
YPOS
 70
0
  0
SEQEND
  5
36
330
35
100
AcDbEntity
  8
0
  0
INSERT
  5
3A
330
17
100
AcDbEntity
  8
0
100
AcDbBlockReference
 66
1
  2
FLAG
 10
27.0
 20
73.0
 30
0.0
 41
0.5806075593790858
 42
0.5806075593790858
 43
0.5806075593790858
 50
15.0
  0
ATTRIB
  5
3C
330
17
100
AcDbEntity
  8
0
 62
3
100
AcDbText
 10
27.355548065320363
 20
72.79472422877744
 30
0.0
 40
0.2903037796895429
  1
P(2)
 50
14.999999999999998
 41
1.0000000000000002
 11
27.355548065320363
 21
72.79472422877744
 31
0.0
100
AcDbAttribute
280
0
  2
NAME
 70
0
  0
ATTRIB
  5
3D
330
17
100
AcDbEntity
  8
0
 62
4
100
AcDbText
 10
27.43068421236926
 20
72.51431231050597
 30
0.0
 40
0.14515188984477145
  1
x = 27.000
 50
14.999999999999998
 41
1.0000000000000002
 11
27.43068421236926
 21
72.51431231050597
 31
0.0
100
AcDbAttribute
280
0
  2
XPOS
 70
0
  0
ATTRIB
  5
3E
330
17
100
AcDbEntity
  8
0
 62
4
100
AcDbText
 10
27.505820359418163
 20
72.23390039223452
 30
0.0
 40
0.14515188984477145
  1
yyy = 73.000
 50
14.999999999999998
 41
1.0000000000000002
 11
27.505820359418163
 21
72.23390039223452
 31
0.0
100
AcDbAttribute
280
0
  2
YPOS
 70
0
  0
SEQEND
  5
3B
330
3A
100
AcDbEntity
  8
0
  0
INSERT
  5
3F
330
17
100
AcDbEntity
  8
0
100
AcDbBlockReference
 66
1
  2
FLAG
 10
11.0
 20
-52.0
 30
0.0
 41
1.8393774105945175
 42
1.8393774105945175
 43
1.8393774105945175
 50
15.0
  0
ATTRIB
  5
41
330
17
100
AcDbEntity
  8
0
 62
3
100
AcDbText
 10
12.126384025089589
 20
-52.650318120096365
 30
0.0
 40
0.9196887052972588
  1
P(3)
 50
14.999999999999998
 11
12.126384025089589
 21
-52.650318120096365
 31
0.0
100
AcDbAttribute
280
0
  2
NAME
 70
0
  0
ATTRIB
  5
42
330
17
100
AcDbEntity
  8
0
 62
4
100
AcDbText
 10
12.364416977586199
 20
-53.53866919268935
 30
0.0
 40
0.4598443526486294
  1
x = 11.000
 50
14.999999999999998
 11
12.364416977586199
 21
-53.53866919268935
 31
0.0
100
AcDbAttribute
280
0
  2
XPOS
 70
0
  0
ATTRIB
  5
43
330
17
100
AcDbEntity
  8
0
 62
4
100
AcDbText
 10
12.602449930082809
 20
-54.42702026528232
 30
0.0
 40
0.4598443526486294
  1
yyy = -52.000
 50
14.999999999999998
 11
12.602449930082809
 21
-54.42702026528232
 31
0.0
100
AcDbAttribute
280
0
  2
YPOS
 70
0
  0
SEQEND
  5
40
330
3F
100
AcDbEntity
  8
0
  0
INSERT
  5
44
330
17
100
AcDbEntity
  8
0
100
AcDbBlockReference
 66
1
  2
FLAG
 10
-39.0
 20
-6.0
 30
0.0
 41
0.779367845942867
 42
0.779367845942867
 43
0.779367845942867
 50
15.0
  0
ATTRIB
  5
46
330
17
100
AcDbEntity
  8
0
 62
3
100
AcDbText
 10
-38.52273661387698
 20
-6.275548144452477
 30
0.0
 40
0.3896839229714335
  1
P(4)
 50
14.999999999999998
 11
-38.52273661387698
 21
-6.275548144452477
 31
0.0
100
AcDbAttribute
280
0
  2
NAME
 70
0
  0
ATTRIB
  5
47
330
17
100
AcDbEntity
  8
0
 62
4
100
AcDbText
 10
-38.42187899304171
 20
-6.651953909740224
 30
0.0
 40
0.19484196148571675
  1
x = -39.000
 50
14.999999999999998
 11
-38.42187899304171
 21
-6.651953909740224
 31
0.0
100
AcDbAttribute
280
0
  2
XPOS
 70
0
  0
ATTRIB
  5
48
330
17
100
AcDbEntity
  8
0
 62
4
100
AcDbText
 10
-38.32102137220644
 20
-7.028359675027972
 30
0.0
 40
0.19484196148571675
  1
yyy = -6.000
 50
14.999999999999998
 11
-38.32102137220644
 21
-7.028359675027972
 31
0.0
100
AcDbAttribute
280
0
  2
YPOS
 70
0
  0
SEQEND
  5
45
330
44
100
AcDbEntity
  8
0
  0
INSERT
  5
49
330
17
100
AcDbEntity
  8
0
100
AcDbBlockReference
 66
1
  2
FLAG
 10
80.0
 20
77.0
 30
0.0
 41
1.9164696432293054
 42
1.9164696432293054
 43
1.9164696432293054
 50
15.0
  0
ATTRIB
  5
4B
330
17
100
AcDbEntity
  8
0
 62
3
100
AcDbText
 10
81.17359318336138
 20
76.3224256596672
 30
0.0
 40
0.9582348216146527
  1
P(5)
 50
14.999999999999998
 11
81.17359318336138
 21
76.3224256596672
 31
0.0
100
AcDbAttribute
280
0
  2
NAME
 70
0
  0
ATTRIB
  5
4C
330
17
100
AcDbEntity
  8
0
 62
4
100
AcDbText
 10
81.42160260487567
 20
75.39684189782011
 30
0.0
 40
0.47911741080732634
  1
x = 80.000
 50
14.999999999999998
 11
81.42160260487567
 21
75.39684189782011
 31
0.0
100
AcDbAttribute
280
0
  2
XPOS
 70
0
  0
ATTRIB
  5
4D
330
17
100
AcDbEntity
  8
0
 62
4
100
AcDbText
 10
81.66961202638996
 20
74.47125813597302
 30
0.0
 40
0.47911741080732634
  1
yyy = 77.000
 50
14.999999999999998
 11
81.66961202638996
 21
74.47125813597302
 31
0.0
100
AcDbAttribute
280
0
  2
YPOS
 70
0
  0
SEQEND
  5
4A
330
49
100
AcDbEntity
  8
0
  0
INSERT
  5
4E
330
17
100
AcDbEntity
  8
0
100
AcDbBlockReference
 66
1
  2
FLAG
 10
-78.0
 20
12.0
 30
0.0
 41
0.8728734731884513
 42
0.8728734731884513
 43
0.8728734731884513
 50
15.0
  0
ATTRIB
  5
50
330
17
100
AcDbEntity
  8
0
 62
3
100
AcDbText
 10
-77.46547634516934
 20
11.691392623995297
 30
0.0
 40
0.43643673659422566
  1
P(6)
 50
14.999999999999998
 11
-77.46547634516934
 21
11.691392623995297
 31
0.0
100
AcDbAttribute
280
0
  2
NAME
 70
0
  0
ATTRIB
  5
51
330
17
100
AcDbEntity
  8
0
 62
4
100
AcDbText
 10
-77.35251820575637
 20
11.269827108577614
 30
0.0
 40
0.21821836829711283
  1
x = -78.000
 50
14.999999999999998
 11
-77.35251820575637
 21
11.269827108577614
 31
0.0
100
AcDbAttribute
280
0
  2
XPOS
 70
0
  0
ATTRIB
  5
52
330
17
100
AcDbEntity
  8
0
 62
4
100
AcDbText
 10
-77.23956006634339
 20
10.848261593159933
 30
0.0
 40
0.21821836829711283
  1
yyy = 12.000
 50
14.999999999999998
 11
-77.23956006634339
 21
10.848261593159933
 31
0.0
100
AcDbAttribute
280
0
  2
YPOS
 70
0
  0
SEQEND
  5
4F
330
4E
100
AcDbEntity
  8
0
  0
INSERT
  5
53
330
17
100
AcDbEntity
  8
0
100
AcDbBlockReference
 66
1
  2
FLAG
 10
-29.0
 20
-93.0
 30
0.0
 41
1.5051286307504361
 42
1.5051286307504361
 43
1.5051286307504361
 50
15.0
  0
ATTRIB
  5
55
330
17
100
AcDbEntity
  8
0
 62
3
100
AcDbText
 10
-28.07830071435188
 20
-93.53214333068082
 30
0.0
 40
0.7525643153752181
  1
P(7)
 50
14.999999999999998
 41
1.0000000000000002
 11
-28.07830071435188
 21
-93.53214333068082
 31
0.0
100
AcDbAttribute
280
0
  2
NAME
 70
0
  0
ATTRIB
  5
56
330
17
100
AcDbEntity
  8
0
 62
4
100
AcDbText
 10
-27.883522736868233
 20
-94.2590646388453
 30
0.0
 40
0.37628215768760903
  1
x = -29.000
 50
14.999999999999998
 41
1.0000000000000002
 11
-27.883522736868233
 21
-94.2590646388453
 31
0.0
100
AcDbAttribute
280
0
  2
XPOS
 70
0
  0
ATTRIB
  5
57
330
17
100
AcDbEntity
  8
0
 62
4
100
AcDbText
 10
-27.688744759384587
 20
-94.98598594700978
 30
0.0
 40
0.37628215768760903
  1
yyy = -93.000
 50
14.999999999999998
 41
1.0000000000000002
 11
-27.688744759384587
 21
-94.98598594700978
 31
0.0
100
AcDbAttribute
280
0
  2
YPOS
 70
0
  0
SEQEND
  5
54
330
53
100
AcDbEntity
  8
0
  0
INSERT
  5
58
330
17
100
AcDbEntity
  8
0
100
AcDbBlockReference
 66
1
  2
FLAG
 10
87.0
 20
8.0
 30
0.0
 41
1.1395158778719363
 42
1.1395158778719363
 43
1.1395158778719363
 50
15.0
  0
ATTRIB
  5
5A
330
17
100
AcDbEntity
  8
0
 62
3
100
AcDbText
 10
87.69780811364647
 20
7.597120297743506
 30
0.0
 40
0.5697579389359682
  1
P(8)
 50
14.999999999999998
 41
1.0000000000000002
 11
87.69780811364647
 21
7.597120297743506
 31
0.0
100
AcDbAttribute
280
0
  2
NAME
 70
0
  0
ATTRIB
  5
5B
330
17
100
AcDbEntity
  8
0
 62
4
100
AcDbText
 10
87.84527231934146
 20
7.046776389792025
 30
0.0
 40
0.2848789694679841
  1
x = 87.000
 50
14.999999999999998
 41
1.0000000000000002
 11
87.84527231934146
 21
7.046776389792025
 31
0.0
100
AcDbAttribute
280
0
  2
XPOS
 70
0
  0
ATTRIB
  5
5C
330
17
100
AcDbEntity
  8
0
 62
4
100
AcDbText
 10
87.99273652503645
 20
6.496432481840543
 30
0.0
 40
0.2848789694679841
  1
yyy = 8.000
 50
14.999999999999998
 41
1.0000000000000002
 11
87.99273652503645
 21
6.496432481840543
 31
0.0
100
AcDbAttribute
280
0
  2
YPOS
 70
0
  0
SEQEND
  5
59
330
58
100
AcDbEntity
  8
0
  0
INSERT
  5
5D
330
17
100
AcDbEntity
  8
0
100
AcDbBlockReference
 66
1
  2
FLAG
 10
37.0
 20
-67.0
 30
0.0
 41
0.8039595476875632
 42
0.8039595476875632
 43
0.8039595476875632
 50
15.0
  0
ATTRIB
  5
5F
330
17
100
AcDbEntity
  8
0
 62
3
100
AcDbText
 10
37.492322666418325
 20
-67.28424262398477
 30
0.0
 40
0.4019797738437816
  1
P(9)
 50
14.999999999999998
 11
37.492322666418325
 21
-67.28424262398477
 31
0.0
100
AcDbAttribute
280
0
  2
NAME
 70
0
  0
ATTRIB
  5
60
330
17
100
AcDbEntity
  8
0
 62
4
100
AcDbText
 10
37.5963626876351
 20
-67.67252526918632
 30
0.0
 40
0.2009898869218908
  1
x = 37.000
 50
14.999999999999998
 11
37.5963626876351
 21
-67.67252526918632
 31
0.0
100
AcDbAttribute
280
0
  2
XPOS
 70
0
  0
ATTRIB
  5
61
330
17
100
AcDbEntity
  8
0
 62
4
100
AcDbText
 10
37.70040270885187
 20
-68.06080791438787
 30
0.0
 40
0.2009898869218908
  1
yyy = -67.000
 50
14.999999999999998
 11
37.70040270885187
 21
-68.06080791438787
 31
0.0
100
AcDbAttribute
280
0
  2
YPOS
 70
0
  0
SEQEND
  5
5E
330
5D
100
AcDbEntity
  8
0
  0
INSERT
  5
62
330
17
100
AcDbEntity
  8
0
100
AcDbBlockReference
 66
1
  2
FLAG
 10
27.0
 20
24.0
 30
0.0
 41
0.7077743834761288
 42
0.7077743834761288
 43
0.7077743834761288
 50
15.0
  0
ATTRIB
  5
64
330
17
100
AcDbEntity
  8
0
 62
3
100
AcDbText
 10
27.433421523132367
 20
23.74976396694695
 30
0.0
 40
0.3538871917380644
  1
P(10)
 50
14.999999999999998
 11
27.433421523132367
 21
23.74976396694695
 31
0.0
100
AcDbAttribute
280
0
  2
NAME
 70
0
  0
ATTRIB
  5
65
330
17
100
AcDbEntity
  8
0
 62
4
100
AcDbText
 10
27.525014268172026
 20
23.407935188854243
 30
0.0
 40
0.1769435958690322
  1
x = 27.000
 50
14.999999999999998
 11
27.525014268172026
 21
23.407935188854243
 31
0.0
100
AcDbAttribute
280
0
  2
XPOS
 70
0
  0
ATTRIB
  5
66
330
17
100
AcDbEntity
  8
0
 62
4
100
AcDbText
 10
27.616607013211684
 20
23.066106410761535
 30
0.0
 40
0.1769435958690322
  1
yyy = 24.000
 50
14.999999999999998
 11
27.616607013211684
 21
23.066106410761535
 31
0.0
100
AcDbAttribute
280
0
  2
YPOS
 70
0
  0
SEQEND
  5
63
330
62
100
AcDbEntity
  8
0
  0
INSERT
  5
67
330
17
100
AcDbEntity
  8
0
100
AcDbBlockReference
 66
1
  2
FLAG
 10
79.0
 20
-18.0
 30
0.0
 41
0.674562193800468
 42
0.674562193800468
 43
0.674562193800468
 50
15.0
  0
ATTRIB
  5
69
330
17
100
AcDbEntity
  8
0
 62
3
100
AcDbText
 10
79.4130832936459
 20
-18.238493750784194
 30
0.0
 40
0.337281096900234
  1
P(11)
 50
14.999999999999998
 11
79.4130832936459
 21
-18.238493750784194
 31
0.0
100
AcDbAttribute
280
0
  2
NAME
 70
0
  0
ATTRIB
  5
6A
330
17
100
AcDbEntity
  8
0
 62
4
100
AcDbText
 10
79.50037806507675
 20
-18.564282272999236
 30
0.0
 40
0.168640548450117
  1
x = 79.000
 50
14.999999999999998
 11
79.50037806507675
 21
-18.564282272999236
 31
0.0
100
AcDbAttribute
280
0
  2
XPOS
 70
0
  0
ATTRIB
  5
6B
330
17
100
AcDbEntity
  8
0
 62
4
100
AcDbText
 10
79.5876728365076
 20
-18.890070795214275
 30
0.0
 40
0.168640548450117
  1
yyy = -18.000
 50
14.999999999999998
 11
79.5876728365076
 21
-18.890070795214275
 31
0.0
100
AcDbAttribute
280
0
  2
YPOS
 70
0
  0
SEQEND
  5
68
330
67
100
AcDbEntity
  8
0
  0
INSERT
  5
6C
330
17
100
AcDbEntity
  8
0
100
AcDbBlockReference
 66
1
  2
FLAG
 10
-70.0
 20
-47.0
 30
0.0
 41
1.861047178313311
 42
1.861047178313311
 43
1.861047178313311
 50
15.0
  0
ATTRIB
  5
6E
330
17
100
AcDbEntity
  8
0
 62
3
100
AcDbText
 10
-68.86034600647149
 20
-47.657979539946716
 30
0.0
 40
0.9305235891566555
  1
P(12)
 50
14.999999999999998
 11
-68.86034600647149
 21
-47.657979539946716
 31
0.0
100
AcDbAttribute
280
0
  2
NAME
 70
0
  0
ATTRIB
  5
6F
330
17
100
AcDbEntity
  8
0
 62
4
100
AcDbText
 10
-68.6195087796806
 20
-48.556796306684326
 30
0.0
 40
0.4652617945783277
  1
x = -70.000
 50
14.999999999999998
 11
-68.6195087796806
 21
-48.556796306684326
 31
0.0
100
AcDbAttribute
280
0
  2
XPOS
 70
0
  0
ATTRIB
  5
70
330
17
100
AcDbEntity
  8
0
 62
4
100
AcDbText
 10
-68.3786715528897
 20
-49.45561307342194
 30
0.0
 40
0.4652617945783277
  1
yyy = -47.000
 50
14.999999999999998
 11
-68.3786715528897
 21
-49.45561307342194
 31
0.0
100
AcDbAttribute
280
0
  2
YPOS
 70
0
  0
SEQEND
  5
6D
330
6C
100
AcDbEntity
  8
0
  0
INSERT
  5
71
330
17
100
AcDbEntity
  8
0
100
AcDbBlockReference
 66
1
  2
FLAG
 10
49.0
 20
14.0
 30
0.0
 41
1.739977311721528
 42
1.739977311721528
 43
1.739977311721528
 50
15.0
  0
ATTRIB
  5
73
330
17
100
AcDbEntity
  8
0
 62
3
100
AcDbText
 10
50.06551414443433
 20
13.384825121885484
 30
0.0
 40
0.869988655860764
  1
P(13)
 50
14.999999999999998
 11
50.06551414443433
 21
13.384825121885484
 31
0.0
100
AcDbAttribute
280
0
  2
NAME
 70
0
  0
ATTRIB
  5
74
330
17
100
AcDbEntity
  8
0
 62
4
100
AcDbText
 10
50.29068377759424
 20
12.54448061061106
 30
0.0
 40
0.434994327930382
  1
x = 49.000
 50
14.999999999999998
 11
50.29068377759424
 21
12.54448061061106
 31
0.0
100
AcDbAttribute
280
0
  2
XPOS
 70
0
  0
ATTRIB
  5
75
330
17
100
AcDbEntity
  8
0
 62
4
100
AcDbText
 10
50.51585341075415
 20
11.704136099336637
 30
0.0
 40
0.434994327930382
  1
yyy = 14.000
 50
14.999999999999998
 11
50.51585341075415
 21
11.704136099336637
 31
0.0
100
AcDbAttribute
280
0
  2
YPOS
 70
0
  0
SEQEND
  5
72
330
71
100
AcDbEntity
  8
0
  0
INSERT
  5
76
330
17
100
AcDbEntity
  8
0
100
AcDbBlockReference
 66
1
  2
FLAG
 10
-89.0
 20
51.0
 30
0.0
 41
1.9678388384370533
 42
1.9678388384370533
 43
1.9678388384370533
 50
15.0
  0
ATTRIB
  5
78
330
17
100
AcDbEntity
  8
0
 62
3
100
AcDbText
 10
-87.79494973744951
 20
50.30426390652945
 30
0.0
 40
0.9839194192185267
  1
P(14)
 50
14.999999999999998
 11
-87.79494973744951
 21
50.30426390652945
 31
0.0
100
AcDbAttribute
280
0
  2
NAME
 70
0
  0
ATTRIB
  5
79
330
17
100
AcDbEntity
  8
0
 62
4
100
AcDbText
 10
-87.54029265290956
 20
49.353870728518935
 30
0.0
 40
0.49195970960926333
  1
x = -89.000
 50
14.999999999999998
 11
-87.54029265290956
 21
49.353870728518935
 31
0.0
100
AcDbAttribute
280
0
  2
XPOS
 70
0
  0
ATTRIB
  5
7A
330
17
100
AcDbEntity
  8
0
 62
4
100
AcDbText
 10
-87.28563556836959
 20
48.40347755050842
 30
0.0
 40
0.49195970960926333
  1
yyy = 51.000
 50
14.999999999999998
 11
-87.28563556836959
 21
48.40347755050842
 31
0.0
100
AcDbAttribute
280
0
  2
YPOS
 70
0
  0
SEQEND
  5
77
330
76
100
AcDbEntity
  8
0
  0
INSERT
  5
7B
330
17
100
AcDbEntity
  8
0
100
AcDbBlockReference
 66
1
  2
FLAG
 10
-49.0
 20
18.0
 30
0.0
 41
2.3446946738215053
 42
2.3446946738215053
 43
2.3446946738215053
 50
15.0
  0
ATTRIB
  5
7D
330
17
100
AcDbEntity
  8
0
 62
3
100
AcDbText
 10
-47.564173611628966
 20
17.171025248164415
 30
0.0
 40
1.1723473369107527
  1
P(15)
 50
14.999999999999998
 11
-47.564173611628966
 21
17.171025248164415
 31
0.0
100
AcDbAttribute
280
0
  2
NAME
 70
0
  0
ATTRIB
  5
7E
330
17
100
AcDbEntity
  8
0
 62
4
100
AcDbText
 10
-47.26074779336125
 20
16.038624678061108
 30
0.0
 40
0.5861736684553763
  1
x = -49.000
 50
14.999999999999998
 11
-47.26074779336125
 21
16.038624678061108
 31
0.0
100
AcDbAttribute
280
0
  2
XPOS
 70
0
  0
ATTRIB
  5
7F
330
17
100
AcDbEntity
  8
0
 62
4
100
AcDbText
 10
-46.95732197509352
 20
14.9062241079578
 30
0.0
 40
0.5861736684553763
  1
yyy = 18.000
 50
14.999999999999998
 11
-46.95732197509352
 21
14.9062241079578
 31
0.0
100
AcDbAttribute
280
0
  2
YPOS
 70
0
  0
SEQEND
  5
7C
330
7B
100
AcDbEntity
  8
0
  0
INSERT
  5
80
330
17
100
AcDbEntity
  8
0
100
AcDbBlockReference
 66
1
  2
FLAG
 10
29.0
 20
70.0
 30
0.0
 41
0.861490642402037
 42
0.861490642402037
 43
0.861490642402037
 50
15.0
  0
ATTRIB
  5
82
330
17
100
AcDbEntity
  8
0
 62
3
100
AcDbText
 10
29.52755312301687
 20
69.69541706241438
 30
0.0
 40
0.43074532120101844
  1
P(16)
 50
14.999999999999998
 41
1.0000000000000002
 11
29.52755312301687
 21
69.69541706241438
 31
0.0
100
AcDbAttribute
280
0
  2
NAME
 70
0
  0
ATTRIB
  5
83
330
17
100
AcDbEntity
  8
0
 62
4
100
AcDbText
 10
29.639038215732498
 20
69.27934903211313
 30
0.0
 40
0.21537266060050922
  1
x = 29.000
 50
14.999999999999998
 41
1.0000000000000002
 11
29.639038215732498
 21
69.27934903211313
 31
0.0
100
AcDbAttribute
280
0
  2
XPOS
 70
0
  0
ATTRIB
  5
84
330
17
100
AcDbEntity
  8
0
 62
4
100
AcDbText
 10
29.750523308448123
 20
68.8632810018119
 30
0.0
 40
0.21537266060050922
  1
yyy = 70.000
 50
14.999999999999998
 41
1.0000000000000002
 11
29.750523308448123
 21
68.8632810018119
 31
0.0
100
AcDbAttribute
280
0
  2
YPOS
 70
0
  0
SEQEND
  5
81
330
80
100
AcDbEntity
  8
0
  0
INSERT
  5
85
330
17
100
AcDbEntity
  8
0
100
AcDbBlockReference
 66
1
  2
FLAG
 10
-29.0
 20
100.0
 30
0.0
 41
2.0773803457653246
 42
2.0773803457653246
 43
2.0773803457653246
 50
15.0
  0
ATTRIB
  5
87
330
17
100
AcDbEntity
  8
0
 62
3
100
AcDbText
 10
-27.727869537797115
 20
99.26553513520284
 30
0.0
 40
1.0386901728826623
  1
P(17)
 50
14.999999999999998
 11
-27.727869537797115
 21
99.26553513520284
 31
0.0
100
AcDbAttribute
280
0
  2
NAME
 70
0
  0
ATTRIB
  5
88
330
17
100
AcDbEntity
  8
0
 62
4
100
AcDbText
 10
-27.459036739094252
 20
98.26223747170282
 30
0.0
 40
0.5193450864413311
  1
x = -29.000
 50
14.999999999999998
 11
-27.459036739094252
 21
98.26223747170282
 31
0.0
100
AcDbAttribute
280
0
  2
XPOS
 70
0
  0
ATTRIB
  5
89
330
17
100
AcDbEntity
  8
0
 62
4
100
AcDbText
 10
-27.19020394039139
 20
97.2589398082028
 30
0.0
 40
0.5193450864413311
  1
yyy = 100.000
 50
14.999999999999998
 11
-27.19020394039139
 21
97.2589398082028
 31
0.0
100
AcDbAttribute
280
0
  2
YPOS
 70
0
  0
SEQEND
  5
86
330
85
100
AcDbEntity
  8
0
  0
INSERT
  5
8A
330
17
100
AcDbEntity
  8
0
100
AcDbBlockReference
 66
1
  2
FLAG
 10
48.0
 20
86.0
 30
0.0
 41
1.3897318580820905
 42
1.3897318580820905
 43
1.3897318580820905
 50
15.0
  0
ATTRIB
  5
8C
330
17
100
AcDbEntity
  8
0
 62
3
100
AcDbText
 10
48.85103348289777
 20
85.50865558955958
 30
0.0
 40
0.6948659290410453
  1
P(18)
 50
14.999999999999998
 11
48.85103348289777
 21
85.50865558955958
 31
0.0
100
AcDbAttribute
280
0
  2
NAME
 70
0
  0
ATTRIB
  5
8D
330
17
100
AcDbEntity
  8
0
 62
4
100
AcDbText
 10
49.030878019126455
 20
84.83746664289049
 30
0.0
 40
0.34743296452052264
  1
x = 48.000
 50
14.999999999999998
 11
49.030878019126455
 21
84.83746664289049
 31
0.0
100
AcDbAttribute
280
0
  2
XPOS
 70
0
  0
ATTRIB
  5
8E
330
17
100
AcDbEntity
  8
0
 62
4
100
AcDbText
 10
49.21072255535513
 20
84.1662776962214
 30
0.0
 40
0.34743296452052264
  1
yyy = 86.000
 50
14.999999999999998
 11
49.21072255535513
 21
84.1662776962214
 31
0.0
100
AcDbAttribute
280
0
  2
YPOS
 70
0
  0
SEQEND
  5
8B
330
8A
100
AcDbEntity
  8
0
  0
INSERT
  5
8F
330
17
100
AcDbEntity
  8
0
100
AcDbBlockReference
 66
1
  2
FLAG
 10
29.0
 20
-14.0
 30
0.0
 41
2.192650116761692
 42
2.192650116761692
 43
2.192650116761692
 50
15.0
  0
ATTRIB
  5
91
330
17
100
AcDbEntity
  8
0
 62
3
100
AcDbText
 10
30.342718492630027
 20
-14.775218883165834
 30
0.0
 40
1.096325058380846
  1
P(19)
 50
14.999999999999998
 11
30.342718492630027
 21
-14.775218883165834
 31
0.0
100
AcDbAttribute
280
0
  2
NAME
 70
0
  0
ATTRIB
  5
92
330
17
100
AcDbEntity
  8
0
 62
4
100
AcDbText
 10
30.62646829736212
 20
-15.834187571063763
 30
0.0
 40
0.548162529190423
  1
x = 29.000
 50
14.999999999999998
 11
30.62646829736212
 21
-15.834187571063763
 31
0.0
100
AcDbAttribute
280
0
  2
XPOS
 70
0
  0
ATTRIB
  5
93
330
17
100
AcDbEntity
  8
0
 62
4
100
AcDbText
 10
30.910218102094216
 20
-16.893156258961692
 30
0.0
 40
0.548162529190423
  1
yyy = -14.000
 50
14.999999999999998
 11
30.910218102094216
 21
-16.893156258961692
 31
0.0
100
AcDbAttribute
280
0
  2
YPOS
 70
0
  0
SEQEND
  5
90
330
8F
100
AcDbEntity
  8
0
  0
INSERT
  5
94
330
17
100
AcDbEntity
  8
0
100
AcDbBlockReference
 66
1
  2
FLAG
 10
13.0
 20
-1.0
 30
0.0
 41
1.390746870392543
 42
1.390746870392543
 43
1.390746870392543
 50
15.0
  0
ATTRIB
  5
96
330
17
100
AcDbEntity
  8
0
 62
3
100
AcDbText
 10
13.851655048458586
 20
-1.491703271484268
 30
0.0
 40
0.6953734351962715
  1
P(20)
 50
14.999999999999998
 11
13.851655048458586
 21
-1.491703271484268
 31
0.0
100
AcDbAttribute
280
0
  2
NAME
 70
0
  0
ATTRIB
  5
97
330
17
100
AcDbEntity
  8
0
 62
4
100
AcDbText
 10
14.031630936945744
 20
-2.1633824314556946
 30
0.0
 40
0.34768671759813574
  1
x = 13.000
 50
14.999999999999998
 11
14.031630936945744
 21
-2.1633824314556946
 31
0.0
100
AcDbAttribute
280
0
  2
XPOS
 70
0
  0
ATTRIB
  5
98
330
17
100
AcDbEntity
  8
0
 62
4
100
AcDbText
 10
14.211606825432902
 20
-2.835061591427121
 30
0.0
 40
0.34768671759813574
  1
yyy = -1.000
 50
14.999999999999998
 11
14.211606825432902
 21
-2.835061591427121
 31
0.0
100
AcDbAttribute
280
0
  2
YPOS
 70
0
  0
SEQEND
  5
95
330
94
100
AcDbEntity
  8
0
  0
INSERT
  5
99
330
17
100
AcDbEntity
  8
0
100
AcDbBlockReference
 66
1
  2
FLAG
 10
-4.0
 20
-79.0
 30
0.0
 41
0.7638501107220319
 42
0.7638501107220319
 43
0.7638501107220319
 50
15.0
  0
ATTRIB
  5
9B
330
17
100
AcDbEntity
  8
0
 62
3
100
AcDbText
 10
-3.532239247190647
 20
-79.27006179655082
 30
0.0
 40
0.38192505536101595
  1
P(21)
 50
14.999999999999998
 11
-3.532239247190647
 21
-79.27006179655082
 31
0.0
100
AcDbAttribute
280
0
  2
NAME
 70
0
  0
ATTRIB
  5
9C
330
17
100
AcDbEntity
  8
0
 62
4
100
AcDbText
 10
-3.4333897690613817
 20
-79.63897307123091
 30
0.0
 40
0.19096252768050798
  1
x = -4.000
 50
14.999999999999998
 11
-3.4333897690613817
 21
-79.63897307123091
 31
0.0
100
AcDbAttribute
280
0
  2
XPOS
 70
0
  0
ATTRIB
  5
9D
330
17
100
AcDbEntity
  8
0
 62
4
100
AcDbText
 10
-3.3345402909321162
 20
-80.007884345911
 30
0.0
 40
0.19096252768050798
  1
yyy = -79.000
 50
14.999999999999998
 11
-3.3345402909321162
 21
-80.007884345911
 31
0.0
100
AcDbAttribute
280
0
  2
YPOS
 70
0
  0
SEQEND
  5
9A
330
99
100
AcDbEntity
  8
0
  0
INSERT
  5
9E
330
17
100
AcDbEntity
  8
0
100
AcDbBlockReference
 66
1
  2
FLAG
 10
89.0
 20
23.0
 30
0.0
 41
1.1662013545541323
 42
1.1662013545541323
 43
1.1662013545541323
 50
15.0
  0
ATTRIB
  5
A0
330
17
100
AcDbEntity
  8
0
 62
3
100
AcDbText
 10
89.71414956400005
 20
22.58768555698292
 30
0.0
 40
0.5831006772770662
  1
P(22)
 50
14.999999999999998
 11
89.71414956400005
 21
22.58768555698292
 31
0.0
100
AcDbAttribute
280
0
  2
NAME
 70
0
  0
ATTRIB
  5
A1
330
17
100
AcDbEntity
  8
0
 62
4
100
AcDbText
 10
89.86506712449153
 20
22.024453553474352
 30
0.0
 40
0.2915503386385331
  1
x = 89.000
 50
14.999999999999998
 11
89.86506712449153
 21
22.024453553474352
 31
0.0
100
AcDbAttribute
280
0
  2
XPOS
 70
0
  0
ATTRIB
  5
A2
330
17
100
AcDbEntity
  8
0
 62
4
100
AcDbText
 10
90.01598468498301
 20
21.46122154996579
 30
0.0
 40
0.2915503386385331
  1
yyy = 23.000
 50
14.999999999999998
 11
90.01598468498301
 21
21.46122154996579
 31
0.0
100
AcDbAttribute
280
0
  2
YPOS
 70
0
  0
SEQEND
  5
9F
330
9E
100
AcDbEntity
  8
0
  0
INSERT
  5
A3
330
17
100
AcDbEntity
  8
0
100
AcDbBlockReference
 66
1
  2
FLAG
 10
-74.0
 20
-42.0
 30
0.0
 41
1.0265578109638507
 42
1.0265578109638507
 43
1.0265578109638507
 50
15.0
  0
ATTRIB
  5
A5
330
17
100
AcDbEntity
  8
0
 62
3
100
AcDbText
 10
-73.37136429291752
 20
-42.36294299470628
 30
0.0
 40
0.5132789054819253
  1
P(23)
 50
14.999999999999998
 11
-73.37136429291752
 21
-42.36294299470628
 31
0.0
100
AcDbAttribute
280
0
  2
NAME
 70
0
  0
ATTRIB
  5
A6
330
17
100
AcDbEntity
  8
0
 62
4
100
AcDbText
 10
-73.23851793672942
 20
-42.85873234560066
 30
0.0
 40
0.25663945274096267
  1
x = -74.000
 50
14.999999999999998
 11
-73.23851793672942
 21
-42.85873234560066
 31
0.0
100
AcDbAttribute
280
0
  2
XPOS
 70
0
  0
ATTRIB
  5
A7
330
17
100
AcDbEntity
  8
0
 62
4
100
AcDbText
 10
-73.10567158054133
 20
-43.354521696495034
 30
0.0
 40
0.25663945274096267
  1
yyy = -42.000
 50
14.999999999999998
 11
-73.10567158054133
 21
-43.354521696495034
 31
0.0
100
AcDbAttribute
280
0
  2
YPOS
 70
0
  0
SEQEND
  5
A4
330
A3
100
AcDbEntity
  8
0
  0
INSERT
  5
A8
330
17
100
AcDbEntity
  8
0
100
AcDbBlockReference
 66
1
  2
FLAG
 10
-90.0
 20
-71.0
 30
0.0
 41
2.288525427010831
 42
2.288525427010831
 43
2.288525427010831
 50
15.0
  0
ATTRIB
  5
AA
330
17
100
AcDbEntity
  8
0
 62
3
100
AcDbText
 10
-88.59857011010962
 20
-71.8091159241786
 30
0.0
 40
1.1442627135054155
  1
P(24)
 50
14.999999999999998
 11
-88.59857011010962
 21
-71.8091159241786
 31
0.0
100
AcDbAttribute
280
0
  2
NAME
 70
0
  0
ATTRIB
  5
AB
330
17
100
AcDbEntity
  8
0
 62
4
100
AcDbText
 10
-88.30241312725373
 20
-72.91438883121309
 30
0.0
 40
0.5721313567527078
  1
x = -90.000
 50
14.999999999999998
 11
-88.30241312725373
 21
-72.91438883121309
 31
0.0
100
AcDbAttribute
280
0
  2
XPOS
 70
0
  0
ATTRIB
  5
AC
330
17
100
AcDbEntity
  8
0
 62
4
100
AcDbText
 10
-88.00625614439784
 20
-74.01966173824758
 30
0.0
 40
0.5721313567527078
  1
yyy = -71.000
 50
14.999999999999998
 11
-88.00625614439784
 21
-74.01966173824758
 31
0.0
100
AcDbAttribute
280
0
  2
YPOS
 70
0
  0
SEQEND
  5
A9
330
A8
100
AcDbEntity
  8
0
  0
INSERT
  5
AD
330
17
100
AcDbEntity
  8
0
100
AcDbBlockReference
 66
1
  2
FLAG
 10
100.0
 20
-46.0
 30
0.0
 41
1.960613888352081
 42
1.960613888352081
 43
1.960613888352081
 50
15.0
  0
ATTRIB
  5
AF
330
17
100
AcDbEntity
  8
0
 62
3
100
AcDbText
 10
101.20062590226917
 20
-46.69318168787114
 30
0.0
 40
0.9803069441760405
  1
P(25)
 50
14.999999999999998
 11
101.20062590226917
 21
-46.69318168787114
 31
0.0
100
AcDbAttribute
280
0
  2
NAME
 70
0
  0
ATTRIB
  5
B0
330
17
100
AcDbEntity
  8
0
 62
4
100
AcDbText
 10
101.45434800946818
 20
-47.640085482941295
 30
0.0
 40
0.49015347208802024
  1
x = 100.000
 50
14.999999999999998
 11
101.45434800946818
 21
-47.640085482941295
 31
0.0
100
AcDbAttribute
280
0
  2
XPOS
 70
0
  0
ATTRIB
  5
B1
330
17
100
AcDbEntity
  8
0
 62
4
100
AcDbText
 10
101.70807011666719
 20
-48.586989278011444
 30
0.0
 40
0.49015347208802024
  1
yyy = -46.000
 50
14.999999999999998
 11
101.70807011666719
 21
-48.586989278011444
 31
0.0
100
AcDbAttribute
280
0
  2
YPOS
 70
0
  0
SEQEND
  5
AE
330
AD
100
AcDbEntity
  8
0
  0
INSERT
  5
B2
330
17
100
AcDbEntity
  8
0
100
AcDbBlockReference
 66
1
  2
FLAG
 10
31.0
 20
-56.0
 30
0.0
 41
1.2249485623798866
 42
1.2249485623798866
 43
1.2249485623798866
 50
15.0
  0
ATTRIB
  5
B4
330
17
100
AcDbEntity
  8
0
 62
3
100
AcDbText
 10
31.750124734746635
 20
-56.43308471753176
 30
0.0
 40
0.6124742811899433
  1
P(26)
 50
14.999999999999998
 11
31.750124734746635
 21
-56.43308471753176
 31
0.0
100
AcDbAttribute
280
0
  2
NAME
 70
0
  0
ATTRIB
  5
B5
330
17
100
AcDbEntity
  8
0
 62
4
100
AcDbText
 10
31.908644743354067
 20
-57.024689443670965
 30
0.0
 40
0.30623714059497165
  1
x = 31.000
 50
14.999999999999998
 11
31.908644743354067
 21
-57.024689443670965
 31
0.0
100
AcDbAttribute
280
0
  2
XPOS
 70
0
  0
ATTRIB
  5
B6
330
17
100
AcDbEntity
  8
0
 62
4
100
AcDbText
 10
32.0671647519615
 20
-57.61629416981016
 30
0.0
 40
0.30623714059497165
  1
yyy = -56.000
 50
14.999999999999998
 11
32.0671647519615
 21
-57.61629416981016
 31
0.0
100
AcDbAttribute
280
0
  2
YPOS
 70
0
  0
SEQEND
  5
B3
330
B2
100
AcDbEntity
  8
0
  0
INSERT
  5
B7
330
17
100
AcDbEntity
  8
0
100
AcDbBlockReference
 66
1
  2
FLAG
 10
53.0
 20
-93.0
 30
0.0
 41
1.0465097192553252
 42
1.0465097192553252
 43
1.0465097192553252
 50
15.0
  0
ATTRIB
  5
B9
330
17
100
AcDbEntity
  8
0
 62
3
100
AcDbText
 10
53.6408537057597
 20
-93.36999705953154
 30
0.0
 40
0.5232548596276626
  1
P(27)
 50
15.000000000000002
 11
53.6408537057597
 21
-93.36999705953154
 31
0.0
100
AcDbAttribute
280
0
  2
NAME
 70
0
  0
ATTRIB
  5
BA
330
17
100
AcDbEntity
  8
0
 62
4
100
AcDbText
 10
53.776282028873794
 20
-93.87542244217715
 30
0.0
 40
0.2616274298138313
  1
x = 53.000
 50
15.000000000000002
 11
53.776282028873794
 21
-93.87542244217715
 31
0.0
100
AcDbAttribute
280
0
  2
XPOS
 70
0
  0
ATTRIB
  5
BB
330
17
100
AcDbEntity
  8
0
 62
4
100
AcDbText
 10
53.91171035198788
 20
-94.38084782482278
 30
0.0
 40
0.2616274298138313
  1
yyy = -93.000
 50
15.000000000000002
 11
53.91171035198788
 21
-94.38084782482278
 31
0.0
100
AcDbAttribute
280
0
  2
YPOS
 70
0
  0
SEQEND
  5
B8
330
B7
100
AcDbEntity
  8
0
  0
INSERT
  5
BC
330
17
100
AcDbEntity
  8
0
100
AcDbBlockReference
 66
1
  2
FLAG
 10
12.0
 20
-16.0
 30
0.0
 41
1.0523640801853436
 42
1.0523640801853436
 43
1.0523640801853436
 50
15.0
  0
ATTRIB
  5
BE
330
17
100
AcDbEntity
  8
0
 62
3
100
AcDbText
 10
12.644438755021863
 20
-16.3720668886881
 30
0.0
 40
0.5261820400926718
  1
P(28)
 50
14.999999999999998
 11
12.644438755021863
 21
-16.3720668886881
 31
0.0
100
AcDbAttribute
280
0
  2
NAME
 70
0
  0
ATTRIB
  5
BF
330
17
100
AcDbEntity
  8
0
 62
4
100
AcDbText
 10
12.780624688188745
 20
-16.88031971054308
 30
0.0
 40
0.2630910200463359
  1
x = 12.000
 50
14.999999999999998
 11
12.780624688188745
 21
-16.88031971054308
 31
0.0
100
AcDbAttribute
280
0
  2
XPOS
 70
0
  0
ATTRIB
  5
C0
330
17
100
AcDbEntity
  8
0
 62
4
100
AcDbText
 10
12.916810621355626
 20
-17.388572532398065
 30
0.0
 40
0.2630910200463359
  1
yyy = -16.000
 50
14.999999999999998
 11
12.916810621355626
 21
-17.388572532398065
 31
0.0
100
AcDbAttribute
280
0
  2
YPOS
 70
0
  0
SEQEND
  5
BD
330
BC
100
AcDbEntity
  8
0
  0
INSERT
  5
C1
330
17
100
AcDbEntity
  8
0
100
AcDbBlockReference
 66
1
  2
FLAG
 10
-26.0
 20
-92.0
 30
0.0
 41
1.0251710142351511
 42
1.0251710142351511
 43
1.0251710142351511
 50
15.0
  0
ATTRIB
  5
C3
330
17
100
AcDbEntity
  8
0
 62
3
100
AcDbText
 10
-25.372213529008093
 20
-92.36245268802078
 30
0.0
 40
0.5125855071175756
  1
P(29)
 50
14.999999999999998
 11
-25.372213529008093
 21
-92.36245268802078
 31
0.0
100
AcDbAttribute
280
0
  2
NAME
 70
0
  0
ATTRIB
  5
C4
330
17
100
AcDbEntity
  8
0
 62
4
100
AcDbText
 10
-25.23954663752253
 20
-92.85757226752713
 30
0.0
 40
0.2562927535587878
  1
x = -26.000
 50
14.999999999999998
 11
-25.23954663752253
 21
-92.85757226752713
 31
0.0
100
AcDbAttribute
280
0
  2
XPOS
 70
0
  0
ATTRIB
  5
C5
330
17
100
AcDbEntity
  8
0
 62
4
100
AcDbText
 10
-25.106879746036967
 20
-93.35269184703347
 30
0.0
 40
0.2562927535587878
  1
yyy = -92.000
 50
14.999999999999998
 11
-25.106879746036967
 21
-93.35269184703347
 31
0.0
100
AcDbAttribute
280
0
  2
YPOS
 70
0
  0
SEQEND
  5
C2
330
C1
100
AcDbEntity
  8
0
  0
INSERT
  5
C6
330
17
100
AcDbEntity
  8
0
100
AcDbBlockReference
 66
1
  2
FLAG
 10
52.0
 20
-41.0
 30
0.0
 41
1.0565221362226211
 42
1.0565221362226211
 43
1.0565221362226211
 50
15.0
  0
ATTRIB
  5
C8
330
17
100
AcDbEntity
  8
0
 62
3
100
AcDbText
 10
52.64698503392517
 20
-41.373536983498354
 30
0.0
 40
0.5282610681113106
  1
P(30)
 50
14.999999999999998
 11
52.64698503392517
 21
-41.373536983498354
 31
0.0
100
AcDbAttribute
280
0
  2
NAME
 70
0
  0
ATTRIB
  5
C9
330
17
100
AcDbEntity
  8
0
 62
4
100
AcDbText
 10
52.78370905913858
 20
-41.88379799221012
 30
0.0
 40
0.2641305340556553
  1
x = 52.000
 50
14.999999999999998
 11
52.78370905913858
 21
-41.88379799221012
 31
0.0
100
AcDbAttribute
280
0
  2
XPOS
 70
0
  0
ATTRIB
  5
CA
330
17
100
AcDbEntity
  8
0
 62
4
100
AcDbText
 10
52.920433084351984
 20
-42.394059000921885
 30
0.0
 40
0.2641305340556553
  1
yyy = -41.000
 50
14.999999999999998
 11
52.920433084351984
 21
-42.394059000921885
 31
0.0
100
AcDbAttribute
280
0
  2
YPOS
 70
0
  0
SEQEND
  5
C7
330
C6
100
AcDbEntity
  8
0
  0
INSERT
  5
CB
330
17
100
AcDbEntity
  8
0
100
AcDbBlockReference
 66
1
  2
FLAG
 10
37.0
 20
-8.0
 30
0.0
 41
0.6095462107446963
 42
0.6095462107446963
 43
0.6095462107446963
 50
15.0
  0
ATTRIB
  5
CD
330
17
100
AcDbEntity
  8
0
 62
3
100
AcDbText
 10
37.37326929774287
 20
-8.21550712953207
 30
0.0
 40
0.30477310537234814
  1
P(31)
 50
14.999999999999998
 11
37.37326929774287
 21
-8.21550712953207
 31
0.0
100
AcDbAttribute
280
0
  2
NAME
 70
0
  0
ATTRIB
  5
CE
330
17
100
AcDbEntity
  8
0
 62
4
100
AcDbText
 10
37.45215038184827
 20
-8.509895343169541
 30
0.0
 40
0.15238655268617407
  1
x = 37.000
 50
14.999999999999998
 11
37.45215038184827
 21
-8.509895343169541
 31
0.0
100
AcDbAttribute
280
0
  2
XPOS
 70
0
  0
ATTRIB
  5
CF
330
17
100
AcDbEntity
  8
0
 62
4
100
AcDbText
 10
37.531031465953674
 20
-8.804283556807011
 30
0.0
 40
0.15238655268617407
  1
yyy = -8.000
 50
14.999999999999998
 11
37.531031465953674
 21
-8.804283556807011
 31
0.0
100
AcDbAttribute
280
0
  2
YPOS
 70
0
  0
SEQEND
  5
CC
330
CB
100
AcDbEntity
  8
0
  0
INSERT
  5
D0
330
17
100
AcDbEntity
  8
0
100
AcDbBlockReference
 66
1
  2
FLAG
 10
-57.0
 20
67.0
 30
0.0
 41
1.5864228446228088
 42
1.5864228446228088
 43
1.5864228446228088
 50
15.0
  0
ATTRIB
  5
D2
330
17
100
AcDbEntity
  8
0
 62
3
100
AcDbText
 10
-56.02851837859488
 20
66.43911482436899
 30
0.0
 40
0.7932114223114044
  1
P(32)
 50
14.999999999999998
 11
-56.02851837859488
 21
66.43911482436899
 31
0.0
100
AcDbAttribute
280
0
  2
NAME
 70
0
  0
ATTRIB
  5
D3
330
17
100
AcDbEntity
  8
0
 62
4
100
AcDbText
 10
-55.82322015570783
 20
65.6729314258509
 30
0.0
 40
0.3966057111557022
  1
x = -57.000
 50
14.999999999999998
 11
-55.82322015570783
 21
65.6729314258509
 31
0.0
100
AcDbAttribute
280
0
  2
XPOS
 70
0
  0
ATTRIB
  5
D4
330
17
100
AcDbEntity
  8
0
 62
4
100
AcDbText
 10
-55.61792193282078
 20
64.90674802733284
 30
0.0
 40
0.3966057111557022
  1
yyy = 67.000
 50
14.999999999999998
 11
-55.61792193282078
 21
64.90674802733284
 31
0.0
100
AcDbAttribute
280
0
  2
YPOS
 70
0
  0
SEQEND
  5
D1
330
D0
100
AcDbEntity
  8
0
  0
INSERT
  5
D5
330
17
100
AcDbEntity
  8
0
100
AcDbBlockReference
 66
1
  2
FLAG
 10
54.0
 20
63.0
 30
0.0
 41
1.8725330825755921
 42
1.8725330825755921
 43
1.8725330825755921
 50
15.0
  0
ATTRIB
  5
D7
330
17
100
AcDbEntity
  8
0
 62
3
100
AcDbText
 10
55.14668764469777
 20
62.33795957965732
 30
0.0
 40
0.936266541287796
  1
P(33)
 50
14.999999999999998
 41
1.0000000000000002
 11
55.14668764469777
 21
62.33795957965732
 31
0.0
100
AcDbAttribute
280
0
  2
NAME
 70
0
  0
ATTRIB
  5
D8
330
17
100
AcDbEntity
  8
0
 62
4
100
AcDbText
 10
55.389011256875314
 20
61.4335955471371
 30
0.0
 40
0.468133270643898
  1
x = 54.000
 50
14.999999999999998
 41
1.0000000000000002
 11
55.389011256875314
 21
61.4335955471371
 31
0.0
100
AcDbAttribute
280
0
  2
XPOS
 70
0
  0
ATTRIB
  5
D9
330
17
100
AcDbEntity
  8
0
 62
4
100
AcDbText
 10
55.631334869052864
 20
60.52923151461688
 30
0.0
 40
0.468133270643898
  1
yyy = 63.000
 50
14.999999999999998
 41
1.0000000000000002
 11
55.631334869052864
 21
60.52923151461688
 31
0.0
100
AcDbAttribute
280
0
  2
YPOS
 70
0
  0
SEQEND
  5
D6
330
D5
100
AcDbEntity
  8
0
  0
INSERT
  5
DA
330
17
100
AcDbEntity
  8
0
100
AcDbBlockReference
 66
1
  2
FLAG
 10
-66.0
 20
-55.0
 30
0.0
 41
1.2482142526523388
 42
1.2482142526523388
 43
1.2482142526523388
 50
15.0
  0
ATTRIB
  5
DC
330
17
100
AcDbEntity
  8
0
 62
3
100
AcDbText
 10
-65.23562799783308
 20
-55.441310381212084
 30
0.0
 40
0.6241071263261694
  1
P(34)
 50
14.999999999999998
 11
-65.23562799783308
 21
-55.441310381212084
 31
0.0
100
AcDbAttribute
280
0
  2
NAME
 70
0
  0
ATTRIB
  5
DD
330
17
100
AcDbEntity
  8
0
 62
4
100
AcDbText
 10
-65.07409718735566
 20
-56.04415157290158
 30
0.0
 40
0.3120535631630847
  1
x = -66.000
 50
14.999999999999998
 11
-65.07409718735566
 21
-56.04415157290158
 31
0.0
100
AcDbAttribute
280
0
  2
XPOS
 70
0
  0
ATTRIB
  5
DE
330
17
100
AcDbEntity
  8
0
 62
4
100
AcDbText
 10
-64.91256637687825
 20
-56.64699276459108
 30
0.0
 40
0.3120535631630847
  1
yyy = -55.000
 50
14.999999999999998
 11
-64.91256637687825
 21
-56.64699276459108
 31
0.0
100
AcDbAttribute
280
0
  2
YPOS
 70
0
  0
SEQEND
  5
DB
330
DA
100
AcDbEntity
  8
0
  0
INSERT
  5
DF
330
17
100
AcDbEntity
  8
0
100
AcDbBlockReference
 66
1
  2
FLAG
 10
-28.0
 20
-65.0
 30
0.0
 41
1.5972964818386515
 42
1.5972964818386515
 43
1.5972964818386515
 50
15.0
  0
ATTRIB
  5
E1
330
17
100
AcDbEntity
  8
0
 62
3
100
AcDbText
 10
-27.02185966288814
 20
-65.56472958693676
 30
0.0
 40
0.7986482409193257
  1
P(35)
 50
14.999999999999998
 11
-27.02185966288814
 21
-65.56472958693676
 31
0.0
100
AcDbAttribute
280
0
  2
NAME
 70
0
  0
ATTRIB
  5
E2
330
17
100
AcDbEntity
  8
0
 62
4
100
AcDbText
 10
-26.815154287800596
 20
-66.33616454896108
 30
0.0
 40
0.39932412045966287
  1
x = -28.000
 50
14.999999999999998
 11
-26.815154287800596
 21
-66.33616454896108
 31
0.0
100
AcDbAttribute
280
0
  2
XPOS
 70
0
  0
ATTRIB
  5
E3
330
17
100
AcDbEntity
  8
0
 62
4
100
AcDbText
 10
-26.608448912713047
 20
-67.10759951098538
 30
0.0
 40
0.39932412045966287
  1
yyy = -65.000
 50
14.999999999999998
 11
-26.608448912713047
 21
-67.10759951098538
 31
0.0
100
AcDbAttribute
280
0
  2
YPOS
 70
0
  0
SEQEND
  5
E0
330
DF
100
AcDbEntity
  8
0
  0
INSERT
  5
E4
330
17
100
AcDbEntity
  8
0
100
AcDbBlockReference
 66
1
  2
FLAG
 10
-9.0
 20
90.0
 30
0.0
 41
1.504105160810859
 42
1.504105160810859
 43
1.504105160810859
 50
15.0
  0
ATTRIB
  5
E6
330
17
100
AcDbEntity
  8
0
 62
3
100
AcDbText
 10
-8.07892745913164
 20
89.46821852058648
 30
0.0
 40
0.7520525804054297
  1
P(36)
 50
14.999999999999998
 11
-8.07892745913164
 21
89.46821852058648
 31
0.0
100
AcDbAttribute
280
0
  2
NAME
 70
0
  0
ATTRIB
  5
E7
330
17
100
AcDbEntity
  8
0
 62
4
100
AcDbText
 10
-7.884281928404219
 20
88.74179151044554
 30
0.0
 40
0.37602629020271483
  1
x = -9.000
 50
14.999999999999998
 11
-7.884281928404219
 21
88.74179151044554
 31
0.0
100
AcDbAttribute
280
0
  2
XPOS
 70
0
  0
ATTRIB
  5
E8
330
17
100
AcDbEntity
  8
0
 62
4
100
AcDbText
 10
-7.6896363976768
 20
88.0153645003046
 30
0.0
 40
0.37602629020271483
  1
yyy = 90.000
 50
14.999999999999998
 11
-7.6896363976768
 21
88.0153645003046
 31
0.0
100
AcDbAttribute
280
0
  2
YPOS
 70
0
  0
SEQEND
  5
E5
330
E4
100
AcDbEntity
  8
0
  0
INSERT
  5
E9
330
17
100
AcDbEntity
  8
0
100
AcDbBlockReference
 66
1
  2
FLAG
 10
-66.0
 20
73.0
 30
0.0
 41
1.3957840696970418
 42
1.3957840696970418
 43
1.3957840696970418
 50
15.0
  0
ATTRIB
  5
EB
330
17
100
AcDbEntity
  8
0
 62
3
100
AcDbText
 10
-65.14526030953424
 20
72.50651580962253
 30
0.0
 40
0.6978920348485209
  1
P(37)
 50
14.999999999999998
 11
-65.14526030953424
 21
72.50651580962253
 31
0.0
100
AcDbAttribute
280
0
  2
NAME
 70
0
  0
ATTRIB
  5
EC
330
17
100
AcDbEntity
  8
0
 62
4
100
AcDbText
 10
-64.96463255949008
 20
71.83240386920092
 30
0.0
 40
0.34894601742426046
  1
x = -66.000
 50
14.999999999999998
 11
-64.96463255949008
 21
71.83240386920092
 31
0.0
100
AcDbAttribute
280
0
  2
XPOS
 70
0
  0
ATTRIB
  5
ED
330
17
100
AcDbEntity
  8
0
 62
4
100
AcDbText
 10
-64.78400480944593
 20
71.1582919287793
 30
0.0
 40
0.34894601742426046
  1
yyy = 73.000
 50
14.999999999999998
 11
-64.78400480944593
 21
71.1582919287793
 31
0.0
100
AcDbAttribute
280
0
  2
YPOS
 70
0
  0
SEQEND
  5
EA
330
E9
100
AcDbEntity
  8
0
  0
INSERT
  5
EE
330
17
100
AcDbEntity
  8
0
100
AcDbBlockReference
 66
1
  2
FLAG
 10
-87.0
 20
-18.0
 30
0.0
 41
1.3291830413644186
 42
1.3291830413644186
 43
1.3291830413644186
 50
15.0
  0
ATTRIB
  5
F0
330
17
100
AcDbEntity
  8
0
 62
3
100
AcDbText
 10
-86.18604494347413
 20
-18.469937170993468
 30
0.0
 40
0.6645915206822094
  1
P(38)
 50
14.999999999999998
 11
-86.18604494347413
 21
-18.469937170993468
 31
0.0
100
AcDbAttribute
280
0
  2
NAME
 70
0
  0
ATTRIB
  5
F1
330
17
100
AcDbEntity
  8
0
 62
4
100
AcDbText
 10
-86.01403600070793
 20
-19.11188328475314
 30
0.0
 40
0.3322957603411047
  1
x = -87.000
 50
14.999999999999998
 11
-86.01403600070793
 21
-19.11188328475314
 31
0.0
100
AcDbAttribute
280
0
  2
XPOS
 70
0
  0
ATTRIB
  5
F2
330
17
100
AcDbEntity
  8
0
 62
4
100
AcDbText
 10
-85.84202705794172
 20
-19.753829398512813
 30
0.0
 40
0.3322957603411047
  1
yyy = -18.000
 50
14.999999999999998
 11
-85.84202705794172
 21
-19.753829398512813
 31
0.0
100
AcDbAttribute
280
0
  2
YPOS
 70
0
  0
SEQEND
  5
EF
330
EE
100
AcDbEntity
  8
0
  0
INSERT
  5
F3
330
17
100
AcDbEntity
  8
0
100
AcDbBlockReference
 66
1
  2
FLAG
 10
56.0
 20
43.0
 30
0.0
 41
2.042508975445856
 42
2.042508975445856
 43
2.042508975445856
 50
15.0
  0
ATTRIB
  5
F5
330
17
100
AcDbEntity
  8
0
 62
3
100
AcDbText
 10
57.2507761962243
 20
42.27786402641392
 30
0.0
 40
1.021254487722928
  1
P(39)
 50
14.999999999999998
 11
57.2507761962243
 21
42.27786402641392
 31
0.0
100
AcDbAttribute
280
0
  2
NAME
 70
0
  0
ATTRIB
  5
F6
330
17
100
AcDbEntity
  8
0
 62
4
100
AcDbText
 10
57.515096307543416
 20
41.29140794150874
 30
0.0
 40
0.510627243861464
  1
x = 56.000
 50
14.999999999999998
 11
57.515096307543416
 21
41.29140794150874
 31
0.0
100
AcDbAttribute
280
0
  2
XPOS
 70
0
  0
ATTRIB
  5
F7
330
17
100
AcDbEntity
  8
0
 62
4
100
AcDbText
 10
57.779416418862525
 20
40.304951856603545
 30
0.0
 40
0.510627243861464
  1
yyy = 43.000
 50
14.999999999999998
 11
57.779416418862525
 21
40.304951856603545
 31
0.0
100
AcDbAttribute
280
0
  2
YPOS
 70
0
  0
SEQEND
  5
F4
330
F3
100
AcDbEntity
  8
0
  0
INSERT
  5
F8
330
17
100
AcDbEntity
  8
0
100
AcDbBlockReference
 66
1
  2
FLAG
 10
66.0
 20
53.0
 30
0.0
 41
1.2943029320990167
 42
1.2943029320990167
 43
1.2943029320990167
 50
15.0
  0
ATTRIB
  5
FA
330
17
100
AcDbEntity
  8
0
 62
3
100
AcDbText
 10
66.79259543905768
 20
52.54239480990158
 30
0.0
 40
0.6471514660495084
  1
P(40)
 50
14.999999999999998
 11
66.79259543905768
 21
52.54239480990158
 31
0.0
100
AcDbAttribute
280
0
  2
NAME
 70
0
  0
ATTRIB
  5
FB
330
17
100
AcDbEntity
  8
0
 62
4
100
AcDbText
 10
66.9600905635373
 20
51.917294495323524
 30
0.0
 40
0.3235757330247542
  1
x = 66.000
 50
14.999999999999998
 11
66.9600905635373
 21
51.917294495323524
 31
0.0
100
AcDbAttribute
280
0
  2
XPOS
 70
0
  0
ATTRIB
  5
FC
330
17
100
AcDbEntity
  8
0
 62
4
100
AcDbText
 10
67.12758568801695
 20
51.29219418074547
 30
0.0
 40
0.3235757330247542
  1
yyy = 53.000
 50
14.999999999999998
 11
67.12758568801695
 21
51.29219418074547
 31
0.0
100
AcDbAttribute
280
0
  2
YPOS
 70
0
  0
SEQEND
  5
F9
330
F8
100
AcDbEntity
  8
0
  0
INSERT
  5
FD
330
17
100
AcDbEntity
  8
0
100
AcDbBlockReference
 66
1
  2
FLAG
 10
10.0
 20
73.0
 30
0.0
 41
2.1564045055926346
 42
2.1564045055926346
 43
2.1564045055926346
 50
15.0
  0
ATTRIB
  5
FF
330
17
100
AcDbEntity
  8
0
 62
3
100
AcDbText
 10
11.320522679435147
 20
72.2375958755571
 30
0.0
 40
1.0782022527963173
  1
P(41)
 50
14.999999999999998
 11
11.320522679435147
 21
72.2375958755571
 31
0.0
100
AcDbAttribute
280
0
  2
NAME
 70
0
  0
ATTRIB
  5
100
330
17
100
AcDbEntity
  8
0
 62
4
100
AcDbText
 10
11.599581956931276
 20
71.19613247361809
 30
0.0
 40
0.5391011263981587
  1
x = 10.000
 50
14.999999999999998
 11
11.599581956931276
 21
71.19613247361809
 31
0.0
100
AcDbAttribute
280
0
  2
XPOS
 70
0
  0
ATTRIB
  5
101
330
17
100
AcDbEntity
  8
0
 62
4
100
AcDbText
 10
11.878641234427405
 20
70.15466907167908
 30
0.0
 40
0.5391011263981587
  1
yyy = 73.000
 50
14.999999999999998
 11
11.878641234427405
 21
70.15466907167908
 31
0.0
100
AcDbAttribute
280
0
  2
YPOS
 70
0
  0
SEQEND
  5
FE
330
FD
100
AcDbEntity
  8
0
  0
INSERT
  5
102
330
17
100
AcDbEntity
  8
0
100
AcDbBlockReference
 66
1
  2
FLAG
 10
-79.0
 20
-24.0
 30
0.0
 41
1.2754071323111769
 42
1.2754071323111769
 43
1.2754071323111769
 50
15.0
  0
ATTRIB
  5
104
330
17
100
AcDbEntity
  8
0
 62
3
100
AcDbText
 10
-78.21897582788282
 20
-24.450924516015462
 30
0.0
 40
0.6377035661555885
  1
P(42)
 50
14.999999999999996
 11
-78.21897582788282
 21
-24.450924516015462
 31
0.0
100
AcDbAttribute
280
0
  2
NAME
 70
0
  0
ATTRIB
  5
105
330
17
100
AcDbEntity
  8
0
 62
4
100
AcDbText
 10
-78.05392599983196
 20
-25.066898860081782
 30
0.0
 40
0.31885178307779427
  1
x = -79.000
 50
14.999999999999996
 11
-78.05392599983196
 21
-25.066898860081782
 31
0.0
100
AcDbAttribute
280
0
  2
XPOS
 70
0
  0
ATTRIB
  5
106
330
17
100
AcDbEntity
  8
0
 62
4
100
AcDbText
 10
-77.88887617178109
 20
-25.682873204148105
 30
0.0
 40
0.31885178307779427
  1
yyy = -24.000
 50
14.999999999999996
 11
-77.88887617178109
 21
-25.682873204148105
 31
0.0
100
AcDbAttribute
280
0
  2
YPOS
 70
0
  0
SEQEND
  5
103
330
102
100
AcDbEntity
  8
0
  0
INSERT
  5
107
330
17
100
AcDbEntity
  8
0
100
AcDbBlockReference
 66
1
  2
FLAG
 10
-76.0
 20
87.0
 30
0.0
 41
1.5064061480084348
 42
1.5064061480084348
 43
1.5064061480084348
 50
15.0
  0
ATTRIB
  5
109
330
17
100
AcDbEntity
  8
0
 62
3
100
AcDbText
 10
-75.07751839799695
 20
86.46740499876107
 30
0.0
 40
0.7532030740042175
  1
P(43)
 50
14.999999999999996
 11
-75.07751839799695
 21
86.46740499876107
 31
0.0
100
AcDbAttribute
280
0
  2
NAME
 70
0
  0
ATTRIB
  5
10A
330
17
100
AcDbEntity
  8
0
 62
4
100
AcDbText
 10
-74.8825750976149
 20
85.73986669714007
 30
0.0
 40
0.37660153700210874
  1
x = -76.000
 50
14.999999999999996
 11
-74.8825750976149
 21
85.73986669714007
 31
0.0
100
AcDbAttribute
280
0
  2
XPOS
 70
0
  0
ATTRIB
  5
10B
330
17
100
AcDbEntity
  8
0
 62
4
100
AcDbText
 10
-74.68763179723284
 20
85.01232839551909
 30
0.0
 40
0.37660153700210874
  1
yyy = 87.000
 50
14.999999999999996
 11
-74.68763179723284
 21
85.01232839551909
 31
0.0
100
AcDbAttribute
280
0
  2
YPOS
 70
0
  0
SEQEND
  5
108
330
107
100
AcDbEntity
  8
0
  0
INSERT
  5
10C
330
17
100
AcDbEntity
  8
0
100
AcDbBlockReference
 66
1
  2
FLAG
 10
-54.0
 20
-1.0
 30
0.0
 41
1.8198211846586927
 42
1.8198211846586927
 43
1.8198211846586927
 50
15.0
  0
ATTRIB
  5
10E
330
17
100
AcDbEntity
  8
0
 62
3
100
AcDbText
 10
-52.88559166861975
 20
-1.643403950109549
 30
0.0
 40
0.9099105923293463
  1
P(44)
 50
14.999999999999998
 11
-52.88559166861975
 21
-1.643403950109549
 31
0.0
100
AcDbAttribute
280
0
  2
NAME
 70
0
  0
ATTRIB
  5
10F
330
17
100
AcDbEntity
  8
0
 62
4
100
AcDbText
 10
-52.6500894779844
 20
-2.5223100908544485
 30
0.0
 40
0.4549552961646732
  1
x = -54.000
 50
14.999999999999998
 11
-52.6500894779844
 21
-2.5223100908544485
 31
0.0
100
AcDbAttribute
280
0
  2
XPOS
 70
0
  0
ATTRIB
  5
110
330
17
100
AcDbEntity
  8
0
 62
4
100
AcDbText
 10
-52.41458728734905
 20
-3.401216231599348
 30
0.0
 40
0.4549552961646732
  1
yyy = -1.000
 50
14.999999999999998
 11
-52.41458728734905
 21
-3.401216231599348
 31
0.0
100
AcDbAttribute
280
0
  2
YPOS
 70
0
  0
SEQEND
  5
10D
330
10C
100
AcDbEntity
  8
0
  0
INSERT
  5
111
330
17
100
AcDbEntity
  8
0
100
AcDbBlockReference
 66
1
  2
FLAG
 10
38.0
 20
-6.0
 30
0.0
 41
0.6470616143910706
 42
0.6470616143910706
 43
0.6470616143910706
 50
15.0
  0
ATTRIB
  5
113
330
17
100
AcDbEntity
  8
0
 62
3
100
AcDbText
 10
38.39624269684991
 20
-6.22877082769072
 30
0.0
 40
0.3235308071955353
  1
P(45)
 50
14.999999999999998
 11
38.39624269684991
 21
-6.22877082769072
 31
0.0
100
AcDbAttribute
280
0
  2
NAME
 70
0
  0
ATTRIB
  5
114
330
17
100
AcDbEntity
  8
0
 62
4
100
AcDbText
 10
38.47997863142951
 20
-6.541277589961037
 30
0.0
 40
0.16176540359776764
  1
x = 38.000
 50
14.999999999999998
 11
38.47997863142951
 21
-6.541277589961037
 31
0.0
100
AcDbAttribute
280
0
  2
XPOS
 70
0
  0
ATTRIB
  5
115
330
17
100
AcDbEntity
  8
0
 62
4
100
AcDbText
 10
38.563714566009104
 20
-6.8537843522313535
 30
0.0
 40
0.16176540359776764
  1
yyy = -6.000
 50
14.999999999999998
 11
38.563714566009104
 21
-6.8537843522313535
 31
0.0
100
AcDbAttribute
280
0
  2
YPOS
 70
0
  0
SEQEND
  5
112
330
111
100
AcDbEntity
  8
0
  0
INSERT
  5
116
330
17
100
AcDbEntity
  8
0
100
AcDbBlockReference
 66
1
  2
FLAG
 10
-33.0
 20
54.0
 30
0.0
 41
0.9860368044543197
 42
0.9860368044543197
 43
0.9860368044543197
 50
15.0
  0
ATTRIB
  5
118
330
17
100
AcDbEntity
  8
0
 62
3
100
AcDbText
 10
-32.39617824037061
 20
53.65138334453542
 30
0.0
 40
0.49301840222715987
  1
P(46)
 50
14.999999999999998
 41
1.0000000000000002
 11
-32.39617824037061
 21
53.65138334453542
 31
0.0
100
AcDbAttribute
280
0
  2
NAME
 70
0
  0
ATTRIB
  5
119
330
17
100
AcDbEntity
  8
0
 62
4
100
AcDbText
 10
-32.26857568828821
 20
53.175164136988435
 30
0.0
 40
0.24650920111357993
  1
x = -33.000
 50
14.999999999999998
 41
1.0000000000000002
 11
-32.26857568828821
 21
53.175164136988435
 31
0.0
100
AcDbAttribute
280
0
  2
XPOS
 70
0
  0
ATTRIB
  5
11A
330
17
100
AcDbEntity
  8
0
 62
4
100
AcDbText
 10
-32.1409731362058
 20
52.698944929441446
 30
0.0
 40
0.24650920111357993
  1
yyy = 54.000
 50
14.999999999999998
 41
1.0000000000000002
 11
-32.1409731362058
 21
52.698944929441446
 31
0.0
100
AcDbAttribute
280
0
  2
YPOS
 70
0
  0
SEQEND
  5
117
330
116
100
AcDbEntity
  8
0
  0
INSERT
  5
11B
330
17
100
AcDbEntity
  8
0
100
AcDbBlockReference
 66
1
  2
FLAG
 10
-43.0
 20
-70.0
 30
0.0
 41
1.8900572648277392
 42
1.8900572648277392
 43
1.8900572648277392
 50
15.0
  0
ATTRIB
  5
11D
330
17
100
AcDbEntity
  8
0
 62
3
100
AcDbText
 10
-41.84258102913291
 20
-70.6682361543953
 30
0.0
 40
0.9450286324138696
  1
P(47)
 50
14.999999999999998
 11
-41.84258102913291
 21
-70.6682361543953
 31
0.0
100
AcDbAttribute
280
0
  2
NAME
 70
0
  0
ATTRIB
  5
11E
330
17
100
AcDbEntity
  8
0
 62
4
100
AcDbText
 10
-41.59798962089701
 20
-71.5810637170265
 30
0.0
 40
0.4725143162069348
  1
x = -43.000
 50
14.999999999999998
 11
-41.59798962089701
 21
-71.5810637170265
 31
0.0
100
AcDbAttribute
280
0
  2
XPOS
 70
0
  0
ATTRIB
  5
11F
330
17
100
AcDbEntity
  8
0
 62
4
100
AcDbText
 10
-41.353398212661105
 20
-72.49389127965769
 30
0.0
 40
0.4725143162069348
  1
yyy = -70.000
 50
14.999999999999998
 11
-41.353398212661105
 21
-72.49389127965769
 31
0.0
100
AcDbAttribute
280
0
  2
YPOS
 70
0
  0
SEQEND
  5
11C
330
11B
100
AcDbEntity
  8
0
  0
INSERT
  5
120
330
17
100
AcDbEntity
  8
0
100
AcDbBlockReference
 66
1
  2
FLAG
 10
14.0
 20
-80.0
 30
0.0
 41
1.1556245164044945
 42
1.1556245164044945
 43
1.1556245164044945
 50
15.0
  0
ATTRIB
  5
122
330
17
100
AcDbEntity
  8
0
 62
3
100
AcDbText
 10
14.707672599860395
 20
-80.40857496602752
 30
0.0
 40
0.5778122582022472
  1
P(48)
 50
14.999999999999998
 11
14.707672599860395
 21
-80.40857496602752
 31
0.0
100
AcDbAttribute
280
0
  2
NAME
 70
0
  0
ATTRIB
  5
123
330
17
100
AcDbEntity
  8
0
 62
4
100
AcDbText
 10
14.85722141677683
 20
-80.96669874897148
 30
0.0
 40
0.2889061291011236
  1
x = 14.000
 50
14.999999999999998
 11
14.85722141677683
 21
-80.96669874897148
 31
0.0
100
AcDbAttribute
280
0
  2
XPOS
 70
0
  0
ATTRIB
  5
124
330
17
100
AcDbEntity
  8
0
 62
4
100
AcDbText
 10
15.006770233693269
 20
-81.52482253191543
 30
0.0
 40
0.2889061291011236
  1
yyy = -80.000
 50
14.999999999999998
 11
15.006770233693269
 21
-81.52482253191543
 31
0.0
100
AcDbAttribute
280
0
  2
YPOS
 70
0
  0
SEQEND
  5
121
330
120
100
AcDbEntity
  8
0
  0
INSERT
  5
125
330
17
100
AcDbEntity
  8
0
100
AcDbBlockReference
 66
1
  2
FLAG
 10
51.0
 20
-43.0
 30
0.0
 41
1.9049556529248508
 42
1.9049556529248508
 43
1.9049556529248508
 50
15.0
  0
ATTRIB
  5
127
330
17
100
AcDbEntity
  8
0
 62
3
100
AcDbText
 10
52.16654233307406
 20
-43.67350353002141
 30
0.0
 40
0.9524778264624254
  1
P(49)
 50
14.999999999999998
 11
52.16654233307406
 21
-43.67350353002141
 31
0.0
100
AcDbAttribute
280
0
  2
NAME
 70
0
  0
ATTRIB
  5
128
330
17
100
AcDbEntity
  8
0
 62
4
100
AcDbText
 10
52.41306173460039
 20
-44.59352646156914
 30
0.0
 40
0.4762389132312127
  1
x = 51.000
 50
14.999999999999998
 11
52.41306173460039
 21
-44.59352646156914
 31
0.0
100
AcDbAttribute
280
0
  2
XPOS
 70
0
  0
ATTRIB
  5
129
330
17
100
AcDbEntity
  8
0
 62
4
100
AcDbText
 10
52.659581136126725
 20
-45.513549393116875
 30
0.0
 40
0.4762389132312127
  1
yyy = -43.000
 50
14.999999999999998
 11
52.659581136126725
 21
-45.513549393116875
 31
0.0
100
AcDbAttribute
280
0
  2
YPOS
 70
0
  0
SEQEND
  5
126
330
125
100
AcDbEntity
  8
0
  0
INSERT
  5
12A
330
17
100
AcDbEntity
  8
0
100
AcDbBlockReference
 66
1
  2
FLAG
 10
86.0
 20
-56.0
 30
0.0
 41
1.88537313182616
 42
1.88537313182616
 43
1.88537313182616
 50
15.0
  0
ATTRIB
  5
12C
330
17
100
AcDbEntity
  8
0
 62
3
100
AcDbText
 10
87.1545505369318
 20
-56.666580063290596
 30
0.0
 40
0.94268656591308
  1
P(50)
 50
14.999999999999998
 41
1.0000000000000002
 11
87.1545505369318
 21
-56.666580063290596
 31
0.0
100
AcDbAttribute
280
0
  2
NAME
 70
0
  0
ATTRIB
  5
12D
330
17
100
AcDbEntity
  8
0
 62
4
100
AcDbText
 10
87.39853577375239
 20
-57.5771453634018
 30
0.0
 40
0.47134328295654
  1
x = 86.000
 50
14.999999999999998
 41
1.0000000000000002
 11
87.39853577375239
 21
-57.5771453634018
 31
0.0
100
AcDbAttribute
280
0
  2
XPOS
 70
0
  0
ATTRIB
  5
12E
330
17
100
AcDbEntity
  8
0
 62
4
100
AcDbText
 10
87.64252101057299
 20
-58.48771066351299
 30
0.0
 40
0.47134328295654
  1
yyy = -56.000
 50
14.999999999999998
 41
1.0000000000000002
 11
87.64252101057299
 21
-58.48771066351299
 31
0.0
100
AcDbAttribute
280
0
  2
YPOS
 70
0
  0
SEQEND
  5
12B
330
12A
100
AcDbEntity
  8
0
  0
ENDSEC
  0
SECTION
  2
OBJECTS
  0
DICTIONARY
  5
A
330
0
100
AcDbDictionary
280
0
281
1
  3
ACAD_COLOR
350
B
  3
ACAD_GROUP
350
C
  3
ACAD_LAYOUT
350
D
  3
ACAD_MATERIAL
350
E
  3
ACAD_MLEADERSTYLE
350
F
  3
ACAD_MLINESTYLE
350
10
  3
ACAD_PLOTSETTINGS
350
11
  3
ACAD_PLOTSTYLENAME
350
12
  3
ACAD_SCALELIST
350
14
  3
ACAD_TABLESTYLE
350
15
  3
ACAD_VISUALSTYLE
350
16
  3
EZDXF_META
350
2D
  0
DICTIONARY
  5
B
330
A
100
AcDbDictionary
280
0
281
1
  0
DICTIONARY
  5
C
330
A
100
AcDbDictionary
280
0
281
1
  0
DICTIONARY
  5
D
330
A
100
AcDbDictionary
280
0
281
1
  3
Model
350
1A
  3
Layout1
350
1E
  0
DICTIONARY
  5
E
330
A
100
AcDbDictionary
280
0
281
1
  3
ByBlock
350
1F
  3
ByLayer
350
20
  3
Global
350
21
  0
DICTIONARY
  5
F
330
A
100
AcDbDictionary
280
0
281
1
  3
Standard
350
2C
  0
DICTIONARY
  5
10
330
A
100
AcDbDictionary
280
0
281
1
  3
Standard
350
22
  0
DICTIONARY
  5
11
330
A
100
AcDbDictionary
280
0
281
1
  0
ACDBDICTIONARYWDFLT
  5
12
330
A
100
AcDbDictionary
280
0
281
1
  3
Normal
350
13
100
AcDbDictionaryWithDefault
340
13
  0
ACDBPLACEHOLDER
  5
13
330
12
  0
DICTIONARY
  5
14
330
A
100
AcDbDictionary
280
0
281
1
  0
DICTIONARY
  5
15
330
A
100
AcDbDictionary
280
0
281
1
  0
DICTIONARY
  5
16
330
A
100
AcDbDictionary
280
0
281
1
  0
LAYOUT
  5
1A
330
D
100
AcDbPlotSettings
  1

  2
Adobe PDF
  4
A3
  6

 40
7.5
 41
20.0
 42
7.5
 43
20.0
 44
420.0
 45
297.0
 46
0.0
 47
0.0
 48
0.0
 49
0.0
140
0.0
141
0.0
142
1.0
143
1.0
 70
1024
 72
1
 73
0
 74
5
  7

 75
16
 76
0
 77
2
 78
300
147
1.0
148
0.0
149
0.0
100
AcDbLayout
  1
Model
 70
1
 71
0
 10
0.0
 20
0.0
 11
420.0
 21
297.0
 12
0.0
 22
0.0
 32
0.0
 14
1e+20
 24
1e+20
 34
1e+20
 15
-1e+20
 25
-1e+20
 35
-1e+20
146
0.0
 13
0.0
 23
0.0
 33
0.0
 16
1.0
 26
0.0
 36
0.0
 17
0.0
 27
1.0
 37
0.0
 76
1
330
17
  0
LAYOUT
  5
1E
330
D
100
AcDbPlotSettings
  1

  2
Adobe PDF
  4
A3
  6

 40
7.5
 41
20.0
 42
7.5
 43
20.0
 44
420.0
 45
297.0
 46
0.0
 47
0.0
 48
0.0
 49
0.0
140
0.0
141
0.0
142
1.0
143
1.0
 70
0
 72
1
 73
0
 74
5
  7

 75
16
 76
0
 77
2
 78
300
147
1.0
148
0.0
149
0.0
100
AcDbLayout
  1
Layout1
 70
1
 71
1
 10
0.0
 20
0.0
 11
420.0
 21
297.0
 12
0.0
 22
0.0
 32
0.0
 14
1e+20
 24
1e+20
 34
1e+20
 15
-1e+20
 25
-1e+20
 35
-1e+20
146
0.0
 13
0.0
 23
0.0
 33
0.0
 16
1.0
 26
0.0
 36
0.0
 17
0.0
 27
1.0
 37
0.0
 76
1
330
1B
  0
MATERIAL
  5
1F
102
{ACAD_REACTORS
330
E
102
}
330
E
100
AcDbMaterial
  1
ByBlock
  2

 70
0
 40
1.0
 71
1
 41
1.0
 91
-1023410177
 42
1.0
 72
1
  3

 73
1
 74
1
 75
1
 44
0.5
 73
0
 45
1.0
 46
1.0
 77
1
  4

 78
1
 79
1
170
1
 48
1.0
171
1
  6

172
1
173
1
174
1
140
1.0
141
1.0
175
1
  7

176
1
177
1
178
1
143
1.0
179
1
  8

270
1
271
1
272
1
145
1.0
146
1.0
273
1
  9

274
1
275
1
276
1
 42
1.0
 72
1
  3

 73
1
 74
1
 75
1
 94
63
  0
MATERIAL
  5
20
102
{ACAD_REACTORS
330
E
102
}
330
E
100
AcDbMaterial
  1
ByLayer
  2

 70
0
 40
1.0
 71
1
 41
1.0
 91
-1023410177
 42
1.0
 72
1
  3

 73
1
 74
1
 75
1
 44
0.5
 73
0
 45
1.0
 46
1.0
 77
1
  4

 78
1
 79
1
170
1
 48
1.0
171
1
  6

172
1
173
1
174
1
140
1.0
141
1.0
175
1
  7

176
1
177
1
178
1
143
1.0
179
1
  8

270
1
271
1
272
1
145
1.0
146
1.0
273
1
  9

274
1
275
1
276
1
 42
1.0
 72
1
  3

 73
1
 74
1
 75
1
 94
63
  0
MATERIAL
  5
21
102
{ACAD_REACTORS
330
E
102
}
330
E
100
AcDbMaterial
  1
Global
  2

 70
0
 40
1.0
 71
1
 41
1.0
 91
-1023410177
 42
1.0
 72
1
  3

 73
1
 74
1
 75
1
 44
0.5
 73
0
 45
1.0
 46
1.0
 77
1
  4

 78
1
 79
1
170
1
 48
1.0
171
1
  6

172
1
173
1
174
1
140
1.0
141
1.0
175
1
  7

176
1
177
1
178
1
143
1.0
179
1
  8

270
1
271
1
272
1
145
1.0
146
1.0
273
1
  9

274
1
275
1
276
1
 42
1.0
 72
1
  3

 73
1
 74
1
 75
1
 94
63
  0
MLINESTYLE
  5
22
102
{ACAD_REACTORS
330
10
102
}
330
10
100
AcDbMlineStyle
  2
Standard
 70
0
  3

 62
256
 51
90.0
 52
90.0
 71
2
 49
0.5
 62
256
  6
BYLAYER
 49
-0.5
 62
256
  6
BYLAYER
  0
MLEADERSTYLE
  5
2C
102
{ACAD_REACTORS
330
F
102
}
330
F
100
AcDbMLeaderStyle
179
2
170
2
171
1
172
0
 90
2
 40
0.0
 41
0.0
173
1
 91
-1056964608
 92
-2
290
1
 42
2.0
291
1
 43
8.0
  3
Standard
 44
4.0
300

342
29
174
1
175
1
176
0
178
1
 93
-1056964608
 45
4.0
292
0
297
0
 46
4.0
 94
-1056964608
 47
1.0
 49
1.0
140
1.0
294
1
141
0.0
177
0
142
1.0
295
0
296
0
143
3.75
271
0
272
9
273
9
  0
DICTIONARY
  5
2D
330
A
100
AcDbDictionary
281
1
  3
CREATED_BY_EZDXF
350
2E
  3
WRITTEN_BY_EZDXF
350
131
  0
DICTIONARYVAR
  5
2E
330
2D
100
DictionaryVariables
280
0
  1
1.0.3 @ 2023-11-03T06:49:01.794835+00:00
  0
DICTIONARYVAR
  5
131
330
2D
100
DictionaryVariables
280
0
  1
1.0.3 @ 2023-11-03T06:49:01.820752+00:00
  0
ENDSEC
  0
EOF
