  0
SECTION
  2
HEADER
  9
$ACADVER
  1
AC1024
  9
$ACADMAINTVER
 70
6
  9
$DWGCODEPAGE
  3
ANSI_1252
  9
$LASTSAVEDBY
  1
ezdxf
  9
$INSBASE
 10
0.0
 20
0.0
 30
0.0
  9
$EXTMIN
 10
1e+20
 20
1e+20
 30
1e+20
  9
$EXTMAX
 10
-1e+20
 20
-1e+20
 30
-1e+20
  9
$LIMMIN
 10
0.0
 20
0.0
  9
$LIMMAX
 10
420.0
 20
297.0
  9
$ORTHOMODE
 70
0
  9
$REGENMODE
 70
1
  9
$FILLMODE
 70
1
  9
$QTEXTMODE
 70
0
  9
$MIRRTEXT
 70
1
  9
$LTSCALE
 40
1.0
  9
$ATTMODE
 70
1
  9
$TEXTSIZE
 40
2.5
  9
$TRACEWID
 40
1.0
  9
$TEXTSTYLE
  7
Standard
  9
$CLAYER
  8
0
  9
$CELTYPE
  6
ByLayer
  9
$CECOLOR
 62
256
  9
$CELTSCALE
 40
1.0
  9
$DISPSILH
 70
0
  9
$DIMSCALE
 40
1.0
  9
$DIMASZ
 40
2.5
  9
$DIMEXO
 40
0.625
  9
$DIMDLI
 40
3.75
  9
$DIMRND
 40
0.0
  9
$DIMDLE
 40
0.0
  9
$DIMEXE
 40
1.25
  9
$DIMTP
 40
0.0
  9
$DIMTM
 40
0.0
  9
$DIMTXT
 40
2.5
  9
$DIMCEN
 40
2.5
  9
$DIMTSZ
 40
0.0
  9
$DIMTOL
 70
0
  9
$DIMLIM
 70
0
  9
$DIMTIH
 70
0
  9
$DIMTOH
 70
0
  9
$DIMSE1
 70
0
  9
$DIMSE2
 70
0
  9
$DIMTAD
 70
1
  9
$DIMZIN
 70
8
  9
$DIMBLK
  1

  9
$DIMASO
 70
1
  9
$DIMSHO
 70
1
  9
$DIMPOST
  1

  9
$DIMAPOST
  1

  9
$DIMALT
 70
0
  9
$DIMALTD
 70
3
  9
$DIMALTF
 40
0.03937007874
  9
$DIMLFAC
 40
1.0
  9
$DIMTOFL
 70
1
  9
$DIMTVP
 40
0.0
  9
$DIMTIX
 70
0
  9
$DIMSOXD
 70
0
  9
$DIMSAH
 70
0
  9
$DIMBLK1
  1

  9
$DIMBLK2
  1

  9
$DIMSTYLE
  2
ISO-25
  9
$DIMCLRD
 70
0
  9
$DIMCLRE
 70
0
  9
$DIMCLRT
 70
0
  9
$DIMTFAC
 40
1.0
  9
$DIMGAP
 40
0.625
  9
$DIMJUST
 70
0
  9
$DIMSD1
 70
0
  9
$DIMSD2
 70
0
  9
$DIMTOLJ
 70
0
  9
$DIMTZIN
 70
8
  9
$DIMALTZ
 70
0
  9
$DIMALTTZ
 70
0
  9
$DIMUPT
 70
0
  9
$DIMDEC
 70
2
  9
$DIMTDEC
 70
2
  9
$DIMALTU
 70
2
  9
$DIMALTTD
 70
3
  9
$DIMTXSTY
  7
Standard
  9
$DIMAUNIT
 70
0
  9
$DIMADEC
 70
0
  9
$DIMALTRND
 40
0.0
  9
$DIMAZIN
 70
0
  9
$DIMDSEP
 70
44
  9
$DIMATFIT
 70
3
  9
$DIMFRAC
 70
0
  9
$DIMLDRBLK
  1

  9
$DIMLUNIT
 70
2
  9
$DIMLWD
 70
-2
  9
$DIMLWE
 70
-2
  9
$DIMTMOVE
 70
0
  9
$DIMFXL
 40
1.0
  9
$DIMFXLON
 70
0
  9
$DIMJOGANG
 40
0.785398163397
  9
$DIMTFILL
 70
0
  9
$DIMTFILLCLR
 70
0
  9
$DIMARCSYM
 70
0
  9
$DIMLTYPE
  6

  9
$DIMLTEX1
  6

  9
$DIMLTEX2
  6

  9
$DIMTXTDIRECTION
 70
0
  9
$LUNITS
 70
2
  9
$LUPREC
 70
4
  9
$SKETCHINC
 40
1.0
  9
$FILLETRAD
 40
10.0
  9
$AUNITS
 70
0
  9
$AUPREC
 70
2
  9
$MENU
  1
.
  9
$ELEVATION
 40
0.0
  9
$PELEVATION
 40
0.0
  9
$THICKNESS
 40
0.0
  9
$LIMCHECK
 70
0
  9
$CHAMFERA
 40
0.0
  9
$CHAMFERB
 40
0.0
  9
$CHAMFERC
 40
0.0
  9
$CHAMFERD
 40
0.0
  9
$SKPOLY
 70
0
  9
$TDCREATE
 40
2460252.443391204
  9
$TDUCREATE
 40
2458532.153996898
  9
$TDUPDATE
 40
2460252.443391204
  9
$TDUUPDATE
 40
2458532.1544311
  9
$TDINDWG
 40
0.0
  9
$TDUSRTIMER
 40
0.0
  9
$USRTIMER
 70
1
  9
$ANGBASE
 50
0.0
  9
$ANGDIR
 70
0
  9
$PDMODE
 70
0
  9
$PDSIZE
 40
0.0
  9
$PLINEWID
 40
0.0
  9
$SPLFRAME
 70
0
  9
$SPLINETYPE
 70
6
  9
$SPLINESEGS
 70
8
  9
$HANDSEED
  5
132
  9
$SURFTAB1
 70
6
  9
$SURFTAB2
 70
6
  9
$SURFTYPE
 70
6
  9
$SURFU
 70
6
  9
$SURFV
 70
6
  9
$UCSBASE
  2

  9
$UCSNAME
  2

  9
$UCSORG
 10
0.0
 20
0.0
 30
0.0
  9
$UCSXDIR
 10
1.0
 20
0.0
 30
0.0
  9
$UCSYDIR
 10
0.0
 20
1.0
 30
0.0
  9
$UCSORTHOREF
  2

  9
$UCSORTHOVIEW
 70
0
  9
$UCSORGTOP
 10
0.0
 20
0.0
 30
0.0
  9
$UCSORGBOTTOM
 10
0.0
 20
0.0
 30
0.0
  9
$UCSORGLEFT
 10
0.0
 20
0.0
 30
0.0
  9
$UCSORGRIGHT
 10
0.0
 20
0.0
 30
0.0
  9
$UCSORGFRONT
 10
0.0
 20
0.0
 30
0.0
  9
$UCSORGBACK
 10
0.0
 20
0.0
 30
0.0
  9
$PUCSBASE
  2

  9
$PUCSNAME
  2

  9
$PUCSORG
 10
0.0
 20
0.0
 30
0.0
  9
$PUCSXDIR
 10
1.0
 20
0.0
 30
0.0
  9
$PUCSYDIR
 10
0.0
 20
1.0
 30
0.0
  9
$PUCSORTHOREF
  2

  9
$PUCSORTHOVIEW
 70
0
  9
$PUCSORGTOP
 10
0.0
 20
0.0
 30
0.0
  9
$PUCSORGBOTTOM
 10
0.0
 20
0.0
 30
0.0
  9
$PUCSORGLEFT
 10
0.0
 20
0.0
 30
0.0
  9
$PUCSORGRIGHT
 10
0.0
 20
0.0
 30
0.0
  9
$PUCSORGFRONT
 10
0.0
 20
0.0
 30
0.0
  9
$PUCSORGBACK
 10
0.0
 20
0.0
 30
0.0
  9
$USERI1
 70
0
  9
$USERI2
 70
0
  9
$USERI3
 70
0
  9
$USERI4
 70
0
  9
$USERI5
 70
0
  9
$USERR1
 40
0.0
  9
$USERR2
 40
0.0
  9
$USERR3
 40
0.0
  9
$USERR4
 40
0.0
  9
$USERR5
 40
0.0
  9
$WORLDVIEW
 70
1
  9
$SHADEDGE
 70
3
  9
$SHADEDIF
 70
70
  9
$TILEMODE
 70
1
  9
$MAXACTVP
 70
64
  9
$PINSBASE
 10
0.0
 20
0.0
 30
0.0
  9
$PLIMCHECK
 70
0
  9
$PEXTMIN
 10
1e+20
 20
1e+20
 30
1e+20
  9
$PEXTMAX
 10
-1e+20
 20
-1e+20
 30
-1e+20
  9
$PLIMMIN
 10
0.0
 20
0.0
  9
$PLIMMAX
 10
420.0
 20
297.0
  9
$UNITMODE
 70
0
  9
$VISRETAIN
 70
1
  9
$PLINEGEN
 70
0
  9
$PSLTSCALE
 70
1
  9
$TREEDEPTH
 70
3020
  9
$CMLSTYLE
  2
Standard
  9
$CMLJUST
 70
0
  9
$CMLSCALE
 40
20.0
  9
$PROXYGRAPHICS
 70
1
  9
$MEASUREMENT
 70
1
  9
$CELWEIGHT
370
-1
  9
$ENDCAPS
280
0
  9
$JOINSTYLE
280
0
  9
$LWDISPLAY
290
0
  9
$INSUNITS
 70
6
  9
$HYPERLINKBASE
  1

  9
$STYLESHEET
  1

  9
$XEDIT
290
1
  9
$CEPSNTYPE
380
0
  9
$PSTYLEMODE
290
1
  9
$FINGERPRINTGUID
  2
{DA69869F-0773-49FB-B68F-567CDC95DD3C}
  9
$VERSIONGUID
  2
{17FD6AB7-5726-405E-ABE0-23158AEA4791}
  9
$EXTNAMES
290
1
  9
$PSVPSCALE
 40
0.0
  9
$OLESTARTUP
290
0
  9
$SORTENTS
280
127
  9
$INDEXCTL
280
0
  9
$HIDETEXT
280
1
  9
$XCLIPFRAME
280
0
  9
$HALOGAP
280
0
  9
$OBSCOLOR
 70
257
  9
$OBSLTYPE
280
0
  9
$INTERSECTIONDISPLAY
280
0
  9
$INTERSECTIONCOLOR
 70
257
  9
$DIMASSOC
280
2
  9
$PROJECTNAME
  1

  9
$CAMERADISPLAY
290
0
  9
$LENSLENGTH
 40
50.0
  9
$CAMERAHEIGHT
 40
0.0
  9
$STEPSPERSEC
 40
24.0
  9
$STEPSIZE
 40
100.0
  9
$3DDWFPREC
 40
2.0
  9
$PSOLWIDTH
 40
0.005
  9
$PSOLHEIGHT
 40
0.08
  9
$LOFTANG1
 40
1.570796326795
  9
$LOFTANG2
 40
1.570796326795
  9
$LOFTMAG1
 40
0.0
  9
$LOFTMAG2
 40
0.0
  9
$LOFTPARAM
 70
7
  9
$LOFTNORMALS
280
1
  9
$LATITUDE
 40
37.795
  9
$LONGITUDE
 40
-122.394
  9
$NORTHDIRECTION
 40
0.0
  9
$TIMEZONE
 70
-8000
  9
$LIGHTGLYPHDISPLAY
280
1
  9
$TILEMODELIGHTSYNCH
280
1
  9
$CMATERIAL
347
20
  9
$SOLIDHIST
280
0
  9
$SHOWHIST
280
1
  9
$DWFFRAME
280
2
  9
$DGNFRAME
280
2
  9
$REALWORLDSCALE
290
1
  9
$INTERFERECOLOR
 62
256
  9
$CSHADOW
280
0
  9
$SHADOWPLANELOCATION
 40
0.0
  0
ENDSEC
  0
SECTION
  2
CLASSES
  0
CLASS
  1
ACDBDICTIONARYWDFLT
  2
AcDbDictionaryWithDefault
  3
ObjectDBX Classes
 90
0
 91
0
280
0
281
0
  0
CLASS
  1
SUN
  2
AcDbSun
  3
SCENEOE
 90
1153
 91
0
280
0
281
0
  0
CLASS
  1
VISUALSTYLE
  2
AcDbVisualStyle
  3
ObjectDBX Classes
 90
4095
 91
0
280
0
281
0
  0
CLASS
  1
MATERIAL
  2
AcDbMaterial
  3
ObjectDBX Classes
 90
1153
 91
0
280
0
281
0
  0
CLASS
  1
SCALE
  2
AcDbScale
  3
ObjectDBX Classes
 90
1153
 91
0
280
0
281
0
  0
CLASS
  1
TABLESTYLE
  2
AcDbTableStyle
  3
ObjectDBX Classes
 90
4095
 91
0
280
0
281
0
  0
CLASS
  1
MLEADERSTYLE
  2
AcDbMLeaderStyle
  3
ACDB_MLEADERSTYLE_CLASS
 90
4095
 91
0
280
0
281
0
  0
CLASS
  1
DICTIONARYVAR
  2
AcDbDictionaryVar
  3
ObjectDBX Classes
 90
0
 91
0
280
0
281
0
  0
CLASS
  1
CELLSTYLEMAP
  2
AcDbCellStyleMap
  3
ObjectDBX Classes
 90
1152
 91
0
280
0
281
0
  0
CLASS
  1
MENTALRAYRENDERSETTINGS
  2
AcDbMentalRayRenderSettings
  3
SCENEOE
 90
1024
 91
0
280
0
281
0
  0
CLASS
  1
ACDBDETAILVIEWSTYLE
  2
AcDbDetailViewStyle
  3
ObjectDBX Classes
 90
1025
 91
0
280
0
281
0
  0
CLASS
  1
ACDBSECTIONVIEWSTYLE
  2
AcDbSectionViewStyle
  3
ObjectDBX Classes
 90
1025
 91
0
280
0
281
0
  0
CLASS
  1
RASTERVARIABLES
  2
AcDbRasterVariables
  3
ISM
 90
0
 91
0
280
0
281
0
  0
CLASS
  1
LAYOUT
  2
AcDbLayout
  3
ObjectDBX Classes
 90
0
 91
0
280
0
281
0
  0
CLASS
  1
ACDBPLACEHOLDER
  2
AcDbPlaceHolder
  3
ObjectDBX Classes
 90
0
 91
0
280
0
281
0
  0
ENDSEC
  0
SECTION
  2
TABLES
  0
TABLE
  2
VPORT
  5
8
330
0
100
AcDbSymbolTable
 70
1
  0
VPORT
  5
23
330
8
100
AcDbSymbolTableRecord
100
AcDbViewportTableRecord
  2
*Active
 70
0
 10
0.0
 20
0.0
 11
1.0
 21
1.0
 12
0.0
 22
0.0
 13
0.0
 23
0.0
 14
0.5
 24
0.5
 15
0.5
 25
0.5
 16
0.0
 26
0.0
 36
1.0
 17
0.0
 27
0.0
 37
0.0
 40
1000.0
 41
1.34
 42
50.0
 43
0.0
 44
0.0
 50
0.0
 51
0.0
 71
0
 72
1000
 73
1
 74
3
 75
0
 76
0
 77
0
 78
0
281
0
 65
0
146
0.0
  0
ENDTAB
  0
TABLE
  2
LTYPE
  5
2
330
0
100
AcDbSymbolTable
 70
3
  0
LTYPE
  5
24
330
2
100
AcDbSymbolTableRecord
100
AcDbLinetypeTableRecord
  2
ByBlock
 70
0
  3

 72
65
 73
0
 40
0.0
  0
LTYPE
  5
25
330
2
100
AcDbSymbolTableRecord
100
AcDbLinetypeTableRecord
  2
ByLayer
 70
0
  3

 72
65
 73
0
 40
0.0
  0
LTYPE
  5
26
330
2
100
AcDbSymbolTableRecord
100
AcDbLinetypeTableRecord
  2
Continuous
 70
0
  3

 72
65
 73
0
 40
0.0
  0
ENDTAB
  0
TABLE
  2
LAYER
  5
1
330
0
100
AcDbSymbolTable
 70
2
  0
LAYER
  5
27
330
1
100
AcDbSymbolTableRecord
100
AcDbLayerTableRecord
  2
0
 70
0
 62
7
  6
Continuous
370
-3
390
13
347
21
  0
LAYER
  5
28
330
1
100
AcDbSymbolTableRecord
100
AcDbLayerTableRecord
  2
Defpoints
 70
0
 62
7
  6
Continuous
290
0
370
-3
390
13
347
21
  0
ENDTAB
  0
TABLE
  2
STYLE
  5
5
330
0
100
AcDbSymbolTable
 70
1
  0
STYLE
  5
29
330
5
100
AcDbSymbolTableRecord
100
AcDbTextStyleTableRecord
  2
Standard
 70
0
 40
0.0
 41
1.0
 50
0.0
 71
0
 42
2.5
  3
txt
  4

  0
ENDTAB
  0
TABLE
  2
VIEW
  5
7
330
0
100
AcDbSymbolTable
 70
0
  0
ENDTAB
  0
TABLE
  2
UCS
  5
6
330
0
100
AcDbSymbolTable
 70
0
  0
ENDTAB
  0
TABLE
  2
APPID
  5
3
330
0
100
AcDbSymbolTable
 70
3
  0
APPID
  5
2A
330
3
100
AcDbSymbolTableRecord
100
AcDbRegAppTableRecord
  2
ACAD
 70
0
  0
APPID
  5
12F
330
3
100
AcDbSymbolTableRecord
100
AcDbRegAppTableRecord
  2
HATCHBACKGROUNDCOLOR
 70
0
  0
APPID
  5
130
330
3
100
AcDbSymbolTableRecord
100
AcDbRegAppTableRecord
  2
EZDXF
 70
0
  0
ENDTAB
  0
TABLE
  2
DIMSTYLE
  5
4
330
0
100
AcDbSymbolTable
 70
1
100
AcDbDimStyleTable
  0
DIMSTYLE
105
2B
330
4
100
AcDbSymbolTableRecord
100
AcDbDimStyleTableRecord
  2
Standard
 70
0
 40
1.0
 41
2.5
 42
0.625
 43
3.75
 44
1.25
 45
0.0
 46
0.0
 47
0.0
 48
0.0
 49
2.5
140
2.5
141
2.5
142
0.0
143
0.03937007874
144
1.0
145
0.0
146
1.0
147
0.625
148
0.0
 69
0
 70
0
 71
0
 72
0
 73
0
 74
0
 75
0
 76
0
 77
1
 78
8
 79
3
170
0
171
3
172
1
173
0
174
0
175
0
176
0
177
0
178
0
179
2
271
2
272
2
273
2
274
3
275
0
276
0
277
2
278
44
279
0
280
0
281
0
282
0
283
0
284
8
285
0
286
0
288
0
289
3
290
0
371
-2
372
-2
  0
ENDTAB
  0
TABLE
  2
BLOCK_RECORD
  5
9
330
0
100
AcDbSymbolTable
 70
3
  0
BLOCK_RECORD
  5
17
330
9
100
AcDbSymbolTableRecord
100
AcDbBlockTableRecord
  2
*Model_Space
340
1A
 70
0
280
1
281
0
  0
BLOCK_RECORD
  5
1B
330
9
100
AcDbSymbolTableRecord
100
AcDbBlockTableRecord
  2
*Paper_Space
340
1E
 70
0
280
1
281
0
  0
BLOCK_RECORD
  5
2F
330
9
100
AcDbSymbolTableRecord
100
AcDbBlockTableRecord
  2
FLAG
340
0
 70
0
280
1
281
0
  0
ENDTAB
  0
ENDSEC
  0
SECTION
  2
BLOCKS
  0
BLOCK
  5
18
330
17
100
AcDbEntity
  8
0
100
AcDbBlockBegin
  2
*Model_Space
 70
0
 10
0.0
 20
0.0
 30
0.0
  3
*Model_Space
  1

  0
ENDBLK
  5
19
330
17
100
AcDbEntity
  8
0
100
AcDbBlockEnd
  0
BLOCK
  5
1C
330
1B
100
AcDbEntity
  8
0
100
AcDbBlockBegin
  2
*Paper_Space
 70
0
 10
0.0
 20
0.0
 30
0.0
  3
*Paper_Space
  1

  0
ENDBLK
  5
1D
330
1B
100
AcDbEntity
  8
0
100
AcDbBlockEnd
  0
BLOCK
  5
30
330
2F
100
AcDbEntity
  8
0
100
AcDbBlockBegin
  2
FLAG
 70
2
 10
0.0
 20
0.0
 30
0.0
  3
FLAG
  1

  0
ATTDEF
  5
32
330
2F
100
AcDbEntity
  8
0
 62
3
100
AcDbText
 10
0.5
 20
-0.5
 30
0.0
 40
0.5
  1

100
AcDbAttributeDefinition
280
0
  3

  2
NAME
 70
0
  0
ATTDEF
  5
33
330
2F
100
AcDbEntity
  8
0
 62
4
100
AcDbText
 10
0.5
 20
-1.0
 30
0.0
 40
0.25
  1

100
AcDbAttributeDefinition
280
0
  3

  2
XPOS
 70
0
  0
ATTDEF
  5
34
330
2F
100
AcDbEntity
  8
0
 62
4
100
AcDbText
 10
0.5
 20
-1.5
 30
0.0
 40
0.25
  1

100
AcDbAttributeDefinition
280
0
  3

  2
YPOS
 70
0
  0
ENDBLK
  5
31
330
2F
100
AcDbEntity
  8
0
100
AcDbBlockEnd
  0
ENDSEC
  0
SECTION
  2
ENTITIES
  0
INSERT
  5
35
330
17
100
AcDbEntity
  8
0
100
AcDbBlockReference
 66
1
  2
FLAG
 10
-67.0
 20
44.0
 30
0.0
 41
0.8143334838038585
 42
0.8143334838038585
 43
0.8143334838038585
 50
15.0
  0
ATTRIB
  5
37
330
17
100
AcDbEntity
  8
0
 62
3
100
AcDbText
 10
-66.5013246210544
 20
43.712089635727516
 30
0.0
 40
0.40716674190192925
  1
P(1)
 50
14.999999999999998
 11
-66.5013246210544
 21
43.712089635727516
 31
0.0
100
AcDbAttribute
280
0
  2
NAME
 70
0
  0
ATTRIB
  5
38
330
17
100
AcDbEntity
  8
0
 62
4
100
AcDbText
 10
-66.39594211371782
 20
43.31879676411847
 30
0.0
 40
0.20358337095096463
  1
x = -67.000
 50
14.999999999999998
 11
-66.39594211371782
 21
43.31879676411847
 31
0.0
100
AcDbAttribute
280
0
  2
XPOS
 70
0
  0
ATTRIB
  5
39
330
17
100
AcDbEntity
  8
0
 62
4
100
AcDbText
 10
-66.29055960638127
 20
42.92550389250942
 30
0.0
 40
0.20358337095096463
  1
y = 44.000
 50
14.999999999999998
 11
-66.29055960638127
 21
42.92550389250942
 31
0.0
100
AcDbAttribute
280
0
  2
YPOS
 70
0
  0
SEQEND
  5
36
330
35
100
AcDbEntity
  8
0
  0
INSERT
  5
3A
330
17
100
AcDbEntity
  8
0
100
AcDbBlockReference
 66
1
  2
FLAG
 10
36.0
 20
-50.0
 30
0.0
 41
1.3705955111426509
 42
1.3705955111426509
 43
1.3705955111426509
 50
15.0
  0
ATTRIB
  5
3C
330
17
100
AcDbEntity
  8
0
 62
3
100
AcDbText
 10
36.83931491151215
 20
-50.484578690096406
 30
0.0
 40
0.6852977555713254
  1
P(2)
 50
14.999999999999998
 11
36.83931491151215
 21
-50.484578690096406
 31
0.0
100
AcDbAttribute
280
0
  2
NAME
 70
0
  0
ATTRIB
  5
3D
330
17
100
AcDbEntity
  8
0
 62
4
100
AcDbText
 10
37.01668302222002
 20
-51.14652549090068
 30
0.0
 40
0.3426488777856627
  1
x = 36.000
 50
14.999999999999998
 11
37.01668302222002
 21
-51.14652549090068
 31
0.0
100
AcDbAttribute
280
0
  2
XPOS
 70
0
  0
ATTRIB
  5
3E
330
17
100
AcDbEntity
  8
0
 62
4
100
AcDbText
 10
37.19405113292789
 20
-51.80847229170496
 30
0.0
 40
0.3426488777856627
  1
y = -50.000
 50
14.999999999999998
 11
37.19405113292789
 21
-51.80847229170496
 31
0.0
100
AcDbAttribute
280
0
  2
YPOS
 70
0
  0
SEQEND
  5
3B
330
3A
100
AcDbEntity
  8
0
  0
INSERT
  5
3F
330
17
100
AcDbEntity
  8
0
100
AcDbBlockReference
 66
1
  2
FLAG
 10
-17.0
 20
-100.0
 30
0.0
 41
1.959655020479169
 42
1.959655020479169
 43
1.959655020479169
 50
15.0
  0
ATTRIB
  5
41
330
17
100
AcDbEntity
  8
0
 62
3
100
AcDbText
 10
-15.799961281985679
 20
-100.69284267688354
 30
0.0
 40
0.9798275102395845
  1
P(3)
 50
14.999999999999998
 11
-15.799961281985679
 21
-100.69284267688354
 31
0.0
100
AcDbAttribute
280
0
  2
NAME
 70
0
  0
ATTRIB
  5
42
330
17
100
AcDbEntity
  8
0
 62
4
100
AcDbText
 10
-15.54636326142029
 20
-101.63928337433248
 30
0.0
 40
0.48991375511979224
  1
x = -17.000
 50
14.999999999999998
 11
-15.54636326142029
 21
-101.63928337433248
 31
0.0
100
AcDbAttribute
280
0
  2
XPOS
 70
0
  0
ATTRIB
  5
43
330
17
100
AcDbEntity
  8
0
 62
4
100
AcDbText
 10
-15.2927652408549
 20
-102.5857240717814
 30
0.0
 40
0.48991375511979224
  1
y = -100.000
 50
14.999999999999998
 11
-15.2927652408549
 21
-102.5857240717814
 31
0.0
100
AcDbAttribute
280
0
  2
YPOS
 70
0
  0
SEQEND
  5
40
330
3F
100
AcDbEntity
  8
0
  0
INSERT
  5
44
330
17
100
AcDbEntity
  8
0
100
AcDbBlockReference
 66
1
  2
FLAG
 10
-50.0
 20
55.0
 30
0.0
 41
2.1197274673190467
 42
2.1197274673190467
 43
2.1197274673190467
 50
15.0
  0
ATTRIB
  5
46
330
17
100
AcDbEntity
  8
0
 62
3
100
AcDbText
 10
-48.701937327826556
 20
54.25056316679566
 30
0.0
 40
1.0598637336595234
  1
P(4)
 50
14.999999999999998
 11
-48.701937327826556
 21
54.25056316679566
 31
0.0
100
AcDbAttribute
280
0
  2
NAME
 70
0
  0
ATTRIB
  5
47
330
17
100
AcDbEntity
  8
0
 62
4
100
AcDbText
 10
-48.427624408342005
 20
53.226813414106765
 30
0.0
 40
0.5299318668297617
  1
x = -50.000
 50
14.999999999999998
 11
-48.427624408342005
 21
53.226813414106765
 31
0.0
100
AcDbAttribute
280
0
  2
XPOS
 70
0
  0
ATTRIB
  5
48
330
17
100
AcDbEntity
  8
0
 62
4
100
AcDbText
 10
-48.153311488857454
 20
52.20306366141787
 30
0.0
 40
0.5299318668297617
  1
y = 55.000
 50
14.999999999999998
 11
-48.153311488857454
 21
52.20306366141787
 31
0.0
100
AcDbAttribute
280
0
  2
YPOS
 70
0
  0
SEQEND
  5
45
330
44
100
AcDbEntity
  8
0
  0
INSERT
  5
49
330
17
100
AcDbEntity
  8
0
100
AcDbBlockReference
 66
1
  2
FLAG
 10
-71.0
 20
43.0
 30
0.0
 41
1.9907570077482892
 42
1.9907570077482892
 43
1.9907570077482892
 50
15.0
  0
ATTRIB
  5
4B
330
17
100
AcDbEntity
  8
0
 62
3
100
AcDbText
 10
-69.78091528228671
 20
42.296161110063274
 30
0.0
 40
0.9953785038741446
  1
P(5)
 50
14.999999999999998
 11
-69.78091528228671
 21
42.296161110063274
 31
0.0
100
AcDbAttribute
280
0
  2
NAME
 70
0
  0
ATTRIB
  5
4C
330
17
100
AcDbEntity
  8
0
 62
4
100
AcDbText
 10
-69.52329236839843
 20
41.334699306238264
 30
0.0
 40
0.4976892519370723
  1
x = -71.000
 50
14.999999999999998
 11
-69.52329236839843
 21
41.334699306238264
 31
0.0
100
AcDbAttribute
280
0
  2
XPOS
 70
0
  0
ATTRIB
  5
4D
330
17
100
AcDbEntity
  8
0
 62
4
100
AcDbText
 10
-69.26566945451015
 20
40.373237502413254
 30
0.0
 40
0.4976892519370723
  1
y = 43.000
 50
14.999999999999998
 11
-69.26566945451015
 21
40.373237502413254
 31
0.0
100
AcDbAttribute
280
0
  2
YPOS
 70
0
  0
SEQEND
  5
4A
330
49
100
AcDbEntity
  8
0
  0
INSERT
  5
4E
330
17
100
AcDbEntity
  8
0
100
AcDbBlockReference
 66
1
  2
FLAG
 10
-28.0
 20
1.0
 30
0.0
 41
2.0734797273852292
 42
2.0734797273852292
 43
2.0734797273852292
 50
15.0
  0
ATTRIB
  5
50
330
17
100
AcDbEntity
  8
0
 62
3
100
AcDbText
 10
-26.730258168975254
 20
0.2669142120565353
 30
0.0
 40
1.0367398636926146
  1
P(6)
 50
14.999999999999998
 11
-26.730258168975254
 21
0.2669142120565353
 31
0.0
100
AcDbAttribute
280
0
  2
NAME
 70
0
  0
ATTRIB
  5
51
330
17
100
AcDbEntity
  8
0
 62
4
100
AcDbText
 10
-26.461930147434614
 20
-0.7344995974275694
 30
0.0
 40
0.5183699318463073
  1
x = -28.000
 50
14.999999999999998
 11
-26.461930147434614
 21
-0.7344995974275694
 31
0.0
100
AcDbAttribute
280
0
  2
XPOS
 70
0
  0
ATTRIB
  5
52
330
17
100
AcDbEntity
  8
0
 62
4
100
AcDbText
 10
-26.193602125893975
 20
-1.7359134069116742
 30
0.0
 40
0.5183699318463073
  1
y = 1.000
 50
14.999999999999998
 11
-26.193602125893975
 21
-1.7359134069116742
 31
0.0
100
AcDbAttribute
280
0
  2
YPOS
 70
0
  0
SEQEND
  5
4F
330
4E
100
AcDbEntity
  8
0
  0
INSERT
  5
53
330
17
100
AcDbEntity
  8
0
100
AcDbBlockReference
 66
1
  2
FLAG
 10
-52.0
 20
73.0
 30
0.0
 41
1.4378658655925562
 42
1.4378658655925562
 43
1.4378658655925562
 50
15.0
  0
ATTRIB
  5
55
330
17
100
AcDbEntity
  8
0
 62
3
100
AcDbText
 10
-51.119490577683244
 20
72.49163764800142
 30
0.0
 40
0.7189329327962781
  1
P(7)
 50
14.999999999999998
 11
-51.119490577683244
 21
72.49163764800142
 31
0.0
100
AcDbAttribute
280
0
  2
NAME
 70
0
  0
ATTRIB
  5
56
330
17
100
AcDbEntity
  8
0
 62
4
100
AcDbText
 10
-50.933417042524155
 20
71.79720176084375
 30
0.0
 40
0.35946646639813906
  1
x = -52.000
 50
14.999999999999998
 11
-50.933417042524155
 21
71.79720176084375
 31
0.0
100
AcDbAttribute
280
0
  2
XPOS
 70
0
  0
ATTRIB
  5
57
330
17
100
AcDbEntity
  8
0
 62
4
100
AcDbText
 10
-50.747343507365066
 20
71.10276587368608
 30
0.0
 40
0.35946646639813906
  1
y = 73.000
 50
14.999999999999998
 11
-50.747343507365066
 21
71.10276587368608
 31
0.0
100
AcDbAttribute
280
0
  2
YPOS
 70
0
  0
SEQEND
  5
54
330
53
100
AcDbEntity
  8
0
  0
INSERT
  5
58
330
17
100
AcDbEntity
  8
0
100
AcDbBlockReference
 66
1
  2
FLAG
 10
74.0
 20
-97.0
 30
0.0
 41
2.445601568245136
 42
2.445601568245136
 43
2.445601568245136
 50
15.0
  0
ATTRIB
  5
5A
330
17
100
AcDbEntity
  8
0
 62
3
100
AcDbText
 10
75.49761898908773
 20
-97.8646507264933
 30
0.0
 40
1.222800784122568
  1
P(8)
 50
14.999999999999998
 11
75.49761898908773
 21
-97.8646507264933
 31
0.0
100
AcDbAttribute
280
0
  2
NAME
 70
0
  0
ATTRIB
  5
5B
330
17
100
AcDbEntity
  8
0
 62
4
100
AcDbText
 10
75.81410312038494
 20
-99.0457855842838
 30
0.0
 40
0.611400392061284
  1
x = 74.000
 50
14.999999999999998
 11
75.81410312038494
 21
-99.0457855842838
 31
0.0
100
AcDbAttribute
280
0
  2
XPOS
 70
0
  0
ATTRIB
  5
5C
330
17
100
AcDbEntity
  8
0
 62
4
100
AcDbText
 10
76.13058725168216
 20
-100.22692044207432
 30
0.0
 40
0.611400392061284
  1
y = -97.000
 50
14.999999999999998
 11
76.13058725168216
 21
-100.22692044207432
 31
0.0
100
AcDbAttribute
280
0
  2
YPOS
 70
0
  0
SEQEND
  5
59
330
58
100
AcDbEntity
  8
0
  0
INSERT
  5
5D
330
17
100
AcDbEntity
  8
0
100
AcDbBlockReference
 66
1
  2
FLAG
 10
-36.0
 20
-1.0
 30
0.0
 41
2.021832278778634
 42
2.021832278778634
 43
2.021832278778634
 50
15.0
  0
ATTRIB
  5
5F
330
17
100
AcDbEntity
  8
0
 62
3
100
AcDbText
 10
-34.76188564287595
 20
-1.714825657373111
 30
0.0
 40
1.010916139389317
  1
P(9)
 50
14.999999999999998
 11
-34.76188564287595
 21
-1.714825657373111
 31
0.0
100
AcDbAttribute
280
0
  2
NAME
 70
0
  0
ATTRIB
  5
60
330
17
100
AcDbEntity
  8
0
 62
4
100
AcDbText
 10
-34.50024129300048
 20
-2.691295664621692
 30
0.0
 40
0.5054580696946585
  1
x = -36.000
 50
14.999999999999998
 11
-34.50024129300048
 21
-2.691295664621692
 31
0.0
100
AcDbAttribute
280
0
  2
XPOS
 70
0
  0
ATTRIB
  5
61
330
17
100
AcDbEntity
  8
0
 62
4
100
AcDbText
 10
-34.23859694312501
 20
-3.667765671870273
 30
0.0
 40
0.5054580696946585
  1
y = -1.000
 50
14.999999999999998
 11
-34.23859694312501
 21
-3.667765671870273
 31
0.0
100
AcDbAttribute
280
0
  2
YPOS
 70
0
  0
SEQEND
  5
5E
330
5D
100
AcDbEntity
  8
0
  0
INSERT
  5
62
330
17
100
AcDbEntity
  8
0
100
AcDbBlockReference
 66
1
  2
FLAG
 10
-37.0
 20
65.0
 30
0.0
 41
1.3550958160752993
 42
1.3550958160752993
 43
1.3550958160752993
 50
15.0
  0
ATTRIB
  5
64
330
17
100
AcDbEntity
  8
0
 62
3
100
AcDbText
 10
-36.17017667450879
 20
64.52090127964782
 30
0.0
 40
0.6775479080376496
  1
P(10)
 50
14.999999999999998
 11
-36.17017667450879
 21
64.52090127964782
 31
0.0
100
AcDbAttribute
280
0
  2
NAME
 70
0
  0
ATTRIB
  5
65
330
17
100
AcDbEntity
  8
0
 62
4
100
AcDbText
 10
-35.99481437193927
 20
63.86644025672612
 30
0.0
 40
0.3387739540188248
  1
x = -37.000
 50
14.999999999999998
 11
-35.99481437193927
 21
63.86644025672612
 31
0.0
100
AcDbAttribute
280
0
  2
XPOS
 70
0
  0
ATTRIB
  5
66
330
17
100
AcDbEntity
  8
0
 62
4
100
AcDbText
 10
-35.81945206936976
 20
63.21197923380443
 30
0.0
 40
0.3387739540188248
  1
y = 65.000
 50
14.999999999999998
 11
-35.81945206936976
 21
63.21197923380443
 31
0.0
100
AcDbAttribute
280
0
  2
YPOS
 70
0
  0
SEQEND
  5
63
330
62
100
AcDbEntity
  8
0
  0
INSERT
  5
67
330
17
100
AcDbEntity
  8
0
100
AcDbBlockReference
 66
1
  2
FLAG
 10
0.0
 20
-52.0
 30
0.0
 41
1.2321264498129616
 42
1.2321264498129616
 43
1.2321264498129616
 50
15.0
  0
ATTRIB
  5
69
330
17
100
AcDbEntity
  8
0
 62
3
100
AcDbText
 10
0.7545202751571755
 20
-52.435622483971024
 30
0.0
 40
0.6160632249064808
  1
P(11)
 50
14.999999999999998
 11
0.7545202751571755
 21
-52.435622483971024
 31
0.0
100
AcDbAttribute
280
0
  2
NAME
 70
0
  0
ATTRIB
  5
6A
330
17
100
AcDbEntity
  8
0
 62
4
100
AcDbText
 10
0.9139691707502502
 20
-53.03069386353513
 30
0.0
 40
0.3080316124532404
  1
x = 0.000
 50
14.999999999999998
 11
0.9139691707502502
 21
-53.03069386353513
 31
0.0
100
AcDbAttribute
280
0
  2
XPOS
 70
0
  0
ATTRIB
  5
6B
330
17
100
AcDbEntity
  8
0
 62
4
100
AcDbText
 10
1.073418066343325
 20
-53.625765243099224
 30
0.0
 40
0.3080316124532404
  1
y = -52.000
 50
14.999999999999998
 11
1.073418066343325
 21
-53.625765243099224
 31
0.0
100
AcDbAttribute
280
0
  2
YPOS
 70
0
  0
SEQEND
  5
68
330
67
100
AcDbEntity
  8
0
  0
INSERT
  5
6C
330
17
100
AcDbEntity
  8
0
100
AcDbBlockReference
 66
1
  2
FLAG
 10
-42.0
 20
-66.0
 30
0.0
 41
1.932133570938729
 42
1.932133570938729
 43
1.932133570938729
 50
15.0
  0
ATTRIB
  5
6E
330
17
100
AcDbEntity
  8
0
 62
3
100
AcDbText
 10
-40.81681465907464
 20
-66.68311237508448
 30
0.0
 40
0.9660667854693644
  1
P(12)
 50
14.999999999999998
 41
1.0000000000000002
 11
-40.81681465907464
 21
-66.68311237508448
 31
0.0
100
AcDbAttribute
280
0
  2
NAME
 70
0
  0
ATTRIB
  5
6F
330
17
100
AcDbEntity
  8
0
 62
4
100
AcDbText
 10
-40.566778176154195
 20
-67.6162612330894
 30
0.0
 40
0.4830333927346822
  1
x = -42.000
 50
14.999999999999998
 41
1.0000000000000002
 11
-40.566778176154195
 21
-67.6162612330894
 31
0.0
100
AcDbAttribute
280
0
  2
XPOS
 70
0
  0
ATTRIB
  5
70
330
17
100
AcDbEntity
  8
0
 62
4
100
AcDbText
 10
-40.31674169323375
 20
-68.54941009109432
 30
0.0
 40
0.4830333927346822
  1
y = -66.000
 50
14.999999999999998
 41
1.0000000000000002
 11
-40.31674169323375
 21
-68.54941009109432
 31
0.0
100
AcDbAttribute
280
0
  2
YPOS
 70
0
  0
SEQEND
  5
6D
330
6C
100
AcDbEntity
  8
0
  0
INSERT
  5
71
330
17
100
AcDbEntity
  8
0
100
AcDbBlockReference
 66
1
  2
FLAG
 10
-51.0
 20
27.0
 30
0.0
 41
1.5008851393767249
 42
1.5008851393767249
 43
1.5008851393767249
 50
15.0
  0
ATTRIB
  5
73
330
17
100
AcDbEntity
  8
0
 62
3
100
AcDbText
 10
-50.080899311500254
 20
26.469356970082302
 30
0.0
 40
0.7504425696883624
  1
P(13)
 50
14.999999999999998
 41
1.0000000000000002
 11
-50.080899311500254
 21
26.469356970082302
 31
0.0
100
AcDbAttribute
280
0
  2
NAME
 70
0
  0
ATTRIB
  5
74
330
17
100
AcDbEntity
  8
0
 62
4
100
AcDbText
 10
-49.886670482209226
 20
25.744485110873576
 30
0.0
 40
0.3752212848441812
  1
x = -51.000
 50
14.999999999999998
 41
1.0000000000000002
 11
-49.886670482209226
 21
25.744485110873576
 31
0.0
100
AcDbAttribute
280
0
  2
XPOS
 70
0
  0
ATTRIB
  5
75
330
17
100
AcDbEntity
  8
0
 62
4
100
AcDbText
 10
-49.692441652918205
 20
25.019613251664854
 30
0.0
 40
0.3752212848441812
  1
y = 27.000
 50
14.999999999999998
 41
1.0000000000000002
 11
-49.692441652918205
 21
25.019613251664854
 31
0.0
100
AcDbAttribute
280
0
  2
YPOS
 70
0
  0
SEQEND
  5
72
330
71
100
AcDbEntity
  8
0
  0
INSERT
  5
76
330
17
100
AcDbEntity
  8
0
100
AcDbBlockReference
 66
1
  2
FLAG
 10
71.0
 20
-41.0
 30
0.0
 41
2.0059870650027136
 42
2.0059870650027136
 43
2.0059870650027136
 50
15.0
  0
ATTRIB
  5
78
330
17
100
AcDbEntity
  8
0
 62
3
100
AcDbText
 10
72.22841118496997
 20
-41.709223528317956
 30
0.0
 40
1.0029935325013568
  1
P(14)
 50
14.999999999999996
 11
72.22841118496997
 21
-41.709223528317956
 31
0.0
100
AcDbAttribute
280
0
  2
NAME
 70
0
  0
ATTRIB
  5
79
330
17
100
AcDbEntity
  8
0
 62
4
100
AcDbText
 10
72.48800501329598
 20
-42.67804088496192
 30
0.0
 40
0.5014967662506784
  1
x = 71.000
 50
14.999999999999996
 11
72.48800501329598
 21
-42.67804088496192
 31
0.0
100
AcDbAttribute
280
0
  2
XPOS
 70
0
  0
ATTRIB
  5
7A
330
17
100
AcDbEntity
  8
0
 62
4
100
AcDbText
 10
72.74759884162198
 20
-43.64685824160589
 30
0.0
 40
0.5014967662506784
  1
y = -41.000
 50
14.999999999999996
 11
72.74759884162198
 21
-43.64685824160589
 31
0.0
100
AcDbAttribute
280
0
  2
YPOS
 70
0
  0
SEQEND
  5
77
330
76
100
AcDbEntity
  8
0
  0
INSERT
  5
7B
330
17
100
AcDbEntity
  8
0
100
AcDbBlockReference
 66
1
  2
FLAG
 10
-6.0
 20
56.0
 30
0.0
 41
0.9416156042547064
 42
0.9416156042547064
 43
0.9416156042547064
 50
15.0
  0
ATTRIB
  5
7D
330
17
100
AcDbEntity
  8
0
 62
3
100
AcDbText
 10
-5.423380558933378
 20
55.667088610480214
 30
0.0
 40
0.4708078021273532
  1
P(15)
 50
14.999999999999998
 11
-5.423380558933378
 21
55.667088610480214
 31
0.0
100
AcDbAttribute
280
0
  2
NAME
 70
0
  0
ATTRIB
  5
7E
330
17
100
AcDbEntity
  8
0
 62
4
100
AcDbText
 10
-5.30152653315996
 20
55.21232319518701
 30
0.0
 40
0.2354039010636766
  1
x = -6.000
 50
14.999999999999998
 11
-5.30152653315996
 21
55.21232319518701
 31
0.0
100
AcDbAttribute
280
0
  2
XPOS
 70
0
  0
ATTRIB
  5
7F
330
17
100
AcDbEntity
  8
0
 62
4
100
AcDbText
 10
-5.179672507386542
 20
54.75755777989381
 30
0.0
 40
0.2354039010636766
  1
y = 56.000
 50
14.999999999999998
 11
-5.179672507386542
 21
54.75755777989381
 31
0.0
100
AcDbAttribute
280
0
  2
YPOS
 70
0
  0
SEQEND
  5
7C
330
7B
100
AcDbEntity
  8
0
  0
INSERT
  5
80
330
17
100
AcDbEntity
  8
0
100
AcDbBlockReference
 66
1
  2
FLAG
 10
-49.0
 20
54.0
 30
0.0
 41
0.8046381520680699
 42
0.8046381520680699
 43
0.8046381520680699
 50
15.0
  0
ATTRIB
  5
82
330
17
100
AcDbEntity
  8
0
 62
3
100
AcDbText
 10
-48.50726177496431
 20
53.715517453135625
 30
0.0
 40
0.40231907603403494
  1
P(16)
 50
14.999999999999998
 11
-48.50726177496431
 21
53.715517453135625
 31
0.0
100
AcDbAttribute
280
0
  2
NAME
 70
0
  0
ATTRIB
  5
83
330
17
100
AcDbEntity
  8
0
 62
4
100
AcDbText
 10
-48.40313393587866
 20
53.3269070671856
 30
0.0
 40
0.20115953801701747
  1
x = -49.000
 50
14.999999999999998
 11
-48.40313393587866
 21
53.3269070671856
 31
0.0
100
AcDbAttribute
280
0
  2
XPOS
 70
0
  0
ATTRIB
  5
84
330
17
100
AcDbEntity
  8
0
 62
4
100
AcDbText
 10
-48.299006096793
 20
52.93829668123557
 30
0.0
 40
0.20115953801701747
  1
y = 54.000
 50
14.999999999999998
 11
-48.299006096793
 21
52.93829668123557
 31
0.0
100
AcDbAttribute
280
0
  2
YPOS
 70
0
  0
SEQEND
  5
81
330
80
100
AcDbEntity
  8
0
  0
INSERT
  5
85
330
17
100
AcDbEntity
  8
0
100
AcDbBlockReference
 66
1
  2
FLAG
 10
-72.0
 20
-19.0
 30
0.0
 41
0.6948571065537152
 42
0.6948571065537152
 43
0.6948571065537152
 50
15.0
  0
ATTRIB
  5
87
330
17
100
AcDbEntity
  8
0
 62
3
100
AcDbText
 10
-71.57448866119917
 20
-19.245669085999896
 30
0.0
 40
0.3474285532768576
  1
P(17)
 50
14.999999999999998
 11
-71.57448866119917
 21
-19.245669085999896
 31
0.0
100
AcDbAttribute
280
0
  2
NAME
 70
0
  0
ATTRIB
  5
88
330
17
100
AcDbEntity
  8
0
 62
4
100
AcDbText
 10
-71.4845675347987
 20
-19.581259298400262
 30
0.0
 40
0.1737142766384288
  1
x = -72.000
 50
14.999999999999998
 11
-71.4845675347987
 21
-19.581259298400262
 31
0.0
100
AcDbAttribute
280
0
  2
XPOS
 70
0
  0
ATTRIB
  5
89
330
17
100
AcDbEntity
  8
0
 62
4
100
AcDbText
 10
-71.39464640839823
 20
-19.916849510800628
 30
0.0
 40
0.1737142766384288
  1
y = -19.000
 50
14.999999999999998
 11
-71.39464640839823
 21
-19.916849510800628
 31
0.0
100
AcDbAttribute
280
0
  2
YPOS
 70
0
  0
SEQEND
  5
86
330
85
100
AcDbEntity
  8
0
  0
INSERT
  5
8A
330
17
100
AcDbEntity
  8
0
100
AcDbBlockReference
 66
1
  2
FLAG
 10
-34.0
 20
95.0
 30
0.0
 41
2.0376652276253515
 42
2.0376652276253515
 43
2.0376652276253515
 50
15.0
  0
ATTRIB
  5
8C
330
17
100
AcDbEntity
  8
0
 62
3
100
AcDbText
 10
-32.75218998142644
 20
94.27957654987904
 30
0.0
 40
1.0188326138126758
  1
P(18)
 50
14.999999999999998
 11
-32.75218998142644
 21
94.27957654987904
 31
0.0
100
AcDbAttribute
280
0
  2
NAME
 70
0
  0
ATTRIB
  5
8D
330
17
100
AcDbEntity
  8
0
 62
4
100
AcDbText
 10
-32.488496697200134
 20
93.29545981553179
 30
0.0
 40
0.5094163069063379
  1
x = -34.000
 50
14.999999999999998
 11
-32.488496697200134
 21
93.29545981553179
 31
0.0
100
AcDbAttribute
280
0
  2
XPOS
 70
0
  0
ATTRIB
  5
8E
330
17
100
AcDbEntity
  8
0
 62
4
100
AcDbText
 10
-32.224803412973834
 20
92.31134308118452
 30
0.0
 40
0.5094163069063379
  1
y = 95.000
 50
14.999999999999998
 11
-32.224803412973834
 21
92.31134308118452
 31
0.0
100
AcDbAttribute
280
0
  2
YPOS
 70
0
  0
SEQEND
  5
8B
330
8A
100
AcDbEntity
  8
0
  0
INSERT
  5
8F
330
17
100
AcDbEntity
  8
0
100
AcDbBlockReference
 66
1
  2
FLAG
 10
54.0
 20
31.0
 30
0.0
 41
2.2541859538645608
 42
2.2541859538645608
 43
2.2541859538645608
 50
15.0
  0
ATTRIB
  5
91
330
17
100
AcDbEntity
  8
0
 62
3
100
AcDbText
 10
55.38040134307929
 20
30.20302491298345
 30
0.0
 40
1.1270929769322804
  1
P(19)
 50
14.999999999999998
 11
55.38040134307929
 21
30.20302491298345
 31
0.0
100
AcDbAttribute
280
0
  2
NAME
 70
0
  0
ATTRIB
  5
92
330
17
100
AcDbEntity
  8
0
 62
4
100
AcDbText
 10
55.67211447111066
 20
29.11433669793553
 30
0.0
 40
0.5635464884661402
  1
x = 54.000
 50
14.999999999999998
 11
55.67211447111066
 21
29.11433669793553
 31
0.0
100
AcDbAttribute
280
0
  2
XPOS
 70
0
  0
ATTRIB
  5
93
330
17
100
AcDbEntity
  8
0
 62
4
100
AcDbText
 10
55.96382759914203
 20
28.025648482887615
 30
0.0
 40
0.5635464884661402
  1
y = 31.000
 50
14.999999999999998
 11
55.96382759914203
 21
28.025648482887615
 31
0.0
100
AcDbAttribute
280
0
  2
YPOS
 70
0
  0
SEQEND
  5
90
330
8F
100
AcDbEntity
  8
0
  0
INSERT
  5
94
330
17
100
AcDbEntity
  8
0
100
AcDbBlockReference
 66
1
  2
FLAG
 10
-72.0
 20
-62.0
 30
0.0
 41
0.7982026078745228
 42
0.7982026078745228
 43
0.7982026078745228
 50
15.0
  0
ATTRIB
  5
96
330
17
100
AcDbEntity
  8
0
 62
3
100
AcDbText
 10
-71.51120272483715
 20
-62.28220723839443
 30
0.0
 40
0.3991013039372614
  1
P(20)
 50
14.999999999999998
 11
-71.51120272483715
 21
-62.28220723839443
 31
0.0
100
AcDbAttribute
280
0
  2
NAME
 70
0
  0
ATTRIB
  5
97
330
17
100
AcDbEntity
  8
0
 62
4
100
AcDbText
 10
-71.40790770645293
 20
-62.66770949517308
 30
0.0
 40
0.1995506519686307
  1
x = -72.000
 50
14.999999999999998
 11
-71.40790770645293
 21
-62.66770949517308
 31
0.0
100
AcDbAttribute
280
0
  2
XPOS
 70
0
  0
ATTRIB
  5
98
330
17
100
AcDbEntity
  8
0
 62
4
100
AcDbText
 10
-71.30461268806872
 20
-63.05321175195172
 30
0.0
 40
0.1995506519686307
  1
y = -62.000
 50
14.999999999999998
 11
-71.30461268806872
 21
-63.05321175195172
 31
0.0
100
AcDbAttribute
280
0
  2
YPOS
 70
0
  0
SEQEND
  5
95
330
94
100
AcDbEntity
  8
0
  0
INSERT
  5
99
330
17
100
AcDbEntity
  8
0
100
AcDbBlockReference
 66
1
  2
FLAG
 10
-31.0
 20
54.0
 30
0.0
 41
0.5930347141274572
 42
0.5930347141274572
 43
0.5930347141274572
 50
15.0
  0
ATTRIB
  5
9B
330
17
100
AcDbEntity
  8
0
 62
3
100
AcDbText
 10
-30.63684188765761
 20
53.790330566080726
 30
0.0
 40
0.2965173570637286
  1
P(21)
 50
14.999999999999998
 11
-30.63684188765761
 21
53.790330566080726
 31
0.0
100
AcDbAttribute
280
0
  2
NAME
 70
0
  0
ATTRIB
  5
9C
330
17
100
AcDbEntity
  8
0
 62
4
100
AcDbText
 10
-30.560097548446052
 20
53.503916792949894
 30
0.0
 40
0.1482586785318643
  1
x = -31.000
 50
14.999999999999998
 11
-30.560097548446052
 21
53.503916792949894
 31
0.0
100
AcDbAttribute
280
0
  2
XPOS
 70
0
  0
ATTRIB
  5
9D
330
17
100
AcDbEntity
  8
0
 62
4
100
AcDbText
 10
-30.483353209234494
 20
53.21750301981906
 30
0.0
 40
0.1482586785318643
  1
y = 54.000
 50
14.999999999999998
 11
-30.483353209234494
 21
53.21750301981906
 31
0.0
100
AcDbAttribute
280
0
  2
YPOS
 70
0
  0
SEQEND
  5
9A
330
99
100
AcDbEntity
  8
0
  0
INSERT
  5
9E
330
17
100
AcDbEntity
  8
0
100
AcDbBlockReference
 66
1
  2
FLAG
 10
-49.0
 20
-64.0
 30
0.0
 41
2.3499252543477285
 42
2.3499252543477285
 43
2.3499252543477285
 50
15.0
  0
ATTRIB
  5
A0
330
17
100
AcDbEntity
  8
0
 62
3
100
AcDbText
 10
-47.56097054829202
 20
-64.8308240413154
 30
0.0
 40
1.1749626271738642
  1
P(22)
 50
14.999999999999998
 11
-47.56097054829202
 21
-64.8308240413154
 31
0.0
100
AcDbAttribute
280
0
  2
NAME
 70
0
  0
ATTRIB
  5
A1
330
17
100
AcDbEntity
  8
0
 62
4
100
AcDbText
 10
-47.25686784309573
 20
-65.96575078782709
 30
0.0
 40
0.5874813135869321
  1
x = -49.000
 50
14.999999999999998
 11
-47.25686784309573
 21
-65.96575078782709
 31
0.0
100
AcDbAttribute
280
0
  2
XPOS
 70
0
  0
ATTRIB
  5
A2
330
17
100
AcDbEntity
  8
0
 62
4
100
AcDbText
 10
-46.95276513789945
 20
-67.10067753433879
 30
0.0
 40
0.5874813135869321
  1
y = -64.000
 50
14.999999999999998
 11
-46.95276513789945
 21
-67.10067753433879
 31
0.0
100
AcDbAttribute
280
0
  2
YPOS
 70
0
  0
SEQEND
  5
9F
330
9E
100
AcDbEntity
  8
0
  0
INSERT
  5
A3
330
17
100
AcDbEntity
  8
0
100
AcDbBlockReference
 66
1
  2
FLAG
 10
-54.0
 20
29.0
 30
0.0
 41
0.5107693513095226
 42
0.5107693513095226
 43
0.5107693513095226
 50
15.0
  0
ATTRIB
  5
A5
330
17
100
AcDbEntity
  8
0
 62
3
100
AcDbText
 10
-53.687218928259824
 20
28.81941576403339
 30
0.0
 40
0.2553846756547613
  1
P(23)
 50
14.999999999999998
 11
-53.687218928259824
 21
28.81941576403339
 31
0.0
100
AcDbAttribute
280
0
  2
NAME
 70
0
  0
ATTRIB
  5
A6
330
17
100
AcDbEntity
  8
0
 62
4
100
AcDbText
 10
-53.621120510373046
 20
28.57273311018
 30
0.0
 40
0.12769233782738065
  1
x = -54.000
 50
14.999999999999998
 11
-53.621120510373046
 21
28.57273311018
 31
0.0
100
AcDbAttribute
280
0
  2
XPOS
 70
0
  0
ATTRIB
  5
A7
330
17
100
AcDbEntity
  8
0
 62
4
100
AcDbText
 10
-53.55502209248626
 20
28.32605045632661
 30
0.0
 40
0.12769233782738065
  1
y = 29.000
 50
14.999999999999998
 11
-53.55502209248626
 21
28.32605045632661
 31
0.0
100
AcDbAttribute
280
0
  2
YPOS
 70
0
  0
SEQEND
  5
A4
330
A3
100
AcDbEntity
  8
0
  0
INSERT
  5
A8
330
17
100
AcDbEntity
  8
0
100
AcDbBlockReference
 66
1
  2
FLAG
 10
-93.0
 20
14.0
 30
0.0
 41
1.1839469088175592
 42
1.1839469088175592
 43
1.1839469088175592
 50
15.0
  0
ATTRIB
  5
AA
330
17
100
AcDbEntity
  8
0
 62
3
100
AcDbText
 10
-92.27498354771288
 20
13.581411556105126
 30
0.0
 40
0.5919734544087796
  1
P(24)
 50
14.999999999999996
 11
-92.27498354771288
 21
13.581411556105126
 31
0.0
100
AcDbAttribute
280
0
  2
NAME
 70
0
  0
ATTRIB
  5
AB
330
17
100
AcDbEntity
  8
0
 62
4
100
AcDbText
 10
-92.12176954351676
 20
13.009609108014132
 30
0.0
 40
0.2959867272043898
  1
x = -93.000
 50
14.999999999999996
 11
-92.12176954351676
 21
13.009609108014132
 31
0.0
100
AcDbAttribute
280
0
  2
XPOS
 70
0
  0
ATTRIB
  5
AC
330
17
100
AcDbEntity
  8
0
 62
4
100
AcDbText
 10
-91.96855553932065
 20
12.437806659923137
 30
0.0
 40
0.2959867272043898
  1
y = 14.000
 50
14.999999999999996
 11
-91.96855553932065
 21
12.437806659923137
 31
0.0
100
AcDbAttribute
280
0
  2
YPOS
 70
0
  0
SEQEND
  5
A9
330
A8
100
AcDbEntity
  8
0
  0
INSERT
  5
AD
330
17
100
AcDbEntity
  8
0
100
AcDbBlockReference
 66
1
  2
FLAG
 10
18.0
 20
2.0
 30
0.0
 41
2.3498589652240023
 42
2.3498589652240023
 43
2.3498589652240023
 50
15.0
  0
ATTRIB
  5
AF
330
17
100
AcDbEntity
  8
0
 62
3
100
AcDbText
 10
19.43898885807582
 20
1.169199395429052
 30
0.0
 40
1.1749294826120011
  1
P(25)
 50
14.999999999999996
 41
1.0000000000000002
 11
19.43898885807582
 21
1.169199395429052
 31
0.0
100
AcDbAttribute
280
0
  2
NAME
 70
0
  0
ATTRIB
  5
B0
330
17
100
AcDbEntity
  8
0
 62
4
100
AcDbText
 10
19.74308298482826
 20
0.03430466410566724
 30
0.0
 40
0.5874647413060006
  1
x = 18.000
 50
14.999999999999996
 41
1.0000000000000002
 11
19.74308298482826
 21
0.03430466410566724
 31
0.0
100
AcDbAttribute
280
0
  2
XPOS
 70
0
  0
ATTRIB
  5
B1
330
17
100
AcDbEntity
  8
0
 62
4
100
AcDbText
 10
20.047177111580694
 20
-1.1005900672177171
 30
0.0
 40
0.5874647413060006
  1
y = 2.000
 50
14.999999999999996
 41
1.0000000000000002
 11
20.047177111580694
 21
-1.1005900672177171
 31
0.0
100
AcDbAttribute
280
0
  2
YPOS
 70
0
  0
SEQEND
  5
AE
330
AD
100
AcDbEntity
  8
0
  0
INSERT
  5
B2
330
17
100
AcDbEntity
  8
0
100
AcDbBlockReference
 66
1
  2
FLAG
 10
68.0
 20
55.0
 30
0.0
 41
1.5644248418729416
 42
1.5644248418729416
 43
1.5644248418729416
 50
15.0
  0
ATTRIB
  5
B4
330
17
100
AcDbEntity
  8
0
 62
3
100
AcDbText
 10
68.95801065088074
 20
54.44689229282748
 30
0.0
 40
0.7822124209364708
  1
P(26)
 50
14.999999999999998
 11
68.95801065088074
 21
54.44689229282748
 31
0.0
100
AcDbAttribute
280
0
  2
NAME
 70
0
  0
ATTRIB
  5
B5
330
17
100
AcDbEntity
  8
0
 62
4
100
AcDbText
 10
69.16046212273486
 20
53.691333113800845
 30
0.0
 40
0.3911062104682354
  1
x = 68.000
 50
14.999999999999998
 11
69.16046212273486
 21
53.691333113800845
 31
0.0
100
AcDbAttribute
280
0
  2
XPOS
 70
0
  0
ATTRIB
  5
B6
330
17
100
AcDbEntity
  8
0
 62
4
100
AcDbText
 10
69.36291359458896
 20
52.93577393477421
 30
0.0
 40
0.3911062104682354
  1
y = 55.000
 50
14.999999999999998
 11
69.36291359458896
 21
52.93577393477421
 31
0.0
100
AcDbAttribute
280
0
  2
YPOS
 70
0
  0
SEQEND
  5
B3
330
B2
100
AcDbEntity
  8
0
  0
INSERT
  5
B7
330
17
100
AcDbEntity
  8
0
100
AcDbBlockReference
 66
1
  2
FLAG
 10
-34.0
 20
-74.0
 30
0.0
 41
2.010051868935916
 42
2.010051868935916
 43
2.010051868935916
 50
15.0
  0
ATTRIB
  5
B9
330
17
100
AcDbEntity
  8
0
 62
3
100
AcDbText
 10
-32.76909964114483
 20
-74.71066065353064
 30
0.0
 40
1.005025934467958
  1
P(27)
 50
14.999999999999998
 11
-32.76909964114483
 21
-74.71066065353064
 31
0.0
100
AcDbAttribute
280
0
  2
NAME
 70
0
  0
ATTRIB
  5
BA
330
17
100
AcDbEntity
  8
0
 62
4
100
AcDbText
 10
-32.50897978848256
 20
-75.68144115972355
 30
0.0
 40
0.502512967233979
  1
x = -34.000
 50
14.999999999999998
 11
-32.50897978848256
 21
-75.68144115972355
 31
0.0
100
AcDbAttribute
280
0
  2
XPOS
 70
0
  0
ATTRIB
  5
BB
330
17
100
AcDbEntity
  8
0
 62
4
100
AcDbText
 10
-32.2488599358203
 20
-76.65222166591646
 30
0.0
 40
0.502512967233979
  1
y = -74.000
 50
14.999999999999998
 11
-32.2488599358203
 21
-76.65222166591646
 31
0.0
100
AcDbAttribute
280
0
  2
YPOS
 70
0
  0
SEQEND
  5
B8
330
B7
100
AcDbEntity
  8
0
  0
INSERT
  5
BC
330
17
100
AcDbEntity
  8
0
100
AcDbBlockReference
 66
1
  2
FLAG
 10
-6.0
 20
69.0
 30
0.0
 41
0.545936577242307
 42
0.545936577242307
 43
0.545936577242307
 50
15.0
  0
ATTRIB
  5
BE
330
17
100
AcDbEntity
  8
0
 62
3
100
AcDbText
 10
-5.665683488458703
 20
68.8069822720671
 30
0.0
 40
0.2729682886211535
  1
P(28)
 50
14.999999999999998
 11
-5.665683488458703
 21
68.8069822720671
 31
0.0
100
AcDbAttribute
280
0
  2
NAME
 70
0
  0
ATTRIB
  5
BF
330
17
100
AcDbEntity
  8
0
 62
4
100
AcDbText
 10
-5.595034096654507
 20
68.54331515233
 30
0.0
 40
0.13648414431057676
  1
x = -6.000
 50
14.999999999999998
 11
-5.595034096654507
 21
68.54331515233
 31
0.0
100
AcDbAttribute
280
0
  2
XPOS
 70
0
  0
ATTRIB
  5
C0
330
17
100
AcDbEntity
  8
0
 62
4
100
AcDbText
 10
-5.524384704850311
 20
68.27964803259289
 30
0.0
 40
0.13648414431057676
  1
y = 69.000
 50
14.999999999999998
 11
-5.524384704850311
 21
68.27964803259289
 31
0.0
100
AcDbAttribute
280
0
  2
YPOS
 70
0
  0
SEQEND
  5
BD
330
BC
100
AcDbEntity
  8
0
  0
INSERT
  5
C1
330
17
100
AcDbEntity
  8
0
100
AcDbBlockReference
 66
1
  2
FLAG
 10
95.0
 20
-73.0
 30
0.0
 41
2.0902765773449827
 42
2.0902765773449827
 43
2.0902765773449827
 50
15.0
  0
ATTRIB
  5
C3
330
17
100
AcDbEntity
  8
0
 62
3
100
AcDbText
 10
96.28002775894662
 20
-73.73902437119803
 30
0.0
 40
1.0451382886724914
  1
P(29)
 50
14.999999999999998
 11
96.28002775894662
 21
-73.73902437119803
 31
0.0
100
AcDbAttribute
280
0
  2
NAME
 70
0
  0
ATTRIB
  5
C4
330
17
100
AcDbEntity
  8
0
 62
4
100
AcDbText
 10
96.55052945282091
 20
-74.74855043627034
 30
0.0
 40
0.5225691443362457
  1
x = 95.000
 50
14.999999999999998
 11
96.55052945282091
 21
-74.74855043627034
 31
0.0
100
AcDbAttribute
280
0
  2
XPOS
 70
0
  0
ATTRIB
  5
C5
330
17
100
AcDbEntity
  8
0
 62
4
100
AcDbText
 10
96.8210311466952
 20
-75.75807650134266
 30
0.0
 40
0.5225691443362457
  1
y = -73.000
 50
14.999999999999998
 11
96.8210311466952
 21
-75.75807650134266
 31
0.0
100
AcDbAttribute
280
0
  2
YPOS
 70
0
  0
SEQEND
  5
C2
330
C1
100
AcDbEntity
  8
0
  0
INSERT
  5
C6
330
17
100
AcDbEntity
  8
0
100
AcDbBlockReference
 66
1
  2
FLAG
 10
-92.0
 20
92.0
 30
0.0
 41
0.7923505078889499
 42
0.7923505078889499
 43
0.7923505078889499
 50
15.0
  0
ATTRIB
  5
C8
330
17
100
AcDbEntity
  8
0
 62
3
100
AcDbText
 10
-91.51478638955925
 20
91.71986179139756
 30
0.0
 40
0.39617525394447495
  1
P(30)
 50
14.999999999999998
 11
-91.51478638955925
 21
91.71986179139756
 31
0.0
100
AcDbAttribute
280
0
  2
NAME
 70
0
  0
ATTRIB
  5
C9
330
17
100
AcDbEntity
  8
0
 62
4
100
AcDbText
 10
-91.41224868864009
 20
91.33718588187597
 30
0.0
 40
0.19808762697223747
  1
x = -92.000
 50
14.999999999999998
 11
-91.41224868864009
 21
91.33718588187597
 31
0.0
100
AcDbAttribute
280
0
  2
XPOS
 70
0
  0
ATTRIB
  5
CA
330
17
100
AcDbEntity
  8
0
 62
4
100
AcDbText
 10
-91.30971098772093
 20
90.95450997235436
 30
0.0
 40
0.19808762697223747
  1
y = 92.000
 50
14.999999999999998
 11
-91.30971098772093
 21
90.95450997235436
 31
0.0
100
AcDbAttribute
280
0
  2
YPOS
 70
0
  0
SEQEND
  5
C7
330
C6
100
AcDbEntity
  8
0
  0
INSERT
  5
CB
330
17
100
AcDbEntity
  8
0
100
AcDbBlockReference
 66
1
  2
FLAG
 10
29.0
 20
68.0
 30
0.0
 41
1.1233578053622388
 42
1.1233578053622388
 43
1.1233578053622388
 50
15.0
  0
ATTRIB
  5
CD
330
17
100
AcDbEntity
  8
0
 62
3
100
AcDbText
 10
29.687913355427558
 20
67.60283303906476
 30
0.0
 40
0.5616789026811194
  1
P(31)
 50
14.999999999999998
 11
29.687913355427558
 21
67.60283303906476
 31
0.0
100
AcDbAttribute
280
0
  2
NAME
 70
0
  0
ATTRIB
  5
CE
330
17
100
AcDbEntity
  8
0
 62
4
100
AcDbText
 10
29.833286552673716
 20
67.06029288088337
 30
0.0
 40
0.2808394513405597
  1
x = 29.000
 50
14.999999999999998
 11
29.833286552673716
 21
67.06029288088337
 31
0.0
100
AcDbAttribute
280
0
  2
XPOS
 70
0
  0
ATTRIB
  5
CF
330
17
100
AcDbEntity
  8
0
 62
4
100
AcDbText
 10
29.978659749919874
 20
66.51775272270197
 30
0.0
 40
0.2808394513405597
  1
y = 68.000
 50
14.999999999999998
 11
29.978659749919874
 21
66.51775272270197
 31
0.0
100
AcDbAttribute
280
0
  2
YPOS
 70
0
  0
SEQEND
  5
CC
330
CB
100
AcDbEntity
  8
0
  0
INSERT
  5
D0
330
17
100
AcDbEntity
  8
0
100
AcDbBlockReference
 66
1
  2
FLAG
 10
-58.0
 20
63.0
 30
0.0
 41
0.6121964148264813
 42
0.6121964148264813
 43
0.6121964148264813
 50
15.0
  0
ATTRIB
  5
D2
330
17
100
AcDbEntity
  8
0
 62
3
100
AcDbText
 10
-57.62510779032848
 20
62.78355588182905
 30
0.0
 40
0.3060982074132407
  1
P(32)
 50
14.999999999999998
 11
-57.62510779032848
 21
62.78355588182905
 31
0.0
100
AcDbAttribute
280
0
  2
NAME
 70
0
  0
ATTRIB
  5
D3
330
17
100
AcDbEntity
  8
0
 62
4
100
AcDbText
 10
-57.545883744578184
 20
62.48788771790782
 30
0.0
 40
0.15304910370662034
  1
x = -58.000
 50
14.999999999999998
 11
-57.545883744578184
 21
62.48788771790782
 31
0.0
100
AcDbAttribute
280
0
  2
XPOS
 70
0
  0
ATTRIB
  5
D4
330
17
100
AcDbEntity
  8
0
 62
4
100
AcDbText
 10
-57.4666596988279
 20
62.192219553986575
 30
0.0
 40
0.15304910370662034
  1
y = 63.000
 50
14.999999999999998
 11
-57.4666596988279
 21
62.192219553986575
 31
0.0
100
AcDbAttribute
280
0
  2
YPOS
 70
0
  0
SEQEND
  5
D1
330
D0
100
AcDbEntity
  8
0
  0
INSERT
  5
D5
330
17
100
AcDbEntity
  8
0
100
AcDbBlockReference
 66
1
  2
FLAG
 10
-71.0
 20
51.0
 30
0.0
 41
2.1171812945682604
 42
2.1171812945682604
 43
2.1171812945682604
 50
15.0
  0
ATTRIB
  5
D7
330
17
100
AcDbEntity
  8
0
 62
3
100
AcDbText
 10
-69.70349653383566
 20
50.251463374804736
 30
0.0
 40
1.0585906472841302
  1
P(33)
 50
14.999999999999998
 11
-69.70349653383566
 21
50.251463374804736
 31
0.0
100
AcDbAttribute
280
0
  2
NAME
 70
0
  0
ATTRIB
  5
D8
330
17
100
AcDbEntity
  8
0
 62
4
100
AcDbText
 10
-69.42951311335112
 20
49.22894332912493
 30
0.0
 40
0.5292953236420651
  1
x = -71.000
 50
14.999999999999998
 11
-69.42951311335112
 21
49.22894332912493
 31
0.0
100
AcDbAttribute
280
0
  2
XPOS
 70
0
  0
ATTRIB
  5
D9
330
17
100
AcDbEntity
  8
0
 62
4
100
AcDbText
 10
-69.15552969286658
 20
48.206423283445126
 30
0.0
 40
0.5292953236420651
  1
y = 51.000
 50
14.999999999999998
 11
-69.15552969286658
 21
48.206423283445126
 31
0.0
100
AcDbAttribute
280
0
  2
YPOS
 70
0
  0
SEQEND
  5
D6
330
D5
100
AcDbEntity
  8
0
  0
INSERT
  5
DA
330
17
100
AcDbEntity
  8
0
100
AcDbBlockReference
 66
1
  2
FLAG
 10
99.0
 20
33.0
 30
0.0
 41
0.6226826912546872
 42
0.6226826912546872
 43
0.6226826912546872
 50
15.0
  0
ATTRIB
  5
DC
330
17
100
AcDbEntity
  8
0
 62
3
100
AcDbText
 10
99.38131371630925
 20
32.77984842324316
 30
0.0
 40
0.3113413456273436
  1
P(34)
 50
14.999999999999998
 11
99.38131371630925
 21
32.77984842324316
 31
0.0
100
AcDbAttribute
280
0
  2
NAME
 70
0
  0
ATTRIB
  5
DD
330
17
100
AcDbEntity
  8
0
 62
4
100
AcDbText
 10
99.46189478608545
 20
32.47911577671012
 30
0.0
 40
0.1556706728136718
  1
x = 99.000
 50
14.999999999999998
 11
99.46189478608545
 21
32.47911577671012
 31
0.0
100
AcDbAttribute
280
0
  2
XPOS
 70
0
  0
ATTRIB
  5
DE
330
17
100
AcDbEntity
  8
0
 62
4
100
AcDbText
 10
99.54247585586165
 20
32.178383130177075
 30
0.0
 40
0.1556706728136718
  1
y = 33.000
 50
14.999999999999998
 11
99.54247585586165
 21
32.178383130177075
 31
0.0
100
AcDbAttribute
280
0
  2
YPOS
 70
0
  0
SEQEND
  5
DB
330
DA
100
AcDbEntity
  8
0
  0
INSERT
  5
DF
330
17
100
AcDbEntity
  8
0
100
AcDbBlockReference
 66
1
  2
FLAG
 10
18.0
 20
-26.0
 30
0.0
 41
0.797359763898368
 42
0.797359763898368
 43
0.797359763898368
 50
15.0
  0
ATTRIB
  5
E1
330
17
100
AcDbEntity
  8
0
 62
3
100
AcDbText
 10
18.488281140744267
 20
-26.28190924804892
 30
0.0
 40
0.398679881949184
  1
P(35)
 50
14.999999999999998
 11
18.488281140744267
 21
-26.28190924804892
 31
0.0
100
AcDbAttribute
280
0
  2
NAME
 70
0
  0
ATTRIB
  5
E2
330
17
100
AcDbEntity
  8
0
 62
4
100
AcDbText
 10
18.591467087091942
 20
-26.667004442445513
 30
0.0
 40
0.199339940974592
  1
x = 18.000
 50
14.999999999999998
 11
18.591467087091942
 21
-26.667004442445513
 31
0.0
100
AcDbAttribute
280
0
  2
XPOS
 70
0
  0
ATTRIB
  5
E3
330
17
100
AcDbEntity
  8
0
 62
4
100
AcDbText
 10
18.694653033439614
 20
-27.052099636842108
 30
0.0
 40
0.199339940974592
  1
y = -26.000
 50
14.999999999999998
 11
18.694653033439614
 21
-27.052099636842108
 31
0.0
100
AcDbAttribute
280
0
  2
YPOS
 70
0
  0
SEQEND
  5
E0
330
DF
100
AcDbEntity
  8
0
  0
INSERT
  5
E4
330
17
100
AcDbEntity
  8
0
100
AcDbBlockReference
 66
1
  2
FLAG
 10
-81.0
 20
-86.0
 30
0.0
 41
1.2240155737250766
 42
1.2240155737250766
 43
1.2240155737250766
 50
15.0
  0
ATTRIB
  5
E6
330
17
100
AcDbEntity
  8
0
 62
3
100
AcDbText
 10
-80.25044660178838
 20
-86.43275485622947
 30
0.0
 40
0.6120077868625383
  1
P(36)
 50
14.999999999999998
 11
-80.25044660178838
 21
-86.43275485622947
 31
0.0
100
AcDbAttribute
280
0
  2
NAME
 70
0
  0
ATTRIB
  5
E7
330
17
100
AcDbEntity
  8
0
 62
4
100
AcDbText
 10
-80.09204733079731
 20
-87.02390898345001
 30
0.0
 40
0.30600389343126916
  1
x = -81.000
 50
14.999999999999998
 11
-80.09204733079731
 21
-87.02390898345001
 31
0.0
100
AcDbAttribute
280
0
  2
XPOS
 70
0
  0
ATTRIB
  5
E8
330
17
100
AcDbEntity
  8
0
 62
4
100
AcDbText
 10
-79.93364805980625
 20
-87.61506311067055
 30
0.0
 40
0.30600389343126916
  1
y = -86.000
 50
14.999999999999998
 11
-79.93364805980625
 21
-87.61506311067055
 31
0.0
100
AcDbAttribute
280
0
  2
YPOS
 70
0
  0
SEQEND
  5
E5
330
E4
100
AcDbEntity
  8
0
  0
INSERT
  5
E9
330
17
100
AcDbEntity
  8
0
100
AcDbBlockReference
 66
1
  2
FLAG
 10
-4.0
 20
-46.0
 30
0.0
 41
1.1905573231258963
 42
1.1905573231258963
 43
1.1905573231258963
 50
15.0
  0
ATTRIB
  5
EB
330
17
100
AcDbEntity
  8
0
 62
3
100
AcDbText
 10
-3.27093551220193
 20
-46.42092557828681
 30
0.0
 40
0.5952786615629482
  1
P(37)
 50
14.999999999999998
 11
-3.27093551220193
 21
-46.42092557828681
 31
0.0
100
AcDbAttribute
280
0
  2
NAME
 70
0
  0
ATTRIB
  5
EC
330
17
100
AcDbEntity
  8
0
 62
4
100
AcDbText
 10
-3.116866057446301
 20
-46.995920611329254
 30
0.0
 40
0.2976393307814741
  1
x = -4.000
 50
14.999999999999998
 11
-3.116866057446301
 21
-46.995920611329254
 31
0.0
100
AcDbAttribute
280
0
  2
XPOS
 70
0
  0
ATTRIB
  5
ED
330
17
100
AcDbEntity
  8
0
 62
4
100
AcDbText
 10
-2.962796602690672
 20
-47.570915644371695
 30
0.0
 40
0.2976393307814741
  1
y = -46.000
 50
14.999999999999998
 11
-2.962796602690672
 21
-47.570915644371695
 31
0.0
100
AcDbAttribute
280
0
  2
YPOS
 70
0
  0
SEQEND
  5
EA
330
E9
100
AcDbEntity
  8
0
  0
INSERT
  5
EE
330
17
100
AcDbEntity
  8
0
100
AcDbBlockReference
 66
1
  2
FLAG
 10
-30.0
 20
-58.0
 30
0.0
 41
2.387643885980178
 42
2.387643885980178
 43
2.387643885980178
 50
15.0
  0
ATTRIB
  5
F0
330
17
100
AcDbEntity
  8
0
 62
3
100
AcDbText
 10
-28.537872697968147
 20
-58.84415959141759
 30
0.0
 40
1.193821942990089
  1
P(38)
 50
15.000000000000002
 11
-28.537872697968147
 21
-58.84415959141759
 31
0.0
100
AcDbAttribute
280
0
  2
NAME
 70
0
  0
ATTRIB
  5
F1
330
17
100
AcDbEntity
  8
0
 62
4
100
AcDbText
 10
-28.228888842661014
 20
-59.99730303814231
 30
0.0
 40
0.5969109714950445
  1
x = -30.000
 50
15.000000000000002
 11
-28.228888842661014
 21
-59.99730303814231
 31
0.0
100
AcDbAttribute
280
0
  2
XPOS
 70
0
  0
ATTRIB
  5
F2
330
17
100
AcDbEntity
  8
0
 62
4
100
AcDbText
 10
-27.919904987353885
 20
-61.15044648486704
 30
0.0
 40
0.5969109714950445
  1
y = -58.000
 50
15.000000000000002
 11
-27.919904987353885
 21
-61.15044648486704
 31
0.0
100
AcDbAttribute
280
0
  2
YPOS
 70
0
  0
SEQEND
  5
EF
330
EE
100
AcDbEntity
  8
0
  0
INSERT
  5
F3
330
17
100
AcDbEntity
  8
0
100
AcDbBlockReference
 66
1
  2
FLAG
 10
-54.0
 20
-54.0
 30
0.0
 41
1.104614906406214
 42
1.104614906406214
 43
1.104614906406214
 50
15.0
  0
ATTRIB
  5
F5
330
17
100
AcDbEntity
  8
0
 62
3
100
AcDbText
 10
-53.32356427925814
 20
-54.39054034545979
 30
0.0
 40
0.5523074532031069
  1
P(39)
 50
15.000000000000002
 41
1.0000000000000002
 11
-53.32356427925814
 21
-54.39054034545979
 31
0.0
100
AcDbAttribute
280
0
  2
NAME
 70
0
  0
ATTRIB
  5
F6
330
17
100
AcDbEntity
  8
0
 62
4
100
AcDbText
 10
-53.18061659161711
 20
-54.924028378560614
 30
0.0
 40
0.27615372660155346
  1
x = -54.000
 50
15.000000000000002
 41
1.0000000000000002
 11
-53.18061659161711
 21
-54.924028378560614
 31
0.0
100
AcDbAttribute
280
0
  2
XPOS
 70
0
  0
ATTRIB
  5
F7
330
17
100
AcDbEntity
  8
0
 62
4
100
AcDbText
 10
-53.037668903976076
 20
-55.45751641166143
 30
0.0
 40
0.27615372660155346
  1
y = -54.000
 50
15.000000000000002
 41
1.0000000000000002
 11
-53.037668903976076
 21
-55.45751641166143
 31
0.0
100
AcDbAttribute
280
0
  2
YPOS
 70
0
  0
SEQEND
  5
F4
330
F3
100
AcDbEntity
  8
0
  0
INSERT
  5
F8
330
17
100
AcDbEntity
  8
0
100
AcDbBlockReference
 66
1
  2
FLAG
 10
-42.0
 20
-7.0
 30
0.0
 41
1.8648407048044875
 42
1.8648407048044875
 43
1.8648407048044875
 50
15.0
  0
ATTRIB
  5
FA
330
17
100
AcDbEntity
  8
0
 62
3
100
AcDbText
 10
-40.858022955414214
 20
-7.659320754099977
 30
0.0
 40
0.9324203524022437
  1
P(40)
 50
14.999999999999998
 11
-40.858022955414214
 21
-7.659320754099977
 31
0.0
100
AcDbAttribute
280
0
  2
NAME
 70
0
  0
ATTRIB
  5
FB
330
17
100
AcDbEntity
  8
0
 62
4
100
AcDbText
 10
-40.61669481017131
 20
-8.559969653442858
 30
0.0
 40
0.4662101762011219
  1
x = -42.000
 50
14.999999999999998
 11
-40.61669481017131
 21
-8.559969653442858
 31
0.0
100
AcDbAttribute
280
0
  2
XPOS
 70
0
  0
ATTRIB
  5
FC
330
17
100
AcDbEntity
  8
0
 62
4
100
AcDbText
 10
-40.37536666492841
 20
-9.46061855278574
 30
0.0
 40
0.4662101762011219
  1
y = -7.000
 50
14.999999999999998
 11
-40.37536666492841
 21
-9.46061855278574
 31
0.0
100
AcDbAttribute
280
0
  2
YPOS
 70
0
  0
SEQEND
  5
F9
330
F8
100
AcDbEntity
  8
0
  0
INSERT
  5
FD
330
17
100
AcDbEntity
  8
0
100
AcDbBlockReference
 66
1
  2
FLAG
 10
-70.0
 20
87.0
 30
0.0
 41
2.3635211895678743
 42
2.3635211895678743
 43
2.3635211895678743
 50
15.0
  0
ATTRIB
  5
FF
330
17
100
AcDbEntity
  8
0
 62
3
100
AcDbText
 10
-68.55264477232569
 20
86.16436906968923
 30
0.0
 40
1.1817605947839371
  1
P(41)
 50
14.999999999999998
 11
-68.55264477232569
 21
86.16436906968923
 31
0.0
100
AcDbAttribute
280
0
  2
NAME
 70
0
  0
ATTRIB
  5
100
330
17
100
AcDbEntity
  8
0
 62
4
100
AcDbText
 10
-68.24678262364394
 20
85.02287599069669
 30
0.0
 40
0.5908802973919686
  1
x = -70.000
 50
14.999999999999998
 11
-68.24678262364394
 21
85.02287599069669
 31
0.0
100
AcDbAttribute
280
0
  2
XPOS
 70
0
  0
ATTRIB
  5
101
330
17
100
AcDbEntity
  8
0
 62
4
100
AcDbText
 10
-67.94092047496217
 20
83.88138291170416
 30
0.0
 40
0.5908802973919686
  1
y = 87.000
 50
14.999999999999998
 11
-67.94092047496217
 21
83.88138291170416
 31
0.0
100
AcDbAttribute
280
0
  2
YPOS
 70
0
  0
SEQEND
  5
FE
330
FD
100
AcDbEntity
  8
0
  0
INSERT
  5
102
330
17
100
AcDbEntity
  8
0
100
AcDbBlockReference
 66
1
  2
FLAG
 10
-4.0
 20
-23.0
 30
0.0
 41
1.327766961518477
 42
1.327766961518477
 43
1.327766961518477
 50
15.0
  0
ATTRIB
  5
104
330
17
100
AcDbEntity
  8
0
 62
3
100
AcDbText
 10
-3.186912111738526
 20
-23.469436511162588
 30
0.0
 40
0.6638834807592385
  1
P(42)
 50
14.999999999999998
 11
-3.186912111738526
 21
-23.469436511162588
 31
0.0
100
AcDbAttribute
280
0
  2
NAME
 70
0
  0
ATTRIB
  5
105
330
17
100
AcDbEntity
  8
0
 62
4
100
AcDbText
 10
-3.015086423189082
 20
-24.110698710874615
 30
0.0
 40
0.33194174037961927
  1
x = -4.000
 50
14.999999999999998
 11
-3.015086423189082
 21
-24.110698710874615
 31
0.0
100
AcDbAttribute
280
0
  2
XPOS
 70
0
  0
ATTRIB
  5
106
330
17
100
AcDbEntity
  8
0
 62
4
100
AcDbText
 10
-2.8432607346396384
 20
-24.751960910586646
 30
0.0
 40
0.33194174037961927
  1
y = -23.000
 50
14.999999999999998
 11
-2.8432607346396384
 21
-24.751960910586646
 31
0.0
100
AcDbAttribute
280
0
  2
YPOS
 70
0
  0
SEQEND
  5
103
330
102
100
AcDbEntity
  8
0
  0
INSERT
  5
107
330
17
100
AcDbEntity
  8
0
100
AcDbBlockReference
 66
1
  2
FLAG
 10
9.0
 20
-16.0
 30
0.0
 41
2.214186894804442
 42
2.214186894804442
 43
2.214186894804442
 50
15.0
  0
ATTRIB
  5
109
330
17
100
AcDbEntity
  8
0
 62
3
100
AcDbText
 10
10.355907021857103
 20
-16.7828332840653
 30
0.0
 40
1.107093447402221
  1
P(43)
 50
14.999999999999998
 11
10.355907021857103
 21
-16.7828332840653
 31
0.0
100
AcDbAttribute
280
0
  2
NAME
 70
0
  0
ATTRIB
  5
10A
330
17
100
AcDbEntity
  8
0
 62
4
100
AcDbText
 10
10.642443890753004
 20
-17.852203437026507
 30
0.0
 40
0.5535467237011105
  1
x = 9.000
 50
14.999999999999998
 11
10.642443890753004
 21
-17.852203437026507
 31
0.0
100
AcDbAttribute
280
0
  2
XPOS
 70
0
  0
ATTRIB
  5
10B
330
17
100
AcDbEntity
  8
0
 62
4
100
AcDbText
 10
10.928980759648905
 20
-18.92157358998771
 30
0.0
 40
0.5535467237011105
  1
y = -16.000
 50
14.999999999999998
 11
10.928980759648905
 21
-18.92157358998771
 31
0.0
100
AcDbAttribute
280
0
  2
YPOS
 70
0
  0
SEQEND
  5
108
330
107
100
AcDbEntity
  8
0
  0
INSERT
  5
10C
330
17
100
AcDbEntity
  8
0
100
AcDbBlockReference
 66
1
  2
FLAG
 10
-19.0
 20
22.0
 30
0.0
 41
1.5112549596048899
 42
1.5112549596048899
 43
1.5112549596048899
 50
15.0
  0
ATTRIB
  5
10E
330
17
100
AcDbEntity
  8
0
 62
3
100
AcDbText
 10
-18.074549119429403
 20
21.46569068498079
 30
0.0
 40
0.7556274798024449
  1
P(44)
 50
14.999999999999998
 11
-18.074549119429403
 21
21.46569068498079
 31
0.0
100
AcDbAttribute
280
0
  2
NAME
 70
0
  0
ATTRIB
  5
10F
330
17
100
AcDbEntity
  8
0
 62
4
100
AcDbText
 10
-17.87897833665371
 20
20.735810587185888
 30
0.0
 40
0.37781373990122247
  1
x = -19.000
 50
14.999999999999998
 11
-17.87897833665371
 21
20.735810587185888
 31
0.0
100
AcDbAttribute
280
0
  2
XPOS
 70
0
  0
ATTRIB
  5
110
330
17
100
AcDbEntity
  8
0
 62
4
100
AcDbText
 10
-17.68340755387802
 20
20.005930489390984
 30
0.0
 40
0.37781373990122247
  1
y = 22.000
 50
14.999999999999998
 11
-17.68340755387802
 21
20.005930489390984
 31
0.0
100
AcDbAttribute
280
0
  2
YPOS
 70
0
  0
SEQEND
  5
10D
330
10C
100
AcDbEntity
  8
0
  0
INSERT
  5
111
330
17
100
AcDbEntity
  8
0
100
AcDbBlockReference
 66
1
  2
FLAG
 10
94.0
 20
-30.0
 30
0.0
 41
1.754118942577049
 42
1.754118942577049
 43
1.754118942577049
 50
15.0
  0
ATTRIB
  5
113
330
17
100
AcDbEntity
  8
0
 62
3
100
AcDbText
 10
95.07417408936604
 20
-30.620174699652004
 30
0.0
 40
0.8770594712885245
  1
P(45)
 50
14.999999999999998
 11
95.07417408936604
 21
-30.620174699652004
 31
0.0
100
AcDbAttribute
280
0
  2
NAME
 70
0
  0
ATTRIB
  5
114
330
17
100
AcDbEntity
  8
0
 62
4
100
AcDbText
 10
95.30117378422305
 20
-31.467349094161026
 30
0.0
 40
0.43852973564426223
  1
x = 94.000
 50
14.999999999999998
 11
95.30117378422305
 21
-31.467349094161026
 31
0.0
100
AcDbAttribute
280
0
  2
XPOS
 70
0
  0
ATTRIB
  5
115
330
17
100
AcDbEntity
  8
0
 62
4
100
AcDbText
 10
95.52817347908007
 20
-32.31452348867005
 30
0.0
 40
0.43852973564426223
  1
y = -30.000
 50
14.999999999999998
 11
95.52817347908007
 21
-32.31452348867005
 31
0.0
100
AcDbAttribute
280
0
  2
YPOS
 70
0
  0
SEQEND
  5
112
330
111
100
AcDbEntity
  8
0
  0
INSERT
  5
116
330
17
100
AcDbEntity
  8
0
100
AcDbBlockReference
 66
1
  2
FLAG
 10
0.0
 20
-89.0
 30
0.0
 41
1.4664621196501328
 42
1.4664621196501328
 43
1.4664621196501328
 50
15.0
  0
ATTRIB
  5
118
330
17
100
AcDbEntity
  8
0
 62
3
100
AcDbText
 10
0.8980209800657695
 20
-89.5184726545789
 30
0.0
 40
0.7332310598250664
  1
P(46)
 50
14.999999999999998
 11
0.8980209800657695
 21
-89.5184726545789
 31
0.0
100
AcDbAttribute
280
0
  2
NAME
 70
0
  0
ATTRIB
  5
119
330
17
100
AcDbEntity
  8
0
 62
4
100
AcDbText
 10
1.0877951428092025
 20
-90.22671947190123
 30
0.0
 40
0.3666155299125332
  1
x = 0.000
 50
14.999999999999998
 11
1.0877951428092025
 21
-90.22671947190123
 31
0.0
100
AcDbAttribute
280
0
  2
XPOS
 70
0
  0
ATTRIB
  5
11A
330
17
100
AcDbEntity
  8
0
 62
4
100
AcDbText
 10
1.2775693055526354
 20
-90.93496628922358
 30
0.0
 40
0.3666155299125332
  1
y = -89.000
 50
14.999999999999998
 11
1.2775693055526354
 21
-90.93496628922358
 31
0.0
100
AcDbAttribute
280
0
  2
YPOS
 70
0
  0
SEQEND
  5
117
330
116
100
AcDbEntity
  8
0
  0
INSERT
  5
11B
330
17
100
AcDbEntity
  8
0
100
AcDbBlockReference
 66
1
  2
FLAG
 10
15.0
 20
-75.0
 30
0.0
 41
1.4311539376837747
 42
1.4311539376837747
 43
1.4311539376837747
 50
15.0
  0
ATTRIB
  5
11D
330
17
100
AcDbEntity
  8
0
 62
3
100
AcDbText
 10
15.87639922267504
 20
-75.50598932712902
 30
0.0
 40
0.7155769688418875
  1
P(47)
 50
14.999999999999998
 11
15.87639922267504
 21
-75.50598932712902
 31
0.0
100
AcDbAttribute
280
0
  2
NAME
 70
0
  0
ATTRIB
  5
11E
330
17
100
AcDbEntity
  8
0
 62
4
100
AcDbText
 10
16.061604170448053
 20
-76.19718360203105
 30
0.0
 40
0.35778848442094374
  1
x = 15.000
 50
14.999999999999998
 11
16.061604170448053
 21
-76.19718360203105
 31
0.0
100
AcDbAttribute
280
0
  2
XPOS
 70
0
  0
ATTRIB
  5
11F
330
17
100
AcDbEntity
  8
0
 62
4
100
AcDbText
 10
16.246809118221066
 20
-76.88837787693306
 30
0.0
 40
0.35778848442094374
  1
y = -75.000
 50
14.999999999999998
 11
16.246809118221066
 21
-76.88837787693306
 31
0.0
100
AcDbAttribute
280
0
  2
YPOS
 70
0
  0
SEQEND
  5
11C
330
11B
100
AcDbEntity
  8
0
  0
INSERT
  5
120
330
17
100
AcDbEntity
  8
0
100
AcDbBlockReference
 66
1
  2
FLAG
 10
-38.0
 20
77.0
 30
0.0
 41
0.7941387743818333
 42
0.7941387743818333
 43
0.7941387743818333
 50
15.0
  0
ATTRIB
  5
122
330
17
100
AcDbEntity
  8
0
 62
3
100
AcDbText
 10
-37.51369130445132
 20
76.71922954371571
 30
0.0
 40
0.39706938719091667
  1
P(48)
 50
14.999999999999998
 11
-37.51369130445132
 21
76.71922954371571
 31
0.0
100
AcDbAttribute
280
0
  2
NAME
 70
0
  0
ATTRIB
  5
123
330
17
100
AcDbEntity
  8
0
 62
4
100
AcDbText
 10
-37.41092218481913
 20
76.33568996779924
 30
0.0
 40
0.19853469359545833
  1
x = -38.000
 50
14.999999999999998
 11
-37.41092218481913
 21
76.33568996779924
 31
0.0
100
AcDbAttribute
280
0
  2
XPOS
 70
0
  0
ATTRIB
  5
124
330
17
100
AcDbEntity
  8
0
 62
4
100
AcDbText
 10
-37.30815306518693
 20
75.95215039188275
 30
0.0
 40
0.19853469359545833
  1
y = 77.000
 50
14.999999999999998
 11
-37.30815306518693
 21
75.95215039188275
 31
0.0
100
AcDbAttribute
280
0
  2
YPOS
 70
0
  0
SEQEND
  5
121
330
120
100
AcDbEntity
  8
0
  0
INSERT
  5
125
330
17
100
AcDbEntity
  8
0
100
AcDbBlockReference
 66
1
  2
FLAG
 10
79.0
 20
62.0
 30
0.0
 41
2.2116131023159955
 42
2.2116131023159955
 43
2.2116131023159955
 50
15.0
  0
ATTRIB
  5
127
330
17
100
AcDbEntity
  8
0
 62
3
100
AcDbText
 10
80.35433090228197
 20
61.21807668899567
 30
0.0
 40
1.1058065511579978
  1
P(49)
 50
14.999999999999998
 41
1.0000000000000002
 11
80.35433090228197
 21
61.21807668899567
 31
0.0
100
AcDbAttribute
280
0
  2
NAME
 70
0
  0
ATTRIB
  5
128
330
17
100
AcDbEntity
  8
0
 62
4
100
AcDbText
 10
80.6405346979208
 20
60.14994958235252
 30
0.0
 40
0.5529032755789989
  1
x = 79.000
 50
14.999999999999998
 41
1.0000000000000002
 11
80.6405346979208
 21
60.14994958235252
 31
0.0
100
AcDbAttribute
280
0
  2
XPOS
 70
0
  0
ATTRIB
  5
129
330
17
100
AcDbEntity
  8
0
 62
4
100
AcDbText
 10
80.92673849355963
 20
59.081822475709366
 30
0.0
 40
0.5529032755789989
  1
y = 62.000
 50
14.999999999999998
 41
1.0000000000000002
 11
80.92673849355963
 21
59.081822475709366
 31
0.0
100
AcDbAttribute
280
0
  2
YPOS
 70
0
  0
SEQEND
  5
126
330
125
100
AcDbEntity
  8
0
  0
INSERT
  5
12A
330
17
100
AcDbEntity
  8
0
100
AcDbBlockReference
 66
1
  2
FLAG
 10
99.0
 20
-68.0
 30
0.0
 41
0.7785367467496072
 42
0.7785367467496072
 43
0.7785367467496072
 50
15.0
  0
ATTRIB
  5
12C
330
17
100
AcDbEntity
  8
0
 62
3
100
AcDbText
 10
99.47675444388574
 20
-68.27525430651478
 30
0.0
 40
0.3892683733748036
  1
P(50)
 50
14.999999999999998
 11
99.47675444388574
 21
-68.27525430651478
 31
0.0
100
AcDbAttribute
280
0
  2
NAME
 70
0
  0
ATTRIB
  5
12D
330
17
100
AcDbEntity
  8
0
 62
4
100
AcDbText
 10
99.57750451257121
 20
-68.65125868171503
 30
0.0
 40
0.1946341866874018
  1
x = 99.000
 50
14.999999999999998
 11
99.57750451257121
 21
-68.65125868171503
 31
0.0
100
AcDbAttribute
280
0
  2
XPOS
 70
0
  0
ATTRIB
  5
12E
330
17
100
AcDbEntity
  8
0
 62
4
100
AcDbText
 10
99.6782545812567
 20
-69.0272630569153
 30
0.0
 40
0.1946341866874018
  1
y = -68.000
 50
14.999999999999998
 11
99.6782545812567
 21
-69.0272630569153
 31
0.0
100
AcDbAttribute
280
0
  2
YPOS
 70
0
  0
SEQEND
  5
12B
330
12A
100
AcDbEntity
  8
0
  0
ENDSEC
  0
SECTION
  2
OBJECTS
  0
DICTIONARY
  5
A
330
0
100
AcDbDictionary
280
0
281
1
  3
ACAD_COLOR
350
B
  3
ACAD_GROUP
350
C
  3
ACAD_LAYOUT
350
D
  3
ACAD_MATERIAL
350
E
  3
ACAD_MLEADERSTYLE
350
F
  3
ACAD_MLINESTYLE
350
10
  3
ACAD_PLOTSETTINGS
350
11
  3
ACAD_PLOTSTYLENAME
350
12
  3
ACAD_SCALELIST
350
14
  3
ACAD_TABLESTYLE
350
15
  3
ACAD_VISUALSTYLE
350
16
  3
EZDXF_META
350
2D
  0
DICTIONARY
  5
B
330
A
100
AcDbDictionary
280
0
281
1
  0
DICTIONARY
  5
C
330
A
100
AcDbDictionary
280
0
281
1
  0
DICTIONARY
  5
D
330
A
100
AcDbDictionary
280
0
281
1
  3
Model
350
1A
  3
Layout1
350
1E
  0
DICTIONARY
  5
E
330
A
100
AcDbDictionary
280
0
281
1
  3
ByBlock
350
1F
  3
ByLayer
350
20
  3
Global
350
21
  0
DICTIONARY
  5
F
330
A
100
AcDbDictionary
280
0
281
1
  3
Standard
350
2C
  0
DICTIONARY
  5
10
330
A
100
AcDbDictionary
280
0
281
1
  3
Standard
350
22
  0
DICTIONARY
  5
11
330
A
100
AcDbDictionary
280
0
281
1
  0
ACDBDICTIONARYWDFLT
  5
12
330
A
100
AcDbDictionary
280
0
281
1
  3
Normal
350
13
100
AcDbDictionaryWithDefault
340
13
  0
ACDBPLACEHOLDER
  5
13
330
12
  0
DICTIONARY
  5
14
330
A
100
AcDbDictionary
280
0
281
1
  0
DICTIONARY
  5
15
330
A
100
AcDbDictionary
280
0
281
1
  0
DICTIONARY
  5
16
330
A
100
AcDbDictionary
280
0
281
1
  0
LAYOUT
  5
1A
330
D
100
AcDbPlotSettings
  1

  2
Adobe PDF
  4
A3
  6

 40
7.5
 41
20.0
 42
7.5
 43
20.0
 44
420.0
 45
297.0
 46
0.0
 47
0.0
 48
0.0
 49
0.0
140
0.0
141
0.0
142
1.0
143
1.0
 70
1024
 72
1
 73
0
 74
5
  7

 75
16
 76
0
 77
2
 78
300
147
1.0
148
0.0
149
0.0
100
AcDbLayout
  1
Model
 70
1
 71
0
 10
0.0
 20
0.0
 11
420.0
 21
297.0
 12
0.0
 22
0.0
 32
0.0
 14
1e+20
 24
1e+20
 34
1e+20
 15
-1e+20
 25
-1e+20
 35
-1e+20
146
0.0
 13
0.0
 23
0.0
 33
0.0
 16
1.0
 26
0.0
 36
0.0
 17
0.0
 27
1.0
 37
0.0
 76
1
330
17
  0
LAYOUT
  5
1E
330
D
100
AcDbPlotSettings
  1

  2
Adobe PDF
  4
A3
  6

 40
7.5
 41
20.0
 42
7.5
 43
20.0
 44
420.0
 45
297.0
 46
0.0
 47
0.0
 48
0.0
 49
0.0
140
0.0
141
0.0
142
1.0
143
1.0
 70
0
 72
1
 73
0
 74
5
  7

 75
16
 76
0
 77
2
 78
300
147
1.0
148
0.0
149
0.0
100
AcDbLayout
  1
Layout1
 70
1
 71
1
 10
0.0
 20
0.0
 11
420.0
 21
297.0
 12
0.0
 22
0.0
 32
0.0
 14
1e+20
 24
1e+20
 34
1e+20
 15
-1e+20
 25
-1e+20
 35
-1e+20
146
0.0
 13
0.0
 23
0.0
 33
0.0
 16
1.0
 26
0.0
 36
0.0
 17
0.0
 27
1.0
 37
0.0
 76
1
330
1B
  0
MATERIAL
  5
1F
102
{ACAD_REACTORS
330
E
102
}
330
E
100
AcDbMaterial
  1
ByBlock
  2

 70
0
 40
1.0
 71
1
 41
1.0
 91
-1023410177
 42
1.0
 72
1
  3

 73
1
 74
1
 75
1
 44
0.5
 73
0
 45
1.0
 46
1.0
 77
1
  4

 78
1
 79
1
170
1
 48
1.0
171
1
  6

172
1
173
1
174
1
140
1.0
141
1.0
175
1
  7

176
1
177
1
178
1
143
1.0
179
1
  8

270
1
271
1
272
1
145
1.0
146
1.0
273
1
  9

274
1
275
1
276
1
 42
1.0
 72
1
  3

 73
1
 74
1
 75
1
 94
63
  0
MATERIAL
  5
20
102
{ACAD_REACTORS
330
E
102
}
330
E
100
AcDbMaterial
  1
ByLayer
  2

 70
0
 40
1.0
 71
1
 41
1.0
 91
-1023410177
 42
1.0
 72
1
  3

 73
1
 74
1
 75
1
 44
0.5
 73
0
 45
1.0
 46
1.0
 77
1
  4

 78
1
 79
1
170
1
 48
1.0
171
1
  6

172
1
173
1
174
1
140
1.0
141
1.0
175
1
  7

176
1
177
1
178
1
143
1.0
179
1
  8

270
1
271
1
272
1
145
1.0
146
1.0
273
1
  9

274
1
275
1
276
1
 42
1.0
 72
1
  3

 73
1
 74
1
 75
1
 94
63
  0
MATERIAL
  5
21
102
{ACAD_REACTORS
330
E
102
}
330
E
100
AcDbMaterial
  1
Global
  2

 70
0
 40
1.0
 71
1
 41
1.0
 91
-1023410177
 42
1.0
 72
1
  3

 73
1
 74
1
 75
1
 44
0.5
 73
0
 45
1.0
 46
1.0
 77
1
  4

 78
1
 79
1
170
1
 48
1.0
171
1
  6

172
1
173
1
174
1
140
1.0
141
1.0
175
1
  7

176
1
177
1
178
1
143
1.0
179
1
  8

270
1
271
1
272
1
145
1.0
146
1.0
273
1
  9

274
1
275
1
276
1
 42
1.0
 72
1
  3

 73
1
 74
1
 75
1
 94
63
  0
MLINESTYLE
  5
22
102
{ACAD_REACTORS
330
10
102
}
330
10
100
AcDbMlineStyle
  2
Standard
 70
0
  3

 62
256
 51
90.0
 52
90.0
 71
2
 49
0.5
 62
256
  6
BYLAYER
 49
-0.5
 62
256
  6
BYLAYER
  0
MLEADERSTYLE
  5
2C
102
{ACAD_REACTORS
330
F
102
}
330
F
100
AcDbMLeaderStyle
179
2
170
2
171
1
172
0
 90
2
 40
0.0
 41
0.0
173
1
 91
-1056964608
 92
-2
290
1
 42
2.0
291
1
 43
8.0
  3
Standard
 44
4.0
300

342
29
174
1
175
1
176
0
178
1
 93
-1056964608
 45
4.0
292
0
297
0
 46
4.0
 94
-1056964608
 47
1.0
 49
1.0
140
1.0
294
1
141
0.0
177
0
142
1.0
295
0
296
0
143
3.75
271
0
272
9
273
9
  0
DICTIONARY
  5
2D
330
A
100
AcDbDictionary
281
1
  3
CREATED_BY_EZDXF
350
2E
  3
WRITTEN_BY_EZDXF
350
131
  0
DICTIONARYVAR
  5
2E
330
2D
100
DictionaryVariables
280
0
  1
1.0.3 @ 2023-11-03T02:38:29.264895+00:00
  0
DICTIONARYVAR
  5
131
330
2D
100
DictionaryVariables
280
0
  1
1.0.3 @ 2023-11-03T02:38:29.302769+00:00
  0
ENDSEC
  0
EOF
